%TF.GenerationSoftware,KiCad,Pcbnew,(5.1.10-1-10_14)*%
%TF.CreationDate,2021-06-13T18:58:13+09:00*%
%TF.ProjectId,tracer,74726163-6572-42e6-9b69-6361645f7063,rev?*%
%TF.SameCoordinates,Original*%
%TF.FileFunction,Profile,NP*%
%FSLAX46Y46*%
G04 Gerber Fmt 4.6, Leading zero omitted, Abs format (unit mm)*
G04 Created by KiCad (PCBNEW (5.1.10-1-10_14)) date 2021-06-13 18:58:13*
%MOMM*%
%LPD*%
G01*
G04 APERTURE LIST*
%TA.AperFunction,Profile*%
%ADD10C,0.025000*%
%TD*%
G04 APERTURE END LIST*
D10*
X-7000000Y36000000D02*
G75*
G02*
X-6000000Y37000000I1000000J0D01*
G01*
X-6000000Y32000000D02*
G75*
G02*
X-7000000Y33000000I0J1000000D01*
G01*
X-5000000Y27400000D02*
G75*
G02*
X-6000000Y28400000I0J1000000D01*
G01*
X6000000Y28400000D02*
G75*
G02*
X5000000Y27400000I-1000000J0D01*
G01*
X7000000Y33000000D02*
G75*
G02*
X6000000Y32000000I-1000000J0D01*
G01*
X6000000Y37000000D02*
G75*
G02*
X7000000Y36000000I0J-1000000D01*
G01*
X5000000Y45400000D02*
G75*
G02*
X6000000Y44400000I0J-1000000D01*
G01*
X-6000000Y44400000D02*
G75*
G02*
X-5000000Y45400000I1000000J0D01*
G01*
X10000000Y48400000D02*
G75*
G02*
X11000000Y47400000I0J-1000000D01*
G01*
X-11000000Y47400000D02*
G75*
G02*
X-10000000Y48400000I1000000J0D01*
G01*
X-6000000Y32000000D02*
X-6000000Y28400000D01*
X6000000Y32000000D02*
X6000000Y28400000D01*
X7000000Y33000000D02*
X7000000Y36000000D01*
X-7000000Y33000000D02*
X-7000000Y36000000D01*
X5000000Y45400000D02*
X-5000000Y45400000D01*
X-6000000Y37000000D02*
X-6000000Y44400000D01*
X6000000Y37000000D02*
X6000000Y44400000D01*
X-5000000Y27400000D02*
X5000000Y27400000D01*
X-3405000Y0D02*
X-5000000Y0D01*
X5000000Y0D02*
X3500000Y0D01*
X-3405000Y1500000D02*
X-3405000Y0D01*
X3500000Y1500000D02*
X3500000Y0D01*
X-3405000Y1500000D02*
X3500000Y1500000D01*
X5000000Y0D02*
X11000000Y6000000D01*
X10000000Y48400000D02*
X-10000000Y48400000D01*
X11000000Y6000000D02*
X11000000Y47400000D01*
X-11000000Y6000000D02*
X-5000000Y0D01*
X-11000000Y47400000D02*
X-11000000Y6000000D01*
M02*
