%TF.GenerationSoftware,KiCad,Pcbnew,(5.1.9-0-10_14)*%
%TF.CreationDate,2021-05-20T16:30:14+09:00*%
%TF.ProjectId,tracer,74726163-6572-42e6-9b69-6361645f7063,rev?*%
%TF.SameCoordinates,Original*%
%TF.FileFunction,Copper,L3,Inr*%
%TF.FilePolarity,Positive*%
%FSLAX46Y46*%
G04 Gerber Fmt 4.6, Leading zero omitted, Abs format (unit mm)*
G04 Created by KiCad (PCBNEW (5.1.9-0-10_14)) date 2021-05-20 16:30:14*
%MOMM*%
%LPD*%
G01*
G04 APERTURE LIST*
%TA.AperFunction,ComponentPad*%
%ADD10C,0.800000*%
%TD*%
%TA.AperFunction,ViaPad*%
%ADD11C,0.800000*%
%TD*%
%TA.AperFunction,Conductor*%
%ADD12C,0.254000*%
%TD*%
%TA.AperFunction,Conductor*%
%ADD13C,0.100000*%
%TD*%
G04 APERTURE END LIST*
D10*
%TO.N,Net-(A1-Pad14)*%
%TO.C,TP14*%
X9906000Y38227000D03*
%TD*%
%TO.N,Net-(A1-Pad13)*%
%TO.C,TP13*%
X9906000Y35687000D03*
%TD*%
%TO.N,Net-(A1-Pad19)*%
%TO.C,TP19*%
X2540000Y23368000D03*
%TD*%
%TO.N,Net-(A1-Pad17)*%
%TO.C,TP17*%
X-2540000Y23368000D03*
%TD*%
D11*
%TO.N,GND*%
X254000Y12671000D03*
X-3683000Y12671000D03*
X5842000Y16227000D03*
X-5715000Y16925500D03*
X-7366000Y22640500D03*
X254000Y17751000D03*
X4445000Y12671000D03*
X-9906000Y40767000D03*
X-6350000Y40767000D03*
X-5334000Y40767000D03*
X-1460500Y21907500D03*
X1651000Y21907500D03*
X8128000Y22415500D03*
X10033000Y6921500D03*
X-9906000Y6858000D03*
%TO.N,/~SS*%
X4762500Y23974000D03*
X9906000Y30607000D03*
%TO.N,/CLK*%
X9906000Y28067000D03*
X5842000Y22450000D03*
%TO.N,/SDI*%
X5905500Y25625000D03*
%TO.N,/~SHDN*%
X254000Y14512500D03*
X-9906000Y30607000D03*
%TO.N,/~RS*%
X254000Y16544500D03*
X-2984500Y21116500D03*
X-9906000Y28067000D03*
%TO.N,+5V*%
X-9525000Y22640500D03*
X-5334000Y43307000D03*
X-9906000Y43307000D03*
X-6350000Y43307000D03*
X9937750Y22701250D03*
%TO.N,/RELAY2*%
X-9906000Y33147000D03*
%TO.N,/RELAY1*%
X-9906000Y35687000D03*
%TO.N,/SDO1*%
X5905500Y26704500D03*
X9906000Y33147000D03*
%TO.N,/SDO2*%
X6604000Y23212000D03*
%TO.N,+3V3*%
X-9906000Y38227000D03*
X-6350000Y38227000D03*
X-5334000Y38227000D03*
X0Y21145500D03*
%TO.N,Net-(A1-Pad15)*%
X9906000Y40865000D03*
%TO.N,Net-(A1-Pad16)*%
X9906000Y43405000D03*
%TO.N,Net-(D1-Pad2)*%
X7366000Y23876000D03*
%TD*%
D12*
%TO.N,+3V3*%
X3718000Y16377000D02*
X1275959Y16377000D01*
X1289000Y16442561D01*
X1289000Y16646439D01*
X1249226Y16846398D01*
X1171205Y17034756D01*
X1095705Y17147750D01*
X1171205Y17260744D01*
X1249226Y17449102D01*
X1289000Y17649061D01*
X1289000Y17852939D01*
X1249226Y18052898D01*
X1171205Y18241256D01*
X1057937Y18410774D01*
X913774Y18554937D01*
X744256Y18668205D01*
X555898Y18746226D01*
X355939Y18786000D01*
X152061Y18786000D01*
X-47898Y18746226D01*
X-236256Y18668205D01*
X-405774Y18554937D01*
X-549937Y18410774D01*
X-663205Y18241256D01*
X-741226Y18052898D01*
X-781000Y17852939D01*
X-781000Y17649061D01*
X-741226Y17449102D01*
X-663205Y17260744D01*
X-587705Y17147750D01*
X-663205Y17034756D01*
X-741226Y16846398D01*
X-781000Y16646439D01*
X-781000Y16442561D01*
X-767959Y16377000D01*
X-2528000Y16377000D01*
X-2528000Y20185313D01*
X-2494244Y20199295D01*
X-2324726Y20312563D01*
X-2180563Y20456726D01*
X-2067295Y20626244D01*
X-1989274Y20814602D01*
X-1953908Y20992401D01*
X-1950756Y20990295D01*
X-1762398Y20912274D01*
X-1562439Y20872500D01*
X-1358561Y20872500D01*
X-1158602Y20912274D01*
X-970244Y20990295D01*
X-800726Y21103563D01*
X-656563Y21247726D01*
X-543295Y21417244D01*
X-465274Y21605602D01*
X-425500Y21805561D01*
X-425500Y22009439D01*
X616000Y22009439D01*
X616000Y21805561D01*
X655774Y21605602D01*
X733795Y21417244D01*
X847063Y21247726D01*
X991226Y21103563D01*
X1160744Y20990295D01*
X1349102Y20912274D01*
X1549061Y20872500D01*
X1752939Y20872500D01*
X1952898Y20912274D01*
X2141256Y20990295D01*
X2310774Y21103563D01*
X2454937Y21247726D01*
X2568205Y21417244D01*
X2646226Y21605602D01*
X2686000Y21805561D01*
X2686000Y22009439D01*
X2646226Y22209398D01*
X2595028Y22333000D01*
X2641939Y22333000D01*
X2841898Y22372774D01*
X3030256Y22450795D01*
X3199774Y22564063D01*
X3343937Y22708226D01*
X3457205Y22877744D01*
X3535226Y23066102D01*
X3575000Y23266061D01*
X3575000Y23469939D01*
X3535226Y23669898D01*
X3457205Y23858256D01*
X3343937Y24027774D01*
X3199774Y24171937D01*
X3030256Y24285205D01*
X2841898Y24363226D01*
X2641939Y24403000D01*
X2438061Y24403000D01*
X2238102Y24363226D01*
X2049744Y24285205D01*
X1880226Y24171937D01*
X1736063Y24027774D01*
X1622795Y23858256D01*
X1544774Y23669898D01*
X1505000Y23469939D01*
X1505000Y23266061D01*
X1544774Y23066102D01*
X1595972Y22942500D01*
X1549061Y22942500D01*
X1349102Y22902726D01*
X1160744Y22824705D01*
X991226Y22711437D01*
X847063Y22567274D01*
X733795Y22397756D01*
X655774Y22209398D01*
X616000Y22009439D01*
X-425500Y22009439D01*
X-465274Y22209398D01*
X-543295Y22397756D01*
X-656563Y22567274D01*
X-800726Y22711437D01*
X-970244Y22824705D01*
X-1158602Y22902726D01*
X-1358561Y22942500D01*
X-1562439Y22942500D01*
X-1598983Y22935231D01*
X-1544774Y23066102D01*
X-1505000Y23266061D01*
X-1505000Y23469939D01*
X-1544774Y23669898D01*
X-1622795Y23858256D01*
X-1736063Y24027774D01*
X-1880226Y24171937D01*
X-2049744Y24285205D01*
X-2238102Y24363226D01*
X-2438061Y24403000D01*
X-2528000Y24403000D01*
X-2528000Y24750000D01*
X-2530440Y24774776D01*
X-2537667Y24798601D01*
X-2549403Y24820557D01*
X-2565197Y24839803D01*
X-2584443Y24855597D01*
X-2606399Y24867333D01*
X-2630224Y24874560D01*
X-2655000Y24877000D01*
X-6528000Y24877000D01*
X-6528000Y39123000D01*
X3718000Y39123000D01*
X3718000Y16377000D01*
%TA.AperFunction,Conductor*%
D13*
G36*
X3718000Y16377000D02*
G01*
X1275959Y16377000D01*
X1289000Y16442561D01*
X1289000Y16646439D01*
X1249226Y16846398D01*
X1171205Y17034756D01*
X1095705Y17147750D01*
X1171205Y17260744D01*
X1249226Y17449102D01*
X1289000Y17649061D01*
X1289000Y17852939D01*
X1249226Y18052898D01*
X1171205Y18241256D01*
X1057937Y18410774D01*
X913774Y18554937D01*
X744256Y18668205D01*
X555898Y18746226D01*
X355939Y18786000D01*
X152061Y18786000D01*
X-47898Y18746226D01*
X-236256Y18668205D01*
X-405774Y18554937D01*
X-549937Y18410774D01*
X-663205Y18241256D01*
X-741226Y18052898D01*
X-781000Y17852939D01*
X-781000Y17649061D01*
X-741226Y17449102D01*
X-663205Y17260744D01*
X-587705Y17147750D01*
X-663205Y17034756D01*
X-741226Y16846398D01*
X-781000Y16646439D01*
X-781000Y16442561D01*
X-767959Y16377000D01*
X-2528000Y16377000D01*
X-2528000Y20185313D01*
X-2494244Y20199295D01*
X-2324726Y20312563D01*
X-2180563Y20456726D01*
X-2067295Y20626244D01*
X-1989274Y20814602D01*
X-1953908Y20992401D01*
X-1950756Y20990295D01*
X-1762398Y20912274D01*
X-1562439Y20872500D01*
X-1358561Y20872500D01*
X-1158602Y20912274D01*
X-970244Y20990295D01*
X-800726Y21103563D01*
X-656563Y21247726D01*
X-543295Y21417244D01*
X-465274Y21605602D01*
X-425500Y21805561D01*
X-425500Y22009439D01*
X616000Y22009439D01*
X616000Y21805561D01*
X655774Y21605602D01*
X733795Y21417244D01*
X847063Y21247726D01*
X991226Y21103563D01*
X1160744Y20990295D01*
X1349102Y20912274D01*
X1549061Y20872500D01*
X1752939Y20872500D01*
X1952898Y20912274D01*
X2141256Y20990295D01*
X2310774Y21103563D01*
X2454937Y21247726D01*
X2568205Y21417244D01*
X2646226Y21605602D01*
X2686000Y21805561D01*
X2686000Y22009439D01*
X2646226Y22209398D01*
X2595028Y22333000D01*
X2641939Y22333000D01*
X2841898Y22372774D01*
X3030256Y22450795D01*
X3199774Y22564063D01*
X3343937Y22708226D01*
X3457205Y22877744D01*
X3535226Y23066102D01*
X3575000Y23266061D01*
X3575000Y23469939D01*
X3535226Y23669898D01*
X3457205Y23858256D01*
X3343937Y24027774D01*
X3199774Y24171937D01*
X3030256Y24285205D01*
X2841898Y24363226D01*
X2641939Y24403000D01*
X2438061Y24403000D01*
X2238102Y24363226D01*
X2049744Y24285205D01*
X1880226Y24171937D01*
X1736063Y24027774D01*
X1622795Y23858256D01*
X1544774Y23669898D01*
X1505000Y23469939D01*
X1505000Y23266061D01*
X1544774Y23066102D01*
X1595972Y22942500D01*
X1549061Y22942500D01*
X1349102Y22902726D01*
X1160744Y22824705D01*
X991226Y22711437D01*
X847063Y22567274D01*
X733795Y22397756D01*
X655774Y22209398D01*
X616000Y22009439D01*
X-425500Y22009439D01*
X-465274Y22209398D01*
X-543295Y22397756D01*
X-656563Y22567274D01*
X-800726Y22711437D01*
X-970244Y22824705D01*
X-1158602Y22902726D01*
X-1358561Y22942500D01*
X-1562439Y22942500D01*
X-1598983Y22935231D01*
X-1544774Y23066102D01*
X-1505000Y23266061D01*
X-1505000Y23469939D01*
X-1544774Y23669898D01*
X-1622795Y23858256D01*
X-1736063Y24027774D01*
X-1880226Y24171937D01*
X-2049744Y24285205D01*
X-2238102Y24363226D01*
X-2438061Y24403000D01*
X-2528000Y24403000D01*
X-2528000Y24750000D01*
X-2530440Y24774776D01*
X-2537667Y24798601D01*
X-2549403Y24820557D01*
X-2565197Y24839803D01*
X-2584443Y24855597D01*
X-2606399Y24867333D01*
X-2630224Y24874560D01*
X-2655000Y24877000D01*
X-6528000Y24877000D01*
X-6528000Y39123000D01*
X3718000Y39123000D01*
X3718000Y16377000D01*
G37*
%TD.AperFunction*%
%TD*%
D12*
%TO.N,+5V*%
X9415744Y44322205D02*
X9246226Y44208937D01*
X9102063Y44064774D01*
X8988795Y43895256D01*
X8910774Y43706898D01*
X8871000Y43506939D01*
X8871000Y43303061D01*
X8910774Y43103102D01*
X8988795Y42914744D01*
X9102063Y42745226D01*
X9246226Y42601063D01*
X9415744Y42487795D01*
X9604102Y42409774D01*
X9804061Y42370000D01*
X10007939Y42370000D01*
X10207898Y42409774D01*
X10340001Y42464493D01*
X10340001Y41805507D01*
X10207898Y41860226D01*
X10007939Y41900000D01*
X9804061Y41900000D01*
X9604102Y41860226D01*
X9415744Y41782205D01*
X9246226Y41668937D01*
X9102063Y41524774D01*
X8988795Y41355256D01*
X8910774Y41166898D01*
X8871000Y40966939D01*
X8871000Y40763061D01*
X8910774Y40563102D01*
X8988795Y40374744D01*
X9102063Y40205226D01*
X9246226Y40061063D01*
X9415744Y39947795D01*
X9604102Y39869774D01*
X9804061Y39830000D01*
X10007939Y39830000D01*
X10207898Y39869774D01*
X10340001Y39924493D01*
X10340001Y39167507D01*
X10207898Y39222226D01*
X10007939Y39262000D01*
X9804061Y39262000D01*
X9604102Y39222226D01*
X9415744Y39144205D01*
X9246226Y39030937D01*
X9102063Y38886774D01*
X8988795Y38717256D01*
X8910774Y38528898D01*
X8871000Y38328939D01*
X8871000Y38125061D01*
X8910774Y37925102D01*
X8988795Y37736744D01*
X9102063Y37567226D01*
X9246226Y37423063D01*
X9415744Y37309795D01*
X9604102Y37231774D01*
X9804061Y37192000D01*
X10007939Y37192000D01*
X10207898Y37231774D01*
X10340001Y37286493D01*
X10340001Y36627507D01*
X10207898Y36682226D01*
X10007939Y36722000D01*
X9804061Y36722000D01*
X9604102Y36682226D01*
X9415744Y36604205D01*
X9246226Y36490937D01*
X9102063Y36346774D01*
X8988795Y36177256D01*
X8910774Y35988898D01*
X8871000Y35788939D01*
X8871000Y35585061D01*
X8910774Y35385102D01*
X8988795Y35196744D01*
X9102063Y35027226D01*
X9246226Y34883063D01*
X9415744Y34769795D01*
X9604102Y34691774D01*
X9804061Y34652000D01*
X10007939Y34652000D01*
X10207898Y34691774D01*
X10340001Y34746493D01*
X10340001Y34087507D01*
X10207898Y34142226D01*
X10007939Y34182000D01*
X9804061Y34182000D01*
X9604102Y34142226D01*
X9415744Y34064205D01*
X9246226Y33950937D01*
X9102063Y33806774D01*
X8988795Y33637256D01*
X8910774Y33448898D01*
X8871000Y33248939D01*
X8871000Y33045061D01*
X8910774Y32845102D01*
X8988795Y32656744D01*
X9008669Y32627000D01*
X4722000Y32627000D01*
X4722000Y40000000D01*
X4719560Y40024776D01*
X4712333Y40048601D01*
X4700597Y40070557D01*
X4684803Y40089803D01*
X4665557Y40105597D01*
X4643601Y40117333D01*
X4619776Y40124560D01*
X4595000Y40127000D01*
X-4516850Y40127000D01*
X-4416795Y40276744D01*
X-4338774Y40465102D01*
X-4299000Y40665061D01*
X-4299000Y40868939D01*
X-4338774Y41068898D01*
X-4416795Y41257256D01*
X-4530063Y41426774D01*
X-4674226Y41570937D01*
X-4843744Y41684205D01*
X-5032102Y41762226D01*
X-5232061Y41802000D01*
X-5435939Y41802000D01*
X-5635898Y41762226D01*
X-5824256Y41684205D01*
X-5842000Y41672349D01*
X-5859744Y41684205D01*
X-6048102Y41762226D01*
X-6248061Y41802000D01*
X-6451939Y41802000D01*
X-6651898Y41762226D01*
X-6840256Y41684205D01*
X-7009774Y41570937D01*
X-7153937Y41426774D01*
X-7267205Y41257256D01*
X-7345226Y41068898D01*
X-7385000Y40868939D01*
X-7385000Y40665061D01*
X-7345226Y40465102D01*
X-7267205Y40276744D01*
X-7167150Y40127000D01*
X-7405000Y40127000D01*
X-7429776Y40124560D01*
X-7453601Y40117333D01*
X-7475557Y40105597D01*
X-7494803Y40089803D01*
X-7510597Y40070557D01*
X-7522333Y40048601D01*
X-7529560Y40024776D01*
X-7532000Y40000000D01*
X-7532000Y24000000D01*
X-7529560Y23975224D01*
X-7522333Y23951399D01*
X-7510597Y23929443D01*
X-7494803Y23910197D01*
X-7475557Y23894403D01*
X-7453601Y23882667D01*
X-7429776Y23875440D01*
X-7405000Y23873000D01*
X-3532000Y23873000D01*
X-3532000Y23677686D01*
X-3535226Y23669898D01*
X-3575000Y23469939D01*
X-3575000Y23266061D01*
X-3535226Y23066102D01*
X-3532000Y23058314D01*
X-3532000Y21995456D01*
X-3644274Y21920437D01*
X-3788437Y21776274D01*
X-3901705Y21606756D01*
X-3979726Y21418398D01*
X-4019500Y21218439D01*
X-4019500Y21014561D01*
X-3979726Y20814602D01*
X-3901705Y20626244D01*
X-3788437Y20456726D01*
X-3644274Y20312563D01*
X-3532000Y20237544D01*
X-3532000Y15500000D01*
X-3529560Y15475224D01*
X-3522333Y15451399D01*
X-3510597Y15429443D01*
X-3494803Y15410197D01*
X-3475557Y15394403D01*
X-3453601Y15382667D01*
X-3429776Y15375440D01*
X-3405000Y15373000D01*
X-321121Y15373000D01*
X-405774Y15316437D01*
X-549937Y15172274D01*
X-663205Y15002756D01*
X-741226Y14814398D01*
X-781000Y14614439D01*
X-781000Y14410561D01*
X-741226Y14210602D01*
X-663205Y14022244D01*
X-549937Y13852726D01*
X-405774Y13708563D01*
X-236256Y13595295D01*
X-227698Y13591750D01*
X-236256Y13588205D01*
X-405774Y13474937D01*
X-549937Y13330774D01*
X-663205Y13161256D01*
X-741226Y12972898D01*
X-781000Y12772939D01*
X-781000Y12569061D01*
X-741226Y12369102D01*
X-663205Y12180744D01*
X-549937Y12011226D01*
X-405774Y11867063D01*
X-236256Y11753795D01*
X-47898Y11675774D01*
X152061Y11636000D01*
X355939Y11636000D01*
X555898Y11675774D01*
X744256Y11753795D01*
X913774Y11867063D01*
X1057937Y12011226D01*
X1171205Y12180744D01*
X1249226Y12369102D01*
X1289000Y12569061D01*
X1289000Y12772939D01*
X3410000Y12772939D01*
X3410000Y12569061D01*
X3449774Y12369102D01*
X3527795Y12180744D01*
X3641063Y12011226D01*
X3785226Y11867063D01*
X3954744Y11753795D01*
X4143102Y11675774D01*
X4343061Y11636000D01*
X4546939Y11636000D01*
X4746898Y11675774D01*
X4935256Y11753795D01*
X5104774Y11867063D01*
X5248937Y12011226D01*
X5362205Y12180744D01*
X5440226Y12369102D01*
X5480000Y12569061D01*
X5480000Y12772939D01*
X5440226Y12972898D01*
X5362205Y13161256D01*
X5248937Y13330774D01*
X5104774Y13474937D01*
X4935256Y13588205D01*
X4746898Y13666226D01*
X4546939Y13706000D01*
X4343061Y13706000D01*
X4143102Y13666226D01*
X3954744Y13588205D01*
X3785226Y13474937D01*
X3641063Y13330774D01*
X3527795Y13161256D01*
X3449774Y12972898D01*
X3410000Y12772939D01*
X1289000Y12772939D01*
X1249226Y12972898D01*
X1171205Y13161256D01*
X1057937Y13330774D01*
X913774Y13474937D01*
X744256Y13588205D01*
X735698Y13591750D01*
X744256Y13595295D01*
X913774Y13708563D01*
X1057937Y13852726D01*
X1171205Y14022244D01*
X1249226Y14210602D01*
X1289000Y14410561D01*
X1289000Y14614439D01*
X1249226Y14814398D01*
X1171205Y15002756D01*
X1057937Y15172274D01*
X913774Y15316437D01*
X829121Y15373000D01*
X4595000Y15373000D01*
X4619776Y15375440D01*
X4643601Y15382667D01*
X4665557Y15394403D01*
X4684803Y15410197D01*
X4700597Y15429443D01*
X4712333Y15451399D01*
X4719560Y15475224D01*
X4722000Y15500000D01*
X4722000Y16328939D01*
X4807000Y16328939D01*
X4807000Y16125061D01*
X4846774Y15925102D01*
X4924795Y15736744D01*
X5038063Y15567226D01*
X5182226Y15423063D01*
X5351744Y15309795D01*
X5540102Y15231774D01*
X5740061Y15192000D01*
X5943939Y15192000D01*
X6143898Y15231774D01*
X6332256Y15309795D01*
X6501774Y15423063D01*
X6645937Y15567226D01*
X6759205Y15736744D01*
X6837226Y15925102D01*
X6877000Y16125061D01*
X6877000Y16328939D01*
X6837226Y16528898D01*
X6759205Y16717256D01*
X6645937Y16886774D01*
X6501774Y17030937D01*
X6332256Y17144205D01*
X6143898Y17222226D01*
X5943939Y17262000D01*
X5740061Y17262000D01*
X5540102Y17222226D01*
X5351744Y17144205D01*
X5182226Y17030937D01*
X5038063Y16886774D01*
X4924795Y16717256D01*
X4846774Y16528898D01*
X4807000Y16328939D01*
X4722000Y16328939D01*
X4722000Y22939000D01*
X4864439Y22939000D01*
X4933078Y22952653D01*
X4924795Y22940256D01*
X4846774Y22751898D01*
X4807000Y22551939D01*
X4807000Y22348061D01*
X4846774Y22148102D01*
X4924795Y21959744D01*
X5038063Y21790226D01*
X5182226Y21646063D01*
X5351744Y21532795D01*
X5540102Y21454774D01*
X5740061Y21415000D01*
X5943939Y21415000D01*
X6143898Y21454774D01*
X6332256Y21532795D01*
X6501774Y21646063D01*
X6645937Y21790226D01*
X6759205Y21959744D01*
X6837226Y22148102D01*
X6848619Y22205381D01*
X6905898Y22216774D01*
X7094256Y22294795D01*
X7096442Y22296256D01*
X7132774Y22113602D01*
X7210795Y21925244D01*
X7324063Y21755726D01*
X7468226Y21611563D01*
X7637744Y21498295D01*
X7826102Y21420274D01*
X8026061Y21380500D01*
X8229939Y21380500D01*
X8429898Y21420274D01*
X8618256Y21498295D01*
X8787774Y21611563D01*
X8931937Y21755726D01*
X9045205Y21925244D01*
X9123226Y22113602D01*
X9163000Y22313561D01*
X9163000Y22517439D01*
X9123226Y22717398D01*
X9045205Y22905756D01*
X8931937Y23075274D01*
X8787774Y23219437D01*
X8618256Y23332705D01*
X8429898Y23410726D01*
X8303932Y23435782D01*
X8361226Y23574102D01*
X8401000Y23774061D01*
X8401000Y23977939D01*
X8361226Y24177898D01*
X8283205Y24366256D01*
X8169937Y24535774D01*
X8025774Y24679937D01*
X7856256Y24793205D01*
X7667898Y24871226D01*
X7467939Y24911000D01*
X7264061Y24911000D01*
X7064102Y24871226D01*
X6875744Y24793205D01*
X6706226Y24679937D01*
X6562063Y24535774D01*
X6448795Y24366256D01*
X6390179Y24224745D01*
X6302102Y24207226D01*
X6113744Y24129205D01*
X5944226Y24015937D01*
X5800063Y23871774D01*
X5796332Y23866191D01*
X5797500Y23872061D01*
X5797500Y24075939D01*
X5757726Y24275898D01*
X5679705Y24464256D01*
X5566437Y24633774D01*
X5546986Y24653225D01*
X5603602Y24629774D01*
X5803561Y24590000D01*
X6007439Y24590000D01*
X6207398Y24629774D01*
X6395756Y24707795D01*
X6565274Y24821063D01*
X6709437Y24965226D01*
X6822705Y25134744D01*
X6900726Y25323102D01*
X6940500Y25523061D01*
X6940500Y25726939D01*
X6900726Y25926898D01*
X6822705Y26115256D01*
X6789634Y26164750D01*
X6822705Y26214244D01*
X6900726Y26402602D01*
X6940500Y26602561D01*
X6940500Y26806439D01*
X6900726Y27006398D01*
X6822705Y27194756D01*
X6709437Y27364274D01*
X6565274Y27508437D01*
X6395756Y27621705D01*
X6207398Y27699726D01*
X6007439Y27739500D01*
X5803561Y27739500D01*
X5603602Y27699726D01*
X5415244Y27621705D01*
X5245726Y27508437D01*
X5101563Y27364274D01*
X4988295Y27194756D01*
X4910274Y27006398D01*
X4870500Y26806439D01*
X4870500Y26602561D01*
X4910274Y26402602D01*
X4988295Y26214244D01*
X5021366Y26164750D01*
X4988295Y26115256D01*
X4910274Y25926898D01*
X4870500Y25726939D01*
X4870500Y25523061D01*
X4910274Y25323102D01*
X4988295Y25134744D01*
X5101563Y24965226D01*
X5121014Y24945775D01*
X5064398Y24969226D01*
X4864439Y25009000D01*
X4722000Y25009000D01*
X4722000Y30873000D01*
X8903634Y30873000D01*
X8871000Y30708939D01*
X8871000Y30505061D01*
X8910774Y30305102D01*
X8988795Y30116744D01*
X9102063Y29947226D01*
X9246226Y29803063D01*
X9415744Y29689795D01*
X9604102Y29611774D01*
X9804061Y29572000D01*
X10007939Y29572000D01*
X10207898Y29611774D01*
X10340001Y29666493D01*
X10340001Y29007507D01*
X10207898Y29062226D01*
X10007939Y29102000D01*
X9804061Y29102000D01*
X9604102Y29062226D01*
X9415744Y28984205D01*
X9246226Y28870937D01*
X9102063Y28726774D01*
X8988795Y28557256D01*
X8910774Y28368898D01*
X8871000Y28168939D01*
X8871000Y27965061D01*
X8910774Y27765102D01*
X8988795Y27576744D01*
X9102063Y27407226D01*
X9246226Y27263063D01*
X9415744Y27149795D01*
X9604102Y27071774D01*
X9804061Y27032000D01*
X10007939Y27032000D01*
X10207898Y27071774D01*
X10340001Y27126493D01*
X10340000Y8127000D01*
X-10278000Y8127000D01*
X-10278000Y12772939D01*
X-4718000Y12772939D01*
X-4718000Y12569061D01*
X-4678226Y12369102D01*
X-4600205Y12180744D01*
X-4486937Y12011226D01*
X-4342774Y11867063D01*
X-4173256Y11753795D01*
X-3984898Y11675774D01*
X-3784939Y11636000D01*
X-3581061Y11636000D01*
X-3381102Y11675774D01*
X-3192744Y11753795D01*
X-3023226Y11867063D01*
X-2879063Y12011226D01*
X-2765795Y12180744D01*
X-2687774Y12369102D01*
X-2648000Y12569061D01*
X-2648000Y12772939D01*
X-2687774Y12972898D01*
X-2765795Y13161256D01*
X-2879063Y13330774D01*
X-3023226Y13474937D01*
X-3192744Y13588205D01*
X-3381102Y13666226D01*
X-3581061Y13706000D01*
X-3784939Y13706000D01*
X-3984898Y13666226D01*
X-4173256Y13588205D01*
X-4342774Y13474937D01*
X-4486937Y13330774D01*
X-4600205Y13161256D01*
X-4678226Y12972898D01*
X-4718000Y12772939D01*
X-10278000Y12772939D01*
X-10278000Y17027439D01*
X-6750000Y17027439D01*
X-6750000Y16823561D01*
X-6710226Y16623602D01*
X-6632205Y16435244D01*
X-6518937Y16265726D01*
X-6374774Y16121563D01*
X-6205256Y16008295D01*
X-6016898Y15930274D01*
X-5816939Y15890500D01*
X-5613061Y15890500D01*
X-5413102Y15930274D01*
X-5224744Y16008295D01*
X-5055226Y16121563D01*
X-4911063Y16265726D01*
X-4797795Y16435244D01*
X-4719774Y16623602D01*
X-4680000Y16823561D01*
X-4680000Y17027439D01*
X-4719774Y17227398D01*
X-4797795Y17415756D01*
X-4911063Y17585274D01*
X-5055226Y17729437D01*
X-5224744Y17842705D01*
X-5413102Y17920726D01*
X-5613061Y17960500D01*
X-5816939Y17960500D01*
X-6016898Y17920726D01*
X-6205256Y17842705D01*
X-6374774Y17729437D01*
X-6518937Y17585274D01*
X-6632205Y17415756D01*
X-6710226Y17227398D01*
X-6750000Y17027439D01*
X-10278000Y17027439D01*
X-10278000Y22742439D01*
X-8401000Y22742439D01*
X-8401000Y22538561D01*
X-8361226Y22338602D01*
X-8283205Y22150244D01*
X-8169937Y21980726D01*
X-8025774Y21836563D01*
X-7856256Y21723295D01*
X-7667898Y21645274D01*
X-7467939Y21605500D01*
X-7264061Y21605500D01*
X-7064102Y21645274D01*
X-6875744Y21723295D01*
X-6706226Y21836563D01*
X-6562063Y21980726D01*
X-6448795Y22150244D01*
X-6370774Y22338602D01*
X-6331000Y22538561D01*
X-6331000Y22742439D01*
X-6370774Y22942398D01*
X-6448795Y23130756D01*
X-6562063Y23300274D01*
X-6706226Y23444437D01*
X-6875744Y23557705D01*
X-7064102Y23635726D01*
X-7264061Y23675500D01*
X-7467939Y23675500D01*
X-7667898Y23635726D01*
X-7856256Y23557705D01*
X-8025774Y23444437D01*
X-8169937Y23300274D01*
X-8283205Y23130756D01*
X-8361226Y22942398D01*
X-8401000Y22742439D01*
X-10278000Y22742439D01*
X-10278000Y27100811D01*
X-10207898Y27071774D01*
X-10007939Y27032000D01*
X-9804061Y27032000D01*
X-9604102Y27071774D01*
X-9415744Y27149795D01*
X-9246226Y27263063D01*
X-9102063Y27407226D01*
X-8988795Y27576744D01*
X-8910774Y27765102D01*
X-8871000Y27965061D01*
X-8871000Y28168939D01*
X-8910774Y28368898D01*
X-8988795Y28557256D01*
X-9102063Y28726774D01*
X-9246226Y28870937D01*
X-9415744Y28984205D01*
X-9604102Y29062226D01*
X-9804061Y29102000D01*
X-10007939Y29102000D01*
X-10207898Y29062226D01*
X-10278000Y29033189D01*
X-10278000Y29640811D01*
X-10207898Y29611774D01*
X-10007939Y29572000D01*
X-9804061Y29572000D01*
X-9604102Y29611774D01*
X-9415744Y29689795D01*
X-9246226Y29803063D01*
X-9102063Y29947226D01*
X-8988795Y30116744D01*
X-8910774Y30305102D01*
X-8871000Y30505061D01*
X-8871000Y30708939D01*
X-8910774Y30908898D01*
X-8988795Y31097256D01*
X-9102063Y31266774D01*
X-9246226Y31410937D01*
X-9415744Y31524205D01*
X-9604102Y31602226D01*
X-9804061Y31642000D01*
X-10007939Y31642000D01*
X-10207898Y31602226D01*
X-10278000Y31573189D01*
X-10278000Y32180811D01*
X-10207898Y32151774D01*
X-10007939Y32112000D01*
X-9804061Y32112000D01*
X-9604102Y32151774D01*
X-9415744Y32229795D01*
X-9246226Y32343063D01*
X-9102063Y32487226D01*
X-8988795Y32656744D01*
X-8910774Y32845102D01*
X-8871000Y33045061D01*
X-8871000Y33248939D01*
X-8910774Y33448898D01*
X-8988795Y33637256D01*
X-9102063Y33806774D01*
X-9246226Y33950937D01*
X-9415744Y34064205D01*
X-9604102Y34142226D01*
X-9804061Y34182000D01*
X-10007939Y34182000D01*
X-10207898Y34142226D01*
X-10278000Y34113189D01*
X-10278000Y34720811D01*
X-10207898Y34691774D01*
X-10007939Y34652000D01*
X-9804061Y34652000D01*
X-9604102Y34691774D01*
X-9415744Y34769795D01*
X-9246226Y34883063D01*
X-9102063Y35027226D01*
X-8988795Y35196744D01*
X-8910774Y35385102D01*
X-8871000Y35585061D01*
X-8871000Y35788939D01*
X-8910774Y35988898D01*
X-8988795Y36177256D01*
X-9102063Y36346774D01*
X-9246226Y36490937D01*
X-9415744Y36604205D01*
X-9604102Y36682226D01*
X-9804061Y36722000D01*
X-10007939Y36722000D01*
X-10207898Y36682226D01*
X-10278000Y36653189D01*
X-10278000Y37260811D01*
X-10207898Y37231774D01*
X-10007939Y37192000D01*
X-9804061Y37192000D01*
X-9604102Y37231774D01*
X-9415744Y37309795D01*
X-9246226Y37423063D01*
X-9102063Y37567226D01*
X-8988795Y37736744D01*
X-8910774Y37925102D01*
X-8871000Y38125061D01*
X-8871000Y38328939D01*
X-8910774Y38528898D01*
X-8988795Y38717256D01*
X-9102063Y38886774D01*
X-9246226Y39030937D01*
X-9415744Y39144205D01*
X-9604102Y39222226D01*
X-9804061Y39262000D01*
X-10007939Y39262000D01*
X-10207898Y39222226D01*
X-10278000Y39193189D01*
X-10278000Y39800811D01*
X-10207898Y39771774D01*
X-10007939Y39732000D01*
X-9804061Y39732000D01*
X-9604102Y39771774D01*
X-9415744Y39849795D01*
X-9246226Y39963063D01*
X-9102063Y40107226D01*
X-8988795Y40276744D01*
X-8910774Y40465102D01*
X-8871000Y40665061D01*
X-8871000Y40868939D01*
X-8910774Y41068898D01*
X-8988795Y41257256D01*
X-9102063Y41426774D01*
X-9246226Y41570937D01*
X-9415744Y41684205D01*
X-9604102Y41762226D01*
X-9804061Y41802000D01*
X-10007939Y41802000D01*
X-10207898Y41762226D01*
X-10278000Y41733189D01*
X-10278000Y44340000D01*
X9458705Y44340000D01*
X9415744Y44322205D01*
%TA.AperFunction,Conductor*%
D13*
G36*
X9415744Y44322205D02*
G01*
X9246226Y44208937D01*
X9102063Y44064774D01*
X8988795Y43895256D01*
X8910774Y43706898D01*
X8871000Y43506939D01*
X8871000Y43303061D01*
X8910774Y43103102D01*
X8988795Y42914744D01*
X9102063Y42745226D01*
X9246226Y42601063D01*
X9415744Y42487795D01*
X9604102Y42409774D01*
X9804061Y42370000D01*
X10007939Y42370000D01*
X10207898Y42409774D01*
X10340001Y42464493D01*
X10340001Y41805507D01*
X10207898Y41860226D01*
X10007939Y41900000D01*
X9804061Y41900000D01*
X9604102Y41860226D01*
X9415744Y41782205D01*
X9246226Y41668937D01*
X9102063Y41524774D01*
X8988795Y41355256D01*
X8910774Y41166898D01*
X8871000Y40966939D01*
X8871000Y40763061D01*
X8910774Y40563102D01*
X8988795Y40374744D01*
X9102063Y40205226D01*
X9246226Y40061063D01*
X9415744Y39947795D01*
X9604102Y39869774D01*
X9804061Y39830000D01*
X10007939Y39830000D01*
X10207898Y39869774D01*
X10340001Y39924493D01*
X10340001Y39167507D01*
X10207898Y39222226D01*
X10007939Y39262000D01*
X9804061Y39262000D01*
X9604102Y39222226D01*
X9415744Y39144205D01*
X9246226Y39030937D01*
X9102063Y38886774D01*
X8988795Y38717256D01*
X8910774Y38528898D01*
X8871000Y38328939D01*
X8871000Y38125061D01*
X8910774Y37925102D01*
X8988795Y37736744D01*
X9102063Y37567226D01*
X9246226Y37423063D01*
X9415744Y37309795D01*
X9604102Y37231774D01*
X9804061Y37192000D01*
X10007939Y37192000D01*
X10207898Y37231774D01*
X10340001Y37286493D01*
X10340001Y36627507D01*
X10207898Y36682226D01*
X10007939Y36722000D01*
X9804061Y36722000D01*
X9604102Y36682226D01*
X9415744Y36604205D01*
X9246226Y36490937D01*
X9102063Y36346774D01*
X8988795Y36177256D01*
X8910774Y35988898D01*
X8871000Y35788939D01*
X8871000Y35585061D01*
X8910774Y35385102D01*
X8988795Y35196744D01*
X9102063Y35027226D01*
X9246226Y34883063D01*
X9415744Y34769795D01*
X9604102Y34691774D01*
X9804061Y34652000D01*
X10007939Y34652000D01*
X10207898Y34691774D01*
X10340001Y34746493D01*
X10340001Y34087507D01*
X10207898Y34142226D01*
X10007939Y34182000D01*
X9804061Y34182000D01*
X9604102Y34142226D01*
X9415744Y34064205D01*
X9246226Y33950937D01*
X9102063Y33806774D01*
X8988795Y33637256D01*
X8910774Y33448898D01*
X8871000Y33248939D01*
X8871000Y33045061D01*
X8910774Y32845102D01*
X8988795Y32656744D01*
X9008669Y32627000D01*
X4722000Y32627000D01*
X4722000Y40000000D01*
X4719560Y40024776D01*
X4712333Y40048601D01*
X4700597Y40070557D01*
X4684803Y40089803D01*
X4665557Y40105597D01*
X4643601Y40117333D01*
X4619776Y40124560D01*
X4595000Y40127000D01*
X-4516850Y40127000D01*
X-4416795Y40276744D01*
X-4338774Y40465102D01*
X-4299000Y40665061D01*
X-4299000Y40868939D01*
X-4338774Y41068898D01*
X-4416795Y41257256D01*
X-4530063Y41426774D01*
X-4674226Y41570937D01*
X-4843744Y41684205D01*
X-5032102Y41762226D01*
X-5232061Y41802000D01*
X-5435939Y41802000D01*
X-5635898Y41762226D01*
X-5824256Y41684205D01*
X-5842000Y41672349D01*
X-5859744Y41684205D01*
X-6048102Y41762226D01*
X-6248061Y41802000D01*
X-6451939Y41802000D01*
X-6651898Y41762226D01*
X-6840256Y41684205D01*
X-7009774Y41570937D01*
X-7153937Y41426774D01*
X-7267205Y41257256D01*
X-7345226Y41068898D01*
X-7385000Y40868939D01*
X-7385000Y40665061D01*
X-7345226Y40465102D01*
X-7267205Y40276744D01*
X-7167150Y40127000D01*
X-7405000Y40127000D01*
X-7429776Y40124560D01*
X-7453601Y40117333D01*
X-7475557Y40105597D01*
X-7494803Y40089803D01*
X-7510597Y40070557D01*
X-7522333Y40048601D01*
X-7529560Y40024776D01*
X-7532000Y40000000D01*
X-7532000Y24000000D01*
X-7529560Y23975224D01*
X-7522333Y23951399D01*
X-7510597Y23929443D01*
X-7494803Y23910197D01*
X-7475557Y23894403D01*
X-7453601Y23882667D01*
X-7429776Y23875440D01*
X-7405000Y23873000D01*
X-3532000Y23873000D01*
X-3532000Y23677686D01*
X-3535226Y23669898D01*
X-3575000Y23469939D01*
X-3575000Y23266061D01*
X-3535226Y23066102D01*
X-3532000Y23058314D01*
X-3532000Y21995456D01*
X-3644274Y21920437D01*
X-3788437Y21776274D01*
X-3901705Y21606756D01*
X-3979726Y21418398D01*
X-4019500Y21218439D01*
X-4019500Y21014561D01*
X-3979726Y20814602D01*
X-3901705Y20626244D01*
X-3788437Y20456726D01*
X-3644274Y20312563D01*
X-3532000Y20237544D01*
X-3532000Y15500000D01*
X-3529560Y15475224D01*
X-3522333Y15451399D01*
X-3510597Y15429443D01*
X-3494803Y15410197D01*
X-3475557Y15394403D01*
X-3453601Y15382667D01*
X-3429776Y15375440D01*
X-3405000Y15373000D01*
X-321121Y15373000D01*
X-405774Y15316437D01*
X-549937Y15172274D01*
X-663205Y15002756D01*
X-741226Y14814398D01*
X-781000Y14614439D01*
X-781000Y14410561D01*
X-741226Y14210602D01*
X-663205Y14022244D01*
X-549937Y13852726D01*
X-405774Y13708563D01*
X-236256Y13595295D01*
X-227698Y13591750D01*
X-236256Y13588205D01*
X-405774Y13474937D01*
X-549937Y13330774D01*
X-663205Y13161256D01*
X-741226Y12972898D01*
X-781000Y12772939D01*
X-781000Y12569061D01*
X-741226Y12369102D01*
X-663205Y12180744D01*
X-549937Y12011226D01*
X-405774Y11867063D01*
X-236256Y11753795D01*
X-47898Y11675774D01*
X152061Y11636000D01*
X355939Y11636000D01*
X555898Y11675774D01*
X744256Y11753795D01*
X913774Y11867063D01*
X1057937Y12011226D01*
X1171205Y12180744D01*
X1249226Y12369102D01*
X1289000Y12569061D01*
X1289000Y12772939D01*
X3410000Y12772939D01*
X3410000Y12569061D01*
X3449774Y12369102D01*
X3527795Y12180744D01*
X3641063Y12011226D01*
X3785226Y11867063D01*
X3954744Y11753795D01*
X4143102Y11675774D01*
X4343061Y11636000D01*
X4546939Y11636000D01*
X4746898Y11675774D01*
X4935256Y11753795D01*
X5104774Y11867063D01*
X5248937Y12011226D01*
X5362205Y12180744D01*
X5440226Y12369102D01*
X5480000Y12569061D01*
X5480000Y12772939D01*
X5440226Y12972898D01*
X5362205Y13161256D01*
X5248937Y13330774D01*
X5104774Y13474937D01*
X4935256Y13588205D01*
X4746898Y13666226D01*
X4546939Y13706000D01*
X4343061Y13706000D01*
X4143102Y13666226D01*
X3954744Y13588205D01*
X3785226Y13474937D01*
X3641063Y13330774D01*
X3527795Y13161256D01*
X3449774Y12972898D01*
X3410000Y12772939D01*
X1289000Y12772939D01*
X1249226Y12972898D01*
X1171205Y13161256D01*
X1057937Y13330774D01*
X913774Y13474937D01*
X744256Y13588205D01*
X735698Y13591750D01*
X744256Y13595295D01*
X913774Y13708563D01*
X1057937Y13852726D01*
X1171205Y14022244D01*
X1249226Y14210602D01*
X1289000Y14410561D01*
X1289000Y14614439D01*
X1249226Y14814398D01*
X1171205Y15002756D01*
X1057937Y15172274D01*
X913774Y15316437D01*
X829121Y15373000D01*
X4595000Y15373000D01*
X4619776Y15375440D01*
X4643601Y15382667D01*
X4665557Y15394403D01*
X4684803Y15410197D01*
X4700597Y15429443D01*
X4712333Y15451399D01*
X4719560Y15475224D01*
X4722000Y15500000D01*
X4722000Y16328939D01*
X4807000Y16328939D01*
X4807000Y16125061D01*
X4846774Y15925102D01*
X4924795Y15736744D01*
X5038063Y15567226D01*
X5182226Y15423063D01*
X5351744Y15309795D01*
X5540102Y15231774D01*
X5740061Y15192000D01*
X5943939Y15192000D01*
X6143898Y15231774D01*
X6332256Y15309795D01*
X6501774Y15423063D01*
X6645937Y15567226D01*
X6759205Y15736744D01*
X6837226Y15925102D01*
X6877000Y16125061D01*
X6877000Y16328939D01*
X6837226Y16528898D01*
X6759205Y16717256D01*
X6645937Y16886774D01*
X6501774Y17030937D01*
X6332256Y17144205D01*
X6143898Y17222226D01*
X5943939Y17262000D01*
X5740061Y17262000D01*
X5540102Y17222226D01*
X5351744Y17144205D01*
X5182226Y17030937D01*
X5038063Y16886774D01*
X4924795Y16717256D01*
X4846774Y16528898D01*
X4807000Y16328939D01*
X4722000Y16328939D01*
X4722000Y22939000D01*
X4864439Y22939000D01*
X4933078Y22952653D01*
X4924795Y22940256D01*
X4846774Y22751898D01*
X4807000Y22551939D01*
X4807000Y22348061D01*
X4846774Y22148102D01*
X4924795Y21959744D01*
X5038063Y21790226D01*
X5182226Y21646063D01*
X5351744Y21532795D01*
X5540102Y21454774D01*
X5740061Y21415000D01*
X5943939Y21415000D01*
X6143898Y21454774D01*
X6332256Y21532795D01*
X6501774Y21646063D01*
X6645937Y21790226D01*
X6759205Y21959744D01*
X6837226Y22148102D01*
X6848619Y22205381D01*
X6905898Y22216774D01*
X7094256Y22294795D01*
X7096442Y22296256D01*
X7132774Y22113602D01*
X7210795Y21925244D01*
X7324063Y21755726D01*
X7468226Y21611563D01*
X7637744Y21498295D01*
X7826102Y21420274D01*
X8026061Y21380500D01*
X8229939Y21380500D01*
X8429898Y21420274D01*
X8618256Y21498295D01*
X8787774Y21611563D01*
X8931937Y21755726D01*
X9045205Y21925244D01*
X9123226Y22113602D01*
X9163000Y22313561D01*
X9163000Y22517439D01*
X9123226Y22717398D01*
X9045205Y22905756D01*
X8931937Y23075274D01*
X8787774Y23219437D01*
X8618256Y23332705D01*
X8429898Y23410726D01*
X8303932Y23435782D01*
X8361226Y23574102D01*
X8401000Y23774061D01*
X8401000Y23977939D01*
X8361226Y24177898D01*
X8283205Y24366256D01*
X8169937Y24535774D01*
X8025774Y24679937D01*
X7856256Y24793205D01*
X7667898Y24871226D01*
X7467939Y24911000D01*
X7264061Y24911000D01*
X7064102Y24871226D01*
X6875744Y24793205D01*
X6706226Y24679937D01*
X6562063Y24535774D01*
X6448795Y24366256D01*
X6390179Y24224745D01*
X6302102Y24207226D01*
X6113744Y24129205D01*
X5944226Y24015937D01*
X5800063Y23871774D01*
X5796332Y23866191D01*
X5797500Y23872061D01*
X5797500Y24075939D01*
X5757726Y24275898D01*
X5679705Y24464256D01*
X5566437Y24633774D01*
X5546986Y24653225D01*
X5603602Y24629774D01*
X5803561Y24590000D01*
X6007439Y24590000D01*
X6207398Y24629774D01*
X6395756Y24707795D01*
X6565274Y24821063D01*
X6709437Y24965226D01*
X6822705Y25134744D01*
X6900726Y25323102D01*
X6940500Y25523061D01*
X6940500Y25726939D01*
X6900726Y25926898D01*
X6822705Y26115256D01*
X6789634Y26164750D01*
X6822705Y26214244D01*
X6900726Y26402602D01*
X6940500Y26602561D01*
X6940500Y26806439D01*
X6900726Y27006398D01*
X6822705Y27194756D01*
X6709437Y27364274D01*
X6565274Y27508437D01*
X6395756Y27621705D01*
X6207398Y27699726D01*
X6007439Y27739500D01*
X5803561Y27739500D01*
X5603602Y27699726D01*
X5415244Y27621705D01*
X5245726Y27508437D01*
X5101563Y27364274D01*
X4988295Y27194756D01*
X4910274Y27006398D01*
X4870500Y26806439D01*
X4870500Y26602561D01*
X4910274Y26402602D01*
X4988295Y26214244D01*
X5021366Y26164750D01*
X4988295Y26115256D01*
X4910274Y25926898D01*
X4870500Y25726939D01*
X4870500Y25523061D01*
X4910274Y25323102D01*
X4988295Y25134744D01*
X5101563Y24965226D01*
X5121014Y24945775D01*
X5064398Y24969226D01*
X4864439Y25009000D01*
X4722000Y25009000D01*
X4722000Y30873000D01*
X8903634Y30873000D01*
X8871000Y30708939D01*
X8871000Y30505061D01*
X8910774Y30305102D01*
X8988795Y30116744D01*
X9102063Y29947226D01*
X9246226Y29803063D01*
X9415744Y29689795D01*
X9604102Y29611774D01*
X9804061Y29572000D01*
X10007939Y29572000D01*
X10207898Y29611774D01*
X10340001Y29666493D01*
X10340001Y29007507D01*
X10207898Y29062226D01*
X10007939Y29102000D01*
X9804061Y29102000D01*
X9604102Y29062226D01*
X9415744Y28984205D01*
X9246226Y28870937D01*
X9102063Y28726774D01*
X8988795Y28557256D01*
X8910774Y28368898D01*
X8871000Y28168939D01*
X8871000Y27965061D01*
X8910774Y27765102D01*
X8988795Y27576744D01*
X9102063Y27407226D01*
X9246226Y27263063D01*
X9415744Y27149795D01*
X9604102Y27071774D01*
X9804061Y27032000D01*
X10007939Y27032000D01*
X10207898Y27071774D01*
X10340001Y27126493D01*
X10340000Y8127000D01*
X-10278000Y8127000D01*
X-10278000Y12772939D01*
X-4718000Y12772939D01*
X-4718000Y12569061D01*
X-4678226Y12369102D01*
X-4600205Y12180744D01*
X-4486937Y12011226D01*
X-4342774Y11867063D01*
X-4173256Y11753795D01*
X-3984898Y11675774D01*
X-3784939Y11636000D01*
X-3581061Y11636000D01*
X-3381102Y11675774D01*
X-3192744Y11753795D01*
X-3023226Y11867063D01*
X-2879063Y12011226D01*
X-2765795Y12180744D01*
X-2687774Y12369102D01*
X-2648000Y12569061D01*
X-2648000Y12772939D01*
X-2687774Y12972898D01*
X-2765795Y13161256D01*
X-2879063Y13330774D01*
X-3023226Y13474937D01*
X-3192744Y13588205D01*
X-3381102Y13666226D01*
X-3581061Y13706000D01*
X-3784939Y13706000D01*
X-3984898Y13666226D01*
X-4173256Y13588205D01*
X-4342774Y13474937D01*
X-4486937Y13330774D01*
X-4600205Y13161256D01*
X-4678226Y12972898D01*
X-4718000Y12772939D01*
X-10278000Y12772939D01*
X-10278000Y17027439D01*
X-6750000Y17027439D01*
X-6750000Y16823561D01*
X-6710226Y16623602D01*
X-6632205Y16435244D01*
X-6518937Y16265726D01*
X-6374774Y16121563D01*
X-6205256Y16008295D01*
X-6016898Y15930274D01*
X-5816939Y15890500D01*
X-5613061Y15890500D01*
X-5413102Y15930274D01*
X-5224744Y16008295D01*
X-5055226Y16121563D01*
X-4911063Y16265726D01*
X-4797795Y16435244D01*
X-4719774Y16623602D01*
X-4680000Y16823561D01*
X-4680000Y17027439D01*
X-4719774Y17227398D01*
X-4797795Y17415756D01*
X-4911063Y17585274D01*
X-5055226Y17729437D01*
X-5224744Y17842705D01*
X-5413102Y17920726D01*
X-5613061Y17960500D01*
X-5816939Y17960500D01*
X-6016898Y17920726D01*
X-6205256Y17842705D01*
X-6374774Y17729437D01*
X-6518937Y17585274D01*
X-6632205Y17415756D01*
X-6710226Y17227398D01*
X-6750000Y17027439D01*
X-10278000Y17027439D01*
X-10278000Y22742439D01*
X-8401000Y22742439D01*
X-8401000Y22538561D01*
X-8361226Y22338602D01*
X-8283205Y22150244D01*
X-8169937Y21980726D01*
X-8025774Y21836563D01*
X-7856256Y21723295D01*
X-7667898Y21645274D01*
X-7467939Y21605500D01*
X-7264061Y21605500D01*
X-7064102Y21645274D01*
X-6875744Y21723295D01*
X-6706226Y21836563D01*
X-6562063Y21980726D01*
X-6448795Y22150244D01*
X-6370774Y22338602D01*
X-6331000Y22538561D01*
X-6331000Y22742439D01*
X-6370774Y22942398D01*
X-6448795Y23130756D01*
X-6562063Y23300274D01*
X-6706226Y23444437D01*
X-6875744Y23557705D01*
X-7064102Y23635726D01*
X-7264061Y23675500D01*
X-7467939Y23675500D01*
X-7667898Y23635726D01*
X-7856256Y23557705D01*
X-8025774Y23444437D01*
X-8169937Y23300274D01*
X-8283205Y23130756D01*
X-8361226Y22942398D01*
X-8401000Y22742439D01*
X-10278000Y22742439D01*
X-10278000Y27100811D01*
X-10207898Y27071774D01*
X-10007939Y27032000D01*
X-9804061Y27032000D01*
X-9604102Y27071774D01*
X-9415744Y27149795D01*
X-9246226Y27263063D01*
X-9102063Y27407226D01*
X-8988795Y27576744D01*
X-8910774Y27765102D01*
X-8871000Y27965061D01*
X-8871000Y28168939D01*
X-8910774Y28368898D01*
X-8988795Y28557256D01*
X-9102063Y28726774D01*
X-9246226Y28870937D01*
X-9415744Y28984205D01*
X-9604102Y29062226D01*
X-9804061Y29102000D01*
X-10007939Y29102000D01*
X-10207898Y29062226D01*
X-10278000Y29033189D01*
X-10278000Y29640811D01*
X-10207898Y29611774D01*
X-10007939Y29572000D01*
X-9804061Y29572000D01*
X-9604102Y29611774D01*
X-9415744Y29689795D01*
X-9246226Y29803063D01*
X-9102063Y29947226D01*
X-8988795Y30116744D01*
X-8910774Y30305102D01*
X-8871000Y30505061D01*
X-8871000Y30708939D01*
X-8910774Y30908898D01*
X-8988795Y31097256D01*
X-9102063Y31266774D01*
X-9246226Y31410937D01*
X-9415744Y31524205D01*
X-9604102Y31602226D01*
X-9804061Y31642000D01*
X-10007939Y31642000D01*
X-10207898Y31602226D01*
X-10278000Y31573189D01*
X-10278000Y32180811D01*
X-10207898Y32151774D01*
X-10007939Y32112000D01*
X-9804061Y32112000D01*
X-9604102Y32151774D01*
X-9415744Y32229795D01*
X-9246226Y32343063D01*
X-9102063Y32487226D01*
X-8988795Y32656744D01*
X-8910774Y32845102D01*
X-8871000Y33045061D01*
X-8871000Y33248939D01*
X-8910774Y33448898D01*
X-8988795Y33637256D01*
X-9102063Y33806774D01*
X-9246226Y33950937D01*
X-9415744Y34064205D01*
X-9604102Y34142226D01*
X-9804061Y34182000D01*
X-10007939Y34182000D01*
X-10207898Y34142226D01*
X-10278000Y34113189D01*
X-10278000Y34720811D01*
X-10207898Y34691774D01*
X-10007939Y34652000D01*
X-9804061Y34652000D01*
X-9604102Y34691774D01*
X-9415744Y34769795D01*
X-9246226Y34883063D01*
X-9102063Y35027226D01*
X-8988795Y35196744D01*
X-8910774Y35385102D01*
X-8871000Y35585061D01*
X-8871000Y35788939D01*
X-8910774Y35988898D01*
X-8988795Y36177256D01*
X-9102063Y36346774D01*
X-9246226Y36490937D01*
X-9415744Y36604205D01*
X-9604102Y36682226D01*
X-9804061Y36722000D01*
X-10007939Y36722000D01*
X-10207898Y36682226D01*
X-10278000Y36653189D01*
X-10278000Y37260811D01*
X-10207898Y37231774D01*
X-10007939Y37192000D01*
X-9804061Y37192000D01*
X-9604102Y37231774D01*
X-9415744Y37309795D01*
X-9246226Y37423063D01*
X-9102063Y37567226D01*
X-8988795Y37736744D01*
X-8910774Y37925102D01*
X-8871000Y38125061D01*
X-8871000Y38328939D01*
X-8910774Y38528898D01*
X-8988795Y38717256D01*
X-9102063Y38886774D01*
X-9246226Y39030937D01*
X-9415744Y39144205D01*
X-9604102Y39222226D01*
X-9804061Y39262000D01*
X-10007939Y39262000D01*
X-10207898Y39222226D01*
X-10278000Y39193189D01*
X-10278000Y39800811D01*
X-10207898Y39771774D01*
X-10007939Y39732000D01*
X-9804061Y39732000D01*
X-9604102Y39771774D01*
X-9415744Y39849795D01*
X-9246226Y39963063D01*
X-9102063Y40107226D01*
X-8988795Y40276744D01*
X-8910774Y40465102D01*
X-8871000Y40665061D01*
X-8871000Y40868939D01*
X-8910774Y41068898D01*
X-8988795Y41257256D01*
X-9102063Y41426774D01*
X-9246226Y41570937D01*
X-9415744Y41684205D01*
X-9604102Y41762226D01*
X-9804061Y41802000D01*
X-10007939Y41802000D01*
X-10207898Y41762226D01*
X-10278000Y41733189D01*
X-10278000Y44340000D01*
X9458705Y44340000D01*
X9415744Y44322205D01*
G37*
%TD.AperFunction*%
%TD*%
D12*
%TO.N,+5V*%
X8871000Y33248939D02*
X8871000Y33045061D01*
X8910774Y32845102D01*
X8988795Y32656744D01*
X9102063Y32487226D01*
X9246226Y32343063D01*
X9415744Y32229795D01*
X9604102Y32151774D01*
X9804061Y32112000D01*
X10007939Y32112000D01*
X10207898Y32151774D01*
X10340001Y32206493D01*
X10340001Y31547507D01*
X10207898Y31602226D01*
X10007939Y31642000D01*
X9804061Y31642000D01*
X9604102Y31602226D01*
X9415744Y31524205D01*
X9246226Y31410937D01*
X9102063Y31266774D01*
X8988795Y31097256D01*
X8910774Y30908898D01*
X8871000Y30708939D01*
X8871000Y30627000D01*
X4722000Y30627000D01*
X4722000Y33373000D01*
X8895677Y33373000D01*
X8871000Y33248939D01*
%TA.AperFunction,Conductor*%
D13*
G36*
X8871000Y33248939D02*
G01*
X8871000Y33045061D01*
X8910774Y32845102D01*
X8988795Y32656744D01*
X9102063Y32487226D01*
X9246226Y32343063D01*
X9415744Y32229795D01*
X9604102Y32151774D01*
X9804061Y32112000D01*
X10007939Y32112000D01*
X10207898Y32151774D01*
X10340001Y32206493D01*
X10340001Y31547507D01*
X10207898Y31602226D01*
X10007939Y31642000D01*
X9804061Y31642000D01*
X9604102Y31602226D01*
X9415744Y31524205D01*
X9246226Y31410937D01*
X9102063Y31266774D01*
X8988795Y31097256D01*
X8910774Y30908898D01*
X8871000Y30708939D01*
X8871000Y30627000D01*
X4722000Y30627000D01*
X4722000Y33373000D01*
X8895677Y33373000D01*
X8871000Y33248939D01*
G37*
%TD.AperFunction*%
%TD*%
M02*
