%TF.GenerationSoftware,KiCad,Pcbnew,(5.1.10-1-10_14)*%
%TF.CreationDate,2021-06-13T18:58:13+09:00*%
%TF.ProjectId,tracer,74726163-6572-42e6-9b69-6361645f7063,rev?*%
%TF.SameCoordinates,Original*%
%TF.FileFunction,Copper,L1,Top*%
%TF.FilePolarity,Positive*%
%FSLAX46Y46*%
G04 Gerber Fmt 4.6, Leading zero omitted, Abs format (unit mm)*
G04 Created by KiCad (PCBNEW (5.1.10-1-10_14)) date 2021-06-13 18:58:13*
%MOMM*%
%LPD*%
G01*
G04 APERTURE LIST*
%TA.AperFunction,SMDPad,CuDef*%
%ADD10R,3.600000X1.800000*%
%TD*%
%TA.AperFunction,SMDPad,CuDef*%
%ADD11R,3.200000X1.800000*%
%TD*%
%TA.AperFunction,SMDPad,CuDef*%
%ADD12R,1.500000X3.000000*%
%TD*%
%TA.AperFunction,ComponentPad*%
%ADD13C,0.800000*%
%TD*%
%TA.AperFunction,SMDPad,CuDef*%
%ADD14R,1.000000X4.000000*%
%TD*%
%TA.AperFunction,SMDPad,CuDef*%
%ADD15R,0.500000X0.600000*%
%TD*%
%TA.AperFunction,ViaPad*%
%ADD16C,0.800000*%
%TD*%
%TA.AperFunction,Conductor*%
%ADD17C,0.457200*%
%TD*%
%TA.AperFunction,Conductor*%
%ADD18C,0.635000*%
%TD*%
%TA.AperFunction,Conductor*%
%ADD19C,0.250000*%
%TD*%
%TA.AperFunction,Conductor*%
%ADD20C,1.016000*%
%TD*%
%TA.AperFunction,Conductor*%
%ADD21C,0.304800*%
%TD*%
G04 APERTURE END LIST*
D10*
%TO.P,A1,1*%
%TO.N,+5V*%
X-8636000Y43307000D03*
%TO.P,A1,2*%
%TO.N,GND*%
X-8636000Y40767000D03*
%TO.P,A1,3*%
%TO.N,+3V3*%
X-8636000Y38227000D03*
D11*
%TO.P,A1,4*%
%TO.N,/RELAY1*%
X-8836000Y35687000D03*
%TO.P,A1,5*%
%TO.N,/RELAY2*%
X-8836000Y33147000D03*
D10*
%TO.P,A1,6*%
%TO.N,/~SHDN*%
X-8636000Y30607000D03*
%TO.P,A1,7*%
%TO.N,/~RS*%
X-8636000Y28067000D03*
%TO.P,A1,8*%
%TO.N,GND*%
X-8636000Y25527000D03*
%TO.P,A1,9*%
%TO.N,/SDI*%
X8636000Y25527000D03*
%TO.P,A1,10*%
%TO.N,/CLK*%
X8636000Y28067000D03*
%TO.P,A1,11*%
%TO.N,/~SS*%
X8636000Y30607000D03*
D11*
%TO.P,A1,12*%
%TO.N,/SDO1_3V*%
X8836000Y33147000D03*
%TO.P,A1,13*%
%TO.N,Net-(A1-Pad13)*%
X8836000Y35687000D03*
D10*
%TO.P,A1,14*%
%TO.N,Net-(A1-Pad14)*%
X8636000Y38227000D03*
%TO.P,A1,15*%
%TO.N,Net-(A1-Pad15)*%
X8636000Y40767000D03*
%TO.P,A1,16*%
%TO.N,Net-(A1-Pad16)*%
X8636000Y43307000D03*
%TD*%
D12*
%TO.P,J1,1*%
%TO.N,/SIG1A*%
X-1270000Y5327000D03*
%TO.P,J1,3*%
%TO.N,/SIG1B*%
X1270000Y5327000D03*
%TD*%
D13*
%TO.P,TP14,1*%
%TO.N,Net-(A1-Pad14)*%
X9906000Y38227000D03*
%TD*%
%TO.P,TP13,1*%
%TO.N,Net-(A1-Pad13)*%
X9906000Y35687000D03*
%TD*%
D14*
%TO.P,K1,2*%
%TO.N,Net-(D1-Pad2)*%
X9525000Y10680000D03*
%TO.P,K1,4*%
%TO.N,/SIG1B*%
X6985000Y10680000D03*
%TO.P,K1,3*%
%TO.N,/SIG1A*%
X6985000Y18980000D03*
%TO.P,K1,1*%
%TO.N,+5V*%
X9525000Y18980000D03*
%TD*%
D15*
%TO.P,D1,2*%
%TO.N,Net-(D1-Pad2)*%
X9195000Y7845000D03*
%TO.P,D1,1*%
%TO.N,+5V*%
X9995000Y7845000D03*
%TD*%
%TO.P,U1,1*%
%TO.N,GND*%
%TA.AperFunction,SMDPad,CuDef*%
G36*
G01*
X-9375000Y9155000D02*
X-9675000Y9155000D01*
G75*
G02*
X-9825000Y9305000I0J150000D01*
G01*
X-9825000Y11055000D01*
G75*
G02*
X-9675000Y11205000I150000J0D01*
G01*
X-9375000Y11205000D01*
G75*
G02*
X-9225000Y11055000I0J-150000D01*
G01*
X-9225000Y9305000D01*
G75*
G02*
X-9375000Y9155000I-150000J0D01*
G01*
G37*
%TD.AperFunction*%
%TO.P,U1,2*%
%TO.N,/SIG1B*%
%TA.AperFunction,SMDPad,CuDef*%
G36*
G01*
X-8105000Y9155000D02*
X-8405000Y9155000D01*
G75*
G02*
X-8555000Y9305000I0J150000D01*
G01*
X-8555000Y11055000D01*
G75*
G02*
X-8405000Y11205000I150000J0D01*
G01*
X-8105000Y11205000D01*
G75*
G02*
X-7955000Y11055000I0J-150000D01*
G01*
X-7955000Y9305000D01*
G75*
G02*
X-8105000Y9155000I-150000J0D01*
G01*
G37*
%TD.AperFunction*%
%TO.P,U1,3*%
%TO.N,/SIG1A*%
%TA.AperFunction,SMDPad,CuDef*%
G36*
G01*
X-6835000Y9155000D02*
X-7135000Y9155000D01*
G75*
G02*
X-7285000Y9305000I0J150000D01*
G01*
X-7285000Y11055000D01*
G75*
G02*
X-7135000Y11205000I150000J0D01*
G01*
X-6835000Y11205000D01*
G75*
G02*
X-6685000Y11055000I0J-150000D01*
G01*
X-6685000Y9305000D01*
G75*
G02*
X-6835000Y9155000I-150000J0D01*
G01*
G37*
%TD.AperFunction*%
%TO.P,U1,4*%
%TA.AperFunction,SMDPad,CuDef*%
G36*
G01*
X-5565000Y9155000D02*
X-5865000Y9155000D01*
G75*
G02*
X-6015000Y9305000I0J150000D01*
G01*
X-6015000Y11055000D01*
G75*
G02*
X-5865000Y11205000I150000J0D01*
G01*
X-5565000Y11205000D01*
G75*
G02*
X-5415000Y11055000I0J-150000D01*
G01*
X-5415000Y9305000D01*
G75*
G02*
X-5565000Y9155000I-150000J0D01*
G01*
G37*
%TD.AperFunction*%
%TO.P,U1,5*%
%TO.N,GND*%
%TA.AperFunction,SMDPad,CuDef*%
G36*
G01*
X-4295000Y9155000D02*
X-4595000Y9155000D01*
G75*
G02*
X-4745000Y9305000I0J150000D01*
G01*
X-4745000Y11055000D01*
G75*
G02*
X-4595000Y11205000I150000J0D01*
G01*
X-4295000Y11205000D01*
G75*
G02*
X-4145000Y11055000I0J-150000D01*
G01*
X-4145000Y9305000D01*
G75*
G02*
X-4295000Y9155000I-150000J0D01*
G01*
G37*
%TD.AperFunction*%
%TO.P,U1,6*%
%TO.N,/SIG1B*%
%TA.AperFunction,SMDPad,CuDef*%
G36*
G01*
X-3025000Y9155000D02*
X-3325000Y9155000D01*
G75*
G02*
X-3475000Y9305000I0J150000D01*
G01*
X-3475000Y11055000D01*
G75*
G02*
X-3325000Y11205000I150000J0D01*
G01*
X-3025000Y11205000D01*
G75*
G02*
X-2875000Y11055000I0J-150000D01*
G01*
X-2875000Y9305000D01*
G75*
G02*
X-3025000Y9155000I-150000J0D01*
G01*
G37*
%TD.AperFunction*%
%TO.P,U1,7*%
%TO.N,/SIG1A*%
%TA.AperFunction,SMDPad,CuDef*%
G36*
G01*
X-1755000Y9155000D02*
X-2055000Y9155000D01*
G75*
G02*
X-2205000Y9305000I0J150000D01*
G01*
X-2205000Y11055000D01*
G75*
G02*
X-2055000Y11205000I150000J0D01*
G01*
X-1755000Y11205000D01*
G75*
G02*
X-1605000Y11055000I0J-150000D01*
G01*
X-1605000Y9305000D01*
G75*
G02*
X-1755000Y9155000I-150000J0D01*
G01*
G37*
%TD.AperFunction*%
%TO.P,U1,8*%
%TA.AperFunction,SMDPad,CuDef*%
G36*
G01*
X-485000Y9155000D02*
X-785000Y9155000D01*
G75*
G02*
X-935000Y9305000I0J150000D01*
G01*
X-935000Y11055000D01*
G75*
G02*
X-785000Y11205000I150000J0D01*
G01*
X-485000Y11205000D01*
G75*
G02*
X-335000Y11055000I0J-150000D01*
G01*
X-335000Y9305000D01*
G75*
G02*
X-485000Y9155000I-150000J0D01*
G01*
G37*
%TD.AperFunction*%
%TO.P,U1,9*%
%TO.N,GND*%
%TA.AperFunction,SMDPad,CuDef*%
G36*
G01*
X785000Y9155000D02*
X485000Y9155000D01*
G75*
G02*
X335000Y9305000I0J150000D01*
G01*
X335000Y11055000D01*
G75*
G02*
X485000Y11205000I150000J0D01*
G01*
X785000Y11205000D01*
G75*
G02*
X935000Y11055000I0J-150000D01*
G01*
X935000Y9305000D01*
G75*
G02*
X785000Y9155000I-150000J0D01*
G01*
G37*
%TD.AperFunction*%
%TO.P,U1,10*%
%TO.N,/~SHDN*%
%TA.AperFunction,SMDPad,CuDef*%
G36*
G01*
X2055000Y9155000D02*
X1755000Y9155000D01*
G75*
G02*
X1605000Y9305000I0J150000D01*
G01*
X1605000Y11055000D01*
G75*
G02*
X1755000Y11205000I150000J0D01*
G01*
X2055000Y11205000D01*
G75*
G02*
X2205000Y11055000I0J-150000D01*
G01*
X2205000Y9305000D01*
G75*
G02*
X2055000Y9155000I-150000J0D01*
G01*
G37*
%TD.AperFunction*%
%TO.P,U1,11*%
%TO.N,/~SS*%
%TA.AperFunction,SMDPad,CuDef*%
G36*
G01*
X3325000Y9155000D02*
X3025000Y9155000D01*
G75*
G02*
X2875000Y9305000I0J150000D01*
G01*
X2875000Y11055000D01*
G75*
G02*
X3025000Y11205000I150000J0D01*
G01*
X3325000Y11205000D01*
G75*
G02*
X3475000Y11055000I0J-150000D01*
G01*
X3475000Y9305000D01*
G75*
G02*
X3325000Y9155000I-150000J0D01*
G01*
G37*
%TD.AperFunction*%
%TO.P,U1,12*%
%TO.N,/SDO2*%
%TA.AperFunction,SMDPad,CuDef*%
G36*
G01*
X4595000Y9155000D02*
X4295000Y9155000D01*
G75*
G02*
X4145000Y9305000I0J150000D01*
G01*
X4145000Y11055000D01*
G75*
G02*
X4295000Y11205000I150000J0D01*
G01*
X4595000Y11205000D01*
G75*
G02*
X4745000Y11055000I0J-150000D01*
G01*
X4745000Y9305000D01*
G75*
G02*
X4595000Y9155000I-150000J0D01*
G01*
G37*
%TD.AperFunction*%
%TO.P,U1,13*%
%TO.N,/SDO1_5V*%
%TA.AperFunction,SMDPad,CuDef*%
G36*
G01*
X4595000Y18455000D02*
X4295000Y18455000D01*
G75*
G02*
X4145000Y18605000I0J150000D01*
G01*
X4145000Y20355000D01*
G75*
G02*
X4295000Y20505000I150000J0D01*
G01*
X4595000Y20505000D01*
G75*
G02*
X4745000Y20355000I0J-150000D01*
G01*
X4745000Y18605000D01*
G75*
G02*
X4595000Y18455000I-150000J0D01*
G01*
G37*
%TD.AperFunction*%
%TO.P,U1,14*%
%TO.N,/CLK*%
%TA.AperFunction,SMDPad,CuDef*%
G36*
G01*
X3325000Y18455000D02*
X3025000Y18455000D01*
G75*
G02*
X2875000Y18605000I0J150000D01*
G01*
X2875000Y20355000D01*
G75*
G02*
X3025000Y20505000I150000J0D01*
G01*
X3325000Y20505000D01*
G75*
G02*
X3475000Y20355000I0J-150000D01*
G01*
X3475000Y18605000D01*
G75*
G02*
X3325000Y18455000I-150000J0D01*
G01*
G37*
%TD.AperFunction*%
%TO.P,U1,15*%
%TO.N,/~RS*%
%TA.AperFunction,SMDPad,CuDef*%
G36*
G01*
X2055000Y18455000D02*
X1755000Y18455000D01*
G75*
G02*
X1605000Y18605000I0J150000D01*
G01*
X1605000Y20355000D01*
G75*
G02*
X1755000Y20505000I150000J0D01*
G01*
X2055000Y20505000D01*
G75*
G02*
X2205000Y20355000I0J-150000D01*
G01*
X2205000Y18605000D01*
G75*
G02*
X2055000Y18455000I-150000J0D01*
G01*
G37*
%TD.AperFunction*%
%TO.P,U1,16*%
%TO.N,+5V*%
%TA.AperFunction,SMDPad,CuDef*%
G36*
G01*
X785000Y18455000D02*
X485000Y18455000D01*
G75*
G02*
X335000Y18605000I0J150000D01*
G01*
X335000Y20355000D01*
G75*
G02*
X485000Y20505000I150000J0D01*
G01*
X785000Y20505000D01*
G75*
G02*
X935000Y20355000I0J-150000D01*
G01*
X935000Y18605000D01*
G75*
G02*
X785000Y18455000I-150000J0D01*
G01*
G37*
%TD.AperFunction*%
%TO.P,U1,17*%
%TO.N,GND*%
%TA.AperFunction,SMDPad,CuDef*%
G36*
G01*
X-485000Y18455000D02*
X-785000Y18455000D01*
G75*
G02*
X-935000Y18605000I0J150000D01*
G01*
X-935000Y20355000D01*
G75*
G02*
X-785000Y20505000I150000J0D01*
G01*
X-485000Y20505000D01*
G75*
G02*
X-335000Y20355000I0J-150000D01*
G01*
X-335000Y18605000D01*
G75*
G02*
X-485000Y18455000I-150000J0D01*
G01*
G37*
%TD.AperFunction*%
%TO.P,U1,18*%
%TO.N,/SIG1A*%
%TA.AperFunction,SMDPad,CuDef*%
G36*
G01*
X-1755000Y18455000D02*
X-2055000Y18455000D01*
G75*
G02*
X-2205000Y18605000I0J150000D01*
G01*
X-2205000Y20355000D01*
G75*
G02*
X-2055000Y20505000I150000J0D01*
G01*
X-1755000Y20505000D01*
G75*
G02*
X-1605000Y20355000I0J-150000D01*
G01*
X-1605000Y18605000D01*
G75*
G02*
X-1755000Y18455000I-150000J0D01*
G01*
G37*
%TD.AperFunction*%
%TO.P,U1,19*%
%TA.AperFunction,SMDPad,CuDef*%
G36*
G01*
X-3025000Y18455000D02*
X-3325000Y18455000D01*
G75*
G02*
X-3475000Y18605000I0J150000D01*
G01*
X-3475000Y20355000D01*
G75*
G02*
X-3325000Y20505000I150000J0D01*
G01*
X-3025000Y20505000D01*
G75*
G02*
X-2875000Y20355000I0J-150000D01*
G01*
X-2875000Y18605000D01*
G75*
G02*
X-3025000Y18455000I-150000J0D01*
G01*
G37*
%TD.AperFunction*%
%TO.P,U1,20*%
%TO.N,/SIG1B*%
%TA.AperFunction,SMDPad,CuDef*%
G36*
G01*
X-4295000Y18455000D02*
X-4595000Y18455000D01*
G75*
G02*
X-4745000Y18605000I0J150000D01*
G01*
X-4745000Y20355000D01*
G75*
G02*
X-4595000Y20505000I150000J0D01*
G01*
X-4295000Y20505000D01*
G75*
G02*
X-4145000Y20355000I0J-150000D01*
G01*
X-4145000Y18605000D01*
G75*
G02*
X-4295000Y18455000I-150000J0D01*
G01*
G37*
%TD.AperFunction*%
%TO.P,U1,21*%
%TO.N,GND*%
%TA.AperFunction,SMDPad,CuDef*%
G36*
G01*
X-5565000Y18455000D02*
X-5865000Y18455000D01*
G75*
G02*
X-6015000Y18605000I0J150000D01*
G01*
X-6015000Y20355000D01*
G75*
G02*
X-5865000Y20505000I150000J0D01*
G01*
X-5565000Y20505000D01*
G75*
G02*
X-5415000Y20355000I0J-150000D01*
G01*
X-5415000Y18605000D01*
G75*
G02*
X-5565000Y18455000I-150000J0D01*
G01*
G37*
%TD.AperFunction*%
%TO.P,U1,22*%
%TO.N,/SIG1A*%
%TA.AperFunction,SMDPad,CuDef*%
G36*
G01*
X-6835000Y18455000D02*
X-7135000Y18455000D01*
G75*
G02*
X-7285000Y18605000I0J150000D01*
G01*
X-7285000Y20355000D01*
G75*
G02*
X-7135000Y20505000I150000J0D01*
G01*
X-6835000Y20505000D01*
G75*
G02*
X-6685000Y20355000I0J-150000D01*
G01*
X-6685000Y18605000D01*
G75*
G02*
X-6835000Y18455000I-150000J0D01*
G01*
G37*
%TD.AperFunction*%
%TO.P,U1,23*%
%TA.AperFunction,SMDPad,CuDef*%
G36*
G01*
X-8105000Y18455000D02*
X-8405000Y18455000D01*
G75*
G02*
X-8555000Y18605000I0J150000D01*
G01*
X-8555000Y20355000D01*
G75*
G02*
X-8405000Y20505000I150000J0D01*
G01*
X-8105000Y20505000D01*
G75*
G02*
X-7955000Y20355000I0J-150000D01*
G01*
X-7955000Y18605000D01*
G75*
G02*
X-8105000Y18455000I-150000J0D01*
G01*
G37*
%TD.AperFunction*%
%TO.P,U1,24*%
%TO.N,/SIG1B*%
%TA.AperFunction,SMDPad,CuDef*%
G36*
G01*
X-9375000Y18455000D02*
X-9675000Y18455000D01*
G75*
G02*
X-9825000Y18605000I0J150000D01*
G01*
X-9825000Y20355000D01*
G75*
G02*
X-9675000Y20505000I150000J0D01*
G01*
X-9375000Y20505000D01*
G75*
G02*
X-9225000Y20355000I0J-150000D01*
G01*
X-9225000Y18605000D01*
G75*
G02*
X-9375000Y18455000I-150000J0D01*
G01*
G37*
%TD.AperFunction*%
%TD*%
D16*
%TO.N,GND*%
X5842000Y16227000D03*
X-5715000Y16925500D03*
X-7366000Y22640500D03*
X254000Y17751000D03*
X4445000Y12671000D03*
X-9906000Y40767000D03*
X10033000Y6921500D03*
X-9906000Y6858000D03*
X254000Y11938000D03*
X2540000Y24765000D03*
X3810000Y46100000D03*
X-4318000Y12671000D03*
X8445500Y22733000D03*
%TO.N,/~SS*%
X9906000Y30607000D03*
X444500Y13652500D03*
X1460500Y21526500D03*
%TO.N,/CLK*%
X9906000Y28067000D03*
X3683000Y21145500D03*
%TO.N,/SDI*%
X1905000Y14414500D03*
X5905500Y24701500D03*
%TO.N,/~SHDN*%
X-9906000Y30607000D03*
X-381000Y12890500D03*
X-2349500Y22669500D03*
%TO.N,/~RS*%
X-2984500Y21116500D03*
X-9906000Y28067000D03*
X800000Y16800000D03*
%TO.N,+5V*%
X-9525000Y22640500D03*
X9937750Y22701250D03*
X254000Y21463000D03*
X-4508500Y22225000D03*
X-9900000Y42900000D03*
%TO.N,/SDO2*%
X1873250Y15525750D03*
%TO.N,+3V3*%
X-6604000Y38227000D03*
X1270000Y46100000D03*
X4000500Y25715000D03*
%TO.N,Net-(A1-Pad15)*%
X-1400000Y46100000D03*
%TO.N,Net-(A1-Pad16)*%
X-3800000Y46100000D03*
%TO.N,Net-(D1-Pad2)*%
X7366000Y23876000D03*
%TO.N,Net-(A1-Pad14)*%
X-7300000Y47500000D03*
X6900000Y47000000D03*
%TO.N,/RELAY1*%
X-9906000Y35687000D03*
%TO.N,/RELAY2*%
X-9906000Y33147000D03*
%TO.N,/SDO1_3V*%
X9906000Y33147000D03*
%TO.N,/SDO1_5V*%
X2540000Y22288500D03*
%TD*%
D17*
%TO.N,GND*%
X-5715000Y19480000D02*
X-5715000Y16925500D01*
X-8505000Y25557500D02*
X-8509000Y25561500D01*
D18*
X-8505000Y23779500D02*
X-8505000Y25557500D01*
X-7366000Y22640500D02*
X-8505000Y23779500D01*
D17*
X-7821000Y40865000D02*
X-8075000Y40611000D01*
X-635000Y18068500D02*
X-635000Y19480000D01*
X-317500Y17751000D02*
X-635000Y18068500D01*
X254000Y17751000D02*
X-317500Y17751000D01*
D19*
X-9808000Y40865000D02*
X-9906000Y40767000D01*
X-8509000Y40865000D02*
X-9808000Y40865000D01*
D17*
X-9525000Y7210000D02*
X-9525000Y10180000D01*
X-9906000Y6858000D02*
X-9877000Y6858000D01*
X-9877000Y6858000D02*
X-9525000Y7210000D01*
X635000Y11557000D02*
X635000Y10180000D01*
X254000Y11938000D02*
X635000Y11557000D01*
X-4318000Y12671000D02*
X-4445000Y12544000D01*
X-4445000Y12544000D02*
X-4445000Y10180000D01*
D19*
%TO.N,/~SS*%
X3175000Y11493500D02*
X3175000Y10180000D01*
X2286000Y11811000D02*
X2857500Y11811000D01*
X2857500Y11811000D02*
X3175000Y11493500D01*
X444500Y13652500D02*
X2286000Y11811000D01*
X444500Y15344500D02*
X444500Y13652500D01*
X2540000Y17440000D02*
X444500Y15344500D01*
X2540000Y21082000D02*
X2540000Y17440000D01*
X2095500Y21526500D02*
X2540000Y21082000D01*
X1460500Y21526500D02*
X2095500Y21526500D01*
%TO.N,/CLK*%
X3683000Y21145500D02*
X3175000Y20637500D01*
X3175000Y20637500D02*
X3175000Y19480000D01*
%TO.N,/SDI*%
X2667000Y14414500D02*
X1905000Y14414500D01*
X5715000Y17462500D02*
X2667000Y14414500D01*
X5715000Y20828000D02*
X5715000Y17462500D01*
X6540500Y21653500D02*
X5715000Y20828000D01*
X6540500Y23431500D02*
X6540500Y21653500D01*
X5905500Y24066500D02*
X6540500Y23431500D01*
X5905500Y24701500D02*
X5905500Y24066500D01*
X6194000Y25625000D02*
X8699500Y25625000D01*
X5905500Y25336500D02*
X6194000Y25625000D01*
X5905500Y24701500D02*
X5905500Y25336500D01*
%TO.N,/~SHDN*%
X-381000Y12890500D02*
X444500Y12890500D01*
X444500Y12890500D02*
X1905000Y11430000D01*
X1905000Y11430000D02*
X1905000Y10180000D01*
X-1270000Y20545000D02*
X-1270000Y17716500D01*
X-381000Y16827500D02*
X-381000Y12890500D01*
X-1270000Y17716500D02*
X-381000Y16827500D01*
X-2349500Y21624500D02*
X-1270000Y20545000D01*
X-2349500Y22669500D02*
X-2349500Y21624500D01*
X-6477000Y29337000D02*
X-7845000Y30705000D01*
X-7845000Y30705000D02*
X-9842500Y30705000D01*
X-5969000Y26797000D02*
X-6477000Y27305000D01*
X-5461000Y23685500D02*
X-5969000Y24193500D01*
X-5969000Y24193500D02*
X-5969000Y26797000D01*
X-3365500Y23685500D02*
X-5461000Y23685500D01*
X-6477000Y27305000D02*
X-6477000Y29337000D01*
X-2349500Y22669500D02*
X-3365500Y23685500D01*
%TO.N,/~RS*%
X-7048500Y28165000D02*
X-7683500Y28165000D01*
X-8509000Y28165000D02*
X-7239000Y28165000D01*
X-7239000Y28165000D02*
X-7048500Y28165000D01*
X-8509000Y28165000D02*
X-9842500Y28165000D01*
X1905000Y17497000D02*
X1905000Y19480000D01*
X1208000Y16800000D02*
X1905000Y17497000D01*
X800000Y16800000D02*
X1208000Y16800000D01*
X-6985000Y27114500D02*
X-6985000Y28101500D01*
X-6477000Y26606500D02*
X-6985000Y27114500D01*
X-4127500Y23177500D02*
X-5715000Y23177500D01*
X-6985000Y28101500D02*
X-7048500Y28165000D01*
X-5715000Y23177500D02*
X-6477000Y23939500D01*
X-2984500Y22034500D02*
X-4127500Y23177500D01*
X-6477000Y23939500D02*
X-6477000Y26606500D01*
X-2984500Y21116500D02*
X-2984500Y22034500D01*
%TO.N,+5V*%
X9525000Y16354000D02*
X9525000Y18894000D01*
X10604500Y15274500D02*
X9525000Y16354000D01*
X10604500Y8035500D02*
X10604500Y15274500D01*
X10414000Y7845000D02*
X10604500Y8035500D01*
X9995000Y7845000D02*
X10414000Y7845000D01*
D18*
X9525000Y22288500D02*
X9525000Y18980000D01*
X9937750Y22701250D02*
X9525000Y22288500D01*
D17*
X254000Y21463000D02*
X635000Y21082000D01*
X635000Y21082000D02*
X635000Y19402000D01*
D19*
X-9900000Y43313000D02*
X-9808000Y43405000D01*
X-9900000Y42900000D02*
X-9900000Y43313000D01*
D17*
%TO.N,/SIG1B*%
X-8255000Y10180000D02*
X-8255000Y8067000D01*
X-8255000Y10131000D02*
X-8255000Y10004000D01*
X-9525000Y17497000D02*
X-9525000Y19529000D01*
D18*
X6985000Y7845000D02*
X6985000Y10258000D01*
D17*
X-9525000Y19480000D02*
X-9525000Y21307000D01*
X-8255000Y10180000D02*
X-8255000Y11909000D01*
D20*
X-8255000Y13052000D02*
X-8255000Y11909000D01*
X-9525000Y14322000D02*
X-8255000Y13052000D01*
X-9525000Y17497000D02*
X-9525000Y14322000D01*
D17*
X-4286000Y8258000D02*
X-4286000Y8067000D01*
X-3175000Y9369000D02*
X-4286000Y8258000D01*
X-3175000Y10180000D02*
X-3175000Y9369000D01*
D20*
X1270000Y2828500D02*
X1460500Y2638000D01*
X1270000Y5327000D02*
X1270000Y2828500D01*
X-2603500Y2638000D02*
X1460500Y2638000D01*
X-4286000Y8353000D02*
X-4286000Y4320500D01*
X-4286000Y4320500D02*
X-2603500Y2638000D01*
X-8255000Y8353000D02*
X-4286000Y8353000D01*
X6985000Y6829000D02*
X6985000Y7845000D01*
X2794000Y2638000D02*
X6985000Y6829000D01*
X1460500Y2638000D02*
X2794000Y2638000D01*
D17*
X-4445000Y20262000D02*
X-5490000Y21307000D01*
X-4445000Y19480000D02*
X-4445000Y20262000D01*
D20*
X-9525000Y21307000D02*
X-5490000Y21307000D01*
%TO.N,/SIG1A*%
X-6985000Y11909000D02*
X-5715000Y11909000D01*
D17*
X-5715000Y10180000D02*
X-5715000Y11909000D01*
X-6985000Y10180000D02*
X-6985000Y11909000D01*
D20*
X-8255000Y17751000D02*
X-6985000Y17751000D01*
D17*
X-8255000Y19480000D02*
X-8255000Y17751000D01*
X-6985000Y19480000D02*
X-6985000Y17751000D01*
X-3175000Y19480000D02*
X-3175000Y17751000D01*
D20*
X-6350000Y14830000D02*
X-6350000Y12290000D01*
X-2540000Y17497000D02*
X-2540000Y14830000D01*
D18*
X6985000Y18980000D02*
X6985000Y16227000D01*
D17*
X-1905000Y10180000D02*
X-1905000Y8353000D01*
X-635000Y10180000D02*
X-635000Y8353000D01*
D20*
X-635000Y8353000D02*
X1397000Y8353000D01*
D18*
X1365000Y8321000D02*
X1397000Y8353000D01*
D20*
X-3175000Y17751000D02*
X-2159000Y17751000D01*
D17*
X-1905000Y18005000D02*
X-2159000Y17751000D01*
X-1905000Y19480000D02*
X-1905000Y18005000D01*
D20*
X5588000Y13687000D02*
X5588000Y8607000D01*
X5334000Y8353000D02*
X1397000Y8353000D01*
X6985000Y15084000D02*
X5588000Y13687000D01*
X5588000Y8607000D02*
X5334000Y8353000D01*
X6985000Y16227000D02*
X6985000Y15084000D01*
X-1270000Y8162500D02*
X-1079500Y8353000D01*
X-1270000Y4327000D02*
X-1270000Y8162500D01*
X-1079500Y8353000D02*
X-635000Y8353000D01*
X-1905000Y8353000D02*
X-1079500Y8353000D01*
X-7620000Y14830000D02*
X-2505500Y14830000D01*
X-7620000Y17497000D02*
X-7620000Y14830000D01*
D17*
X-1905000Y10180000D02*
X-1905000Y11938000D01*
D20*
X-2505500Y12538500D02*
X-1905000Y11938000D01*
X-2505500Y14830000D02*
X-2505500Y12538500D01*
X-1778000Y11938000D02*
X-1143000Y11938000D01*
D17*
X-1143000Y11938000D02*
X-889000Y11938000D01*
X-635000Y11430000D02*
X-1143000Y11938000D01*
X-635000Y10180000D02*
X-635000Y11430000D01*
D19*
%TO.N,/SDO2*%
X4445000Y11464500D02*
X4445000Y10180000D01*
X3492500Y12417000D02*
X4445000Y11464500D01*
X2759500Y12417000D02*
X3492500Y12417000D01*
X1079500Y14732000D02*
X1079500Y14097000D01*
X1873250Y15525750D02*
X1079500Y14732000D01*
X1079500Y14097000D02*
X2759500Y12417000D01*
D18*
%TO.N,+3V3*%
X-6604000Y38227000D02*
X-8699500Y38227000D01*
D19*
%TO.N,Net-(A1-Pad15)*%
X7700000Y40800000D02*
X8600000Y40800000D01*
X6400000Y42100000D02*
X7700000Y40800000D01*
X6400000Y45600000D02*
X6400000Y42100000D01*
X-600000Y46900000D02*
X5100000Y46900000D01*
X5100000Y46900000D02*
X6400000Y45600000D01*
X-1400000Y46100000D02*
X-600000Y46900000D01*
%TO.N,Net-(A1-Pad16)*%
X-2500000Y47400000D02*
X-3800000Y46100000D01*
X5400000Y47400000D02*
X-2500000Y47400000D01*
X8600000Y44200000D02*
X5400000Y47400000D01*
X8600000Y43300000D02*
X8600000Y44200000D01*
%TO.N,Net-(D1-Pad2)*%
X9144000Y8734000D02*
X9144000Y7845000D01*
X9525000Y9115000D02*
X9144000Y8734000D01*
X9525000Y10680000D02*
X9525000Y9115000D01*
D21*
X9525000Y13814000D02*
X9525000Y10680000D01*
X8255000Y15084000D02*
X9525000Y13814000D01*
X8255000Y21053000D02*
X8255000Y15084000D01*
X7366000Y21942000D02*
X8255000Y21053000D01*
X7366000Y23876000D02*
X7366000Y21942000D01*
D19*
%TO.N,Net-(A1-Pad14)*%
X-6300000Y47500000D02*
X-7300000Y47500000D01*
X-5900000Y47900000D02*
X-6300000Y47500000D01*
X6000000Y47900000D02*
X-5900000Y47900000D01*
X6900000Y47000000D02*
X6000000Y47900000D01*
%TO.N,/SDO1_5V*%
X4508500Y19543500D02*
X4445000Y19480000D01*
X4064000Y22288500D02*
X4445000Y21907500D01*
X4445000Y21907500D02*
X4445000Y19480000D01*
X2540000Y22288500D02*
X4064000Y22288500D01*
%TD*%
M02*
