%TF.GenerationSoftware,KiCad,Pcbnew,(5.1.10-1-10_14)*%
%TF.CreationDate,2021-06-13T18:58:13+09:00*%
%TF.ProjectId,tracer,74726163-6572-42e6-9b69-6361645f7063,rev?*%
%TF.SameCoordinates,Original*%
%TF.FileFunction,Soldermask,Bot*%
%TF.FilePolarity,Negative*%
%FSLAX46Y46*%
G04 Gerber Fmt 4.6, Leading zero omitted, Abs format (unit mm)*
G04 Created by KiCad (PCBNEW (5.1.10-1-10_14)) date 2021-06-13 18:58:13*
%MOMM*%
%LPD*%
G01*
G04 APERTURE LIST*
%ADD10C,0.010000*%
%ADD11R,1.800000X2.500000*%
%ADD12R,1.700000X0.800000*%
%ADD13R,1.100000X0.800000*%
%ADD14C,0.800000*%
%ADD15R,1.000000X4.000000*%
%ADD16R,0.500000X0.600000*%
%ADD17R,0.900000X0.800000*%
G04 APERTURE END LIST*
D10*
%TO.C,J1*%
G36*
X500000Y3750000D02*
G01*
X2100000Y3750000D01*
X2100000Y6850000D01*
X500000Y6850000D01*
X500000Y3750000D01*
G37*
X500000Y3750000D02*
X2100000Y3750000D01*
X2100000Y6850000D01*
X500000Y6850000D01*
X500000Y3750000D01*
G36*
X-2100000Y3750000D02*
G01*
X-500000Y3750000D01*
X-500000Y6850000D01*
X-2100000Y6850000D01*
X-2100000Y3750000D01*
G37*
X-2100000Y3750000D02*
X-500000Y3750000D01*
X-500000Y6850000D01*
X-2100000Y6850000D01*
X-2100000Y3750000D01*
%TD*%
D11*
%TO.C,A2*%
X3810000Y46889000D03*
X1270000Y46889000D03*
X-1270000Y46889000D03*
X-3810000Y46889000D03*
%TD*%
D12*
%TO.C,S2*%
X-9588500Y47420000D03*
X-9588500Y44020000D03*
D13*
X-7938500Y45720000D03*
%TD*%
D12*
%TO.C,S1*%
X9588500Y44020000D03*
X9588500Y47420000D03*
D13*
X7938500Y45720000D03*
%TD*%
%TO.C,R4*%
G36*
G01*
X-5911002Y24174500D02*
X-5010998Y24174500D01*
G75*
G02*
X-4761000Y23924502I0J-249998D01*
G01*
X-4761000Y23399498D01*
G75*
G02*
X-5010998Y23149500I-249998J0D01*
G01*
X-5911002Y23149500D01*
G75*
G02*
X-6161000Y23399498I0J249998D01*
G01*
X-6161000Y23924502D01*
G75*
G02*
X-5911002Y24174500I249998J0D01*
G01*
G37*
G36*
G01*
X-5911002Y25999500D02*
X-5010998Y25999500D01*
G75*
G02*
X-4761000Y25749502I0J-249998D01*
G01*
X-4761000Y25224498D01*
G75*
G02*
X-5010998Y24974500I-249998J0D01*
G01*
X-5911002Y24974500D01*
G75*
G02*
X-6161000Y25224498I0J249998D01*
G01*
X-6161000Y25749502D01*
G75*
G02*
X-5911002Y25999500I249998J0D01*
G01*
G37*
%TD*%
%TO.C,R3*%
G36*
G01*
X-3042498Y24911000D02*
X-3942502Y24911000D01*
G75*
G02*
X-4192500Y25160998I0J249998D01*
G01*
X-4192500Y25686002D01*
G75*
G02*
X-3942502Y25936000I249998J0D01*
G01*
X-3042498Y25936000D01*
G75*
G02*
X-2792500Y25686002I0J-249998D01*
G01*
X-2792500Y25160998D01*
G75*
G02*
X-3042498Y24911000I-249998J0D01*
G01*
G37*
G36*
G01*
X-3042498Y23086000D02*
X-3942502Y23086000D01*
G75*
G02*
X-4192500Y23335998I0J249998D01*
G01*
X-4192500Y23861002D01*
G75*
G02*
X-3942502Y24111000I249998J0D01*
G01*
X-3042498Y24111000D01*
G75*
G02*
X-2792500Y23861002I0J-249998D01*
G01*
X-2792500Y23335998D01*
G75*
G02*
X-3042498Y23086000I-249998J0D01*
G01*
G37*
%TD*%
%TO.C,U3*%
G36*
G01*
X1736500Y25865000D02*
X1736500Y25565000D01*
G75*
G02*
X1586500Y25415000I-150000J0D01*
G01*
X561500Y25415000D01*
G75*
G02*
X411500Y25565000I0J150000D01*
G01*
X411500Y25865000D01*
G75*
G02*
X561500Y26015000I150000J0D01*
G01*
X1586500Y26015000D01*
G75*
G02*
X1736500Y25865000I0J-150000D01*
G01*
G37*
G36*
G01*
X1736500Y24915000D02*
X1736500Y24615000D01*
G75*
G02*
X1586500Y24465000I-150000J0D01*
G01*
X561500Y24465000D01*
G75*
G02*
X411500Y24615000I0J150000D01*
G01*
X411500Y24915000D01*
G75*
G02*
X561500Y25065000I150000J0D01*
G01*
X1586500Y25065000D01*
G75*
G02*
X1736500Y24915000I0J-150000D01*
G01*
G37*
G36*
G01*
X1736500Y23965000D02*
X1736500Y23665000D01*
G75*
G02*
X1586500Y23515000I-150000J0D01*
G01*
X561500Y23515000D01*
G75*
G02*
X411500Y23665000I0J150000D01*
G01*
X411500Y23965000D01*
G75*
G02*
X561500Y24115000I150000J0D01*
G01*
X1586500Y24115000D01*
G75*
G02*
X1736500Y23965000I0J-150000D01*
G01*
G37*
G36*
G01*
X-538500Y23965000D02*
X-538500Y23665000D01*
G75*
G02*
X-688500Y23515000I-150000J0D01*
G01*
X-1713500Y23515000D01*
G75*
G02*
X-1863500Y23665000I0J150000D01*
G01*
X-1863500Y23965000D01*
G75*
G02*
X-1713500Y24115000I150000J0D01*
G01*
X-688500Y24115000D01*
G75*
G02*
X-538500Y23965000I0J-150000D01*
G01*
G37*
G36*
G01*
X-538500Y24915000D02*
X-538500Y24615000D01*
G75*
G02*
X-688500Y24465000I-150000J0D01*
G01*
X-1713500Y24465000D01*
G75*
G02*
X-1863500Y24615000I0J150000D01*
G01*
X-1863500Y24915000D01*
G75*
G02*
X-1713500Y25065000I150000J0D01*
G01*
X-688500Y25065000D01*
G75*
G02*
X-538500Y24915000I0J-150000D01*
G01*
G37*
G36*
G01*
X-538500Y25865000D02*
X-538500Y25565000D01*
G75*
G02*
X-688500Y25415000I-150000J0D01*
G01*
X-1713500Y25415000D01*
G75*
G02*
X-1863500Y25565000I0J150000D01*
G01*
X-1863500Y25865000D01*
G75*
G02*
X-1713500Y26015000I150000J0D01*
G01*
X-688500Y26015000D01*
G75*
G02*
X-538500Y25865000I0J-150000D01*
G01*
G37*
%TD*%
D14*
%TO.C,TP14*%
X9906000Y38227000D03*
%TD*%
%TO.C,TP13*%
X9906000Y35687000D03*
%TD*%
D15*
%TO.C,K2*%
X-9525000Y10680000D03*
X-6985000Y10680000D03*
X-6985000Y18980000D03*
X-9525000Y18980000D03*
%TD*%
D16*
%TO.C,D2*%
X-9144000Y7845000D03*
X-9944000Y7845000D03*
%TD*%
%TO.C,R1*%
G36*
G01*
X7169998Y29826000D02*
X8070002Y29826000D01*
G75*
G02*
X8320000Y29576002I0J-249998D01*
G01*
X8320000Y29050998D01*
G75*
G02*
X8070002Y28801000I-249998J0D01*
G01*
X7169998Y28801000D01*
G75*
G02*
X6920000Y29050998I0J249998D01*
G01*
X6920000Y29576002D01*
G75*
G02*
X7169998Y29826000I249998J0D01*
G01*
G37*
G36*
G01*
X7169998Y31651000D02*
X8070002Y31651000D01*
G75*
G02*
X8320000Y31401002I0J-249998D01*
G01*
X8320000Y30875998D01*
G75*
G02*
X8070002Y30626000I-249998J0D01*
G01*
X7169998Y30626000D01*
G75*
G02*
X6920000Y30875998I0J249998D01*
G01*
X6920000Y31401002D01*
G75*
G02*
X7169998Y31651000I249998J0D01*
G01*
G37*
%TD*%
%TO.C,R2*%
G36*
G01*
X-8058998Y30597000D02*
X-8959002Y30597000D01*
G75*
G02*
X-9209000Y30846998I0J249998D01*
G01*
X-9209000Y31372002D01*
G75*
G02*
X-8959002Y31622000I249998J0D01*
G01*
X-8058998Y31622000D01*
G75*
G02*
X-7809000Y31372002I0J-249998D01*
G01*
X-7809000Y30846998D01*
G75*
G02*
X-8058998Y30597000I-249998J0D01*
G01*
G37*
G36*
G01*
X-8058998Y28772000D02*
X-8959002Y28772000D01*
G75*
G02*
X-9209000Y29021998I0J249998D01*
G01*
X-9209000Y29547002D01*
G75*
G02*
X-8959002Y29797000I249998J0D01*
G01*
X-8058998Y29797000D01*
G75*
G02*
X-7809000Y29547002I0J-249998D01*
G01*
X-7809000Y29021998D01*
G75*
G02*
X-8058998Y28772000I-249998J0D01*
G01*
G37*
%TD*%
D17*
%TO.C,Q1*%
X9636000Y26448000D03*
X9636000Y24548000D03*
X7636000Y25498000D03*
%TD*%
%TO.C,Q2*%
X-7890000Y25940000D03*
X-7890000Y24040000D03*
X-9890000Y24990000D03*
%TD*%
%TO.C,U2*%
G36*
G01*
X10183000Y9155000D02*
X9883000Y9155000D01*
G75*
G02*
X9733000Y9305000I0J150000D01*
G01*
X9733000Y11055000D01*
G75*
G02*
X9883000Y11205000I150000J0D01*
G01*
X10183000Y11205000D01*
G75*
G02*
X10333000Y11055000I0J-150000D01*
G01*
X10333000Y9305000D01*
G75*
G02*
X10183000Y9155000I-150000J0D01*
G01*
G37*
G36*
G01*
X8913000Y9155000D02*
X8613000Y9155000D01*
G75*
G02*
X8463000Y9305000I0J150000D01*
G01*
X8463000Y11055000D01*
G75*
G02*
X8613000Y11205000I150000J0D01*
G01*
X8913000Y11205000D01*
G75*
G02*
X9063000Y11055000I0J-150000D01*
G01*
X9063000Y9305000D01*
G75*
G02*
X8913000Y9155000I-150000J0D01*
G01*
G37*
G36*
G01*
X7643000Y9155000D02*
X7343000Y9155000D01*
G75*
G02*
X7193000Y9305000I0J150000D01*
G01*
X7193000Y11055000D01*
G75*
G02*
X7343000Y11205000I150000J0D01*
G01*
X7643000Y11205000D01*
G75*
G02*
X7793000Y11055000I0J-150000D01*
G01*
X7793000Y9305000D01*
G75*
G02*
X7643000Y9155000I-150000J0D01*
G01*
G37*
G36*
G01*
X6373000Y9155000D02*
X6073000Y9155000D01*
G75*
G02*
X5923000Y9305000I0J150000D01*
G01*
X5923000Y11055000D01*
G75*
G02*
X6073000Y11205000I150000J0D01*
G01*
X6373000Y11205000D01*
G75*
G02*
X6523000Y11055000I0J-150000D01*
G01*
X6523000Y9305000D01*
G75*
G02*
X6373000Y9155000I-150000J0D01*
G01*
G37*
G36*
G01*
X5103000Y9155000D02*
X4803000Y9155000D01*
G75*
G02*
X4653000Y9305000I0J150000D01*
G01*
X4653000Y11055000D01*
G75*
G02*
X4803000Y11205000I150000J0D01*
G01*
X5103000Y11205000D01*
G75*
G02*
X5253000Y11055000I0J-150000D01*
G01*
X5253000Y9305000D01*
G75*
G02*
X5103000Y9155000I-150000J0D01*
G01*
G37*
G36*
G01*
X3833000Y9155000D02*
X3533000Y9155000D01*
G75*
G02*
X3383000Y9305000I0J150000D01*
G01*
X3383000Y11055000D01*
G75*
G02*
X3533000Y11205000I150000J0D01*
G01*
X3833000Y11205000D01*
G75*
G02*
X3983000Y11055000I0J-150000D01*
G01*
X3983000Y9305000D01*
G75*
G02*
X3833000Y9155000I-150000J0D01*
G01*
G37*
G36*
G01*
X2563000Y9155000D02*
X2263000Y9155000D01*
G75*
G02*
X2113000Y9305000I0J150000D01*
G01*
X2113000Y11055000D01*
G75*
G02*
X2263000Y11205000I150000J0D01*
G01*
X2563000Y11205000D01*
G75*
G02*
X2713000Y11055000I0J-150000D01*
G01*
X2713000Y9305000D01*
G75*
G02*
X2563000Y9155000I-150000J0D01*
G01*
G37*
G36*
G01*
X1293000Y9155000D02*
X993000Y9155000D01*
G75*
G02*
X843000Y9305000I0J150000D01*
G01*
X843000Y11055000D01*
G75*
G02*
X993000Y11205000I150000J0D01*
G01*
X1293000Y11205000D01*
G75*
G02*
X1443000Y11055000I0J-150000D01*
G01*
X1443000Y9305000D01*
G75*
G02*
X1293000Y9155000I-150000J0D01*
G01*
G37*
G36*
G01*
X23000Y9155000D02*
X-277000Y9155000D01*
G75*
G02*
X-427000Y9305000I0J150000D01*
G01*
X-427000Y11055000D01*
G75*
G02*
X-277000Y11205000I150000J0D01*
G01*
X23000Y11205000D01*
G75*
G02*
X173000Y11055000I0J-150000D01*
G01*
X173000Y9305000D01*
G75*
G02*
X23000Y9155000I-150000J0D01*
G01*
G37*
G36*
G01*
X-1247000Y9155000D02*
X-1547000Y9155000D01*
G75*
G02*
X-1697000Y9305000I0J150000D01*
G01*
X-1697000Y11055000D01*
G75*
G02*
X-1547000Y11205000I150000J0D01*
G01*
X-1247000Y11205000D01*
G75*
G02*
X-1097000Y11055000I0J-150000D01*
G01*
X-1097000Y9305000D01*
G75*
G02*
X-1247000Y9155000I-150000J0D01*
G01*
G37*
G36*
G01*
X-2517000Y9155000D02*
X-2817000Y9155000D01*
G75*
G02*
X-2967000Y9305000I0J150000D01*
G01*
X-2967000Y11055000D01*
G75*
G02*
X-2817000Y11205000I150000J0D01*
G01*
X-2517000Y11205000D01*
G75*
G02*
X-2367000Y11055000I0J-150000D01*
G01*
X-2367000Y9305000D01*
G75*
G02*
X-2517000Y9155000I-150000J0D01*
G01*
G37*
G36*
G01*
X-3787000Y9155000D02*
X-4087000Y9155000D01*
G75*
G02*
X-4237000Y9305000I0J150000D01*
G01*
X-4237000Y11055000D01*
G75*
G02*
X-4087000Y11205000I150000J0D01*
G01*
X-3787000Y11205000D01*
G75*
G02*
X-3637000Y11055000I0J-150000D01*
G01*
X-3637000Y9305000D01*
G75*
G02*
X-3787000Y9155000I-150000J0D01*
G01*
G37*
G36*
G01*
X-3787000Y18455000D02*
X-4087000Y18455000D01*
G75*
G02*
X-4237000Y18605000I0J150000D01*
G01*
X-4237000Y20355000D01*
G75*
G02*
X-4087000Y20505000I150000J0D01*
G01*
X-3787000Y20505000D01*
G75*
G02*
X-3637000Y20355000I0J-150000D01*
G01*
X-3637000Y18605000D01*
G75*
G02*
X-3787000Y18455000I-150000J0D01*
G01*
G37*
G36*
G01*
X-2517000Y18455000D02*
X-2817000Y18455000D01*
G75*
G02*
X-2967000Y18605000I0J150000D01*
G01*
X-2967000Y20355000D01*
G75*
G02*
X-2817000Y20505000I150000J0D01*
G01*
X-2517000Y20505000D01*
G75*
G02*
X-2367000Y20355000I0J-150000D01*
G01*
X-2367000Y18605000D01*
G75*
G02*
X-2517000Y18455000I-150000J0D01*
G01*
G37*
G36*
G01*
X-1247000Y18455000D02*
X-1547000Y18455000D01*
G75*
G02*
X-1697000Y18605000I0J150000D01*
G01*
X-1697000Y20355000D01*
G75*
G02*
X-1547000Y20505000I150000J0D01*
G01*
X-1247000Y20505000D01*
G75*
G02*
X-1097000Y20355000I0J-150000D01*
G01*
X-1097000Y18605000D01*
G75*
G02*
X-1247000Y18455000I-150000J0D01*
G01*
G37*
G36*
G01*
X23000Y18455000D02*
X-277000Y18455000D01*
G75*
G02*
X-427000Y18605000I0J150000D01*
G01*
X-427000Y20355000D01*
G75*
G02*
X-277000Y20505000I150000J0D01*
G01*
X23000Y20505000D01*
G75*
G02*
X173000Y20355000I0J-150000D01*
G01*
X173000Y18605000D01*
G75*
G02*
X23000Y18455000I-150000J0D01*
G01*
G37*
G36*
G01*
X1293000Y18455000D02*
X993000Y18455000D01*
G75*
G02*
X843000Y18605000I0J150000D01*
G01*
X843000Y20355000D01*
G75*
G02*
X993000Y20505000I150000J0D01*
G01*
X1293000Y20505000D01*
G75*
G02*
X1443000Y20355000I0J-150000D01*
G01*
X1443000Y18605000D01*
G75*
G02*
X1293000Y18455000I-150000J0D01*
G01*
G37*
G36*
G01*
X2563000Y18455000D02*
X2263000Y18455000D01*
G75*
G02*
X2113000Y18605000I0J150000D01*
G01*
X2113000Y20355000D01*
G75*
G02*
X2263000Y20505000I150000J0D01*
G01*
X2563000Y20505000D01*
G75*
G02*
X2713000Y20355000I0J-150000D01*
G01*
X2713000Y18605000D01*
G75*
G02*
X2563000Y18455000I-150000J0D01*
G01*
G37*
G36*
G01*
X3833000Y18455000D02*
X3533000Y18455000D01*
G75*
G02*
X3383000Y18605000I0J150000D01*
G01*
X3383000Y20355000D01*
G75*
G02*
X3533000Y20505000I150000J0D01*
G01*
X3833000Y20505000D01*
G75*
G02*
X3983000Y20355000I0J-150000D01*
G01*
X3983000Y18605000D01*
G75*
G02*
X3833000Y18455000I-150000J0D01*
G01*
G37*
G36*
G01*
X5103000Y18455000D02*
X4803000Y18455000D01*
G75*
G02*
X4653000Y18605000I0J150000D01*
G01*
X4653000Y20355000D01*
G75*
G02*
X4803000Y20505000I150000J0D01*
G01*
X5103000Y20505000D01*
G75*
G02*
X5253000Y20355000I0J-150000D01*
G01*
X5253000Y18605000D01*
G75*
G02*
X5103000Y18455000I-150000J0D01*
G01*
G37*
G36*
G01*
X6373000Y18455000D02*
X6073000Y18455000D01*
G75*
G02*
X5923000Y18605000I0J150000D01*
G01*
X5923000Y20355000D01*
G75*
G02*
X6073000Y20505000I150000J0D01*
G01*
X6373000Y20505000D01*
G75*
G02*
X6523000Y20355000I0J-150000D01*
G01*
X6523000Y18605000D01*
G75*
G02*
X6373000Y18455000I-150000J0D01*
G01*
G37*
G36*
G01*
X7643000Y18455000D02*
X7343000Y18455000D01*
G75*
G02*
X7193000Y18605000I0J150000D01*
G01*
X7193000Y20355000D01*
G75*
G02*
X7343000Y20505000I150000J0D01*
G01*
X7643000Y20505000D01*
G75*
G02*
X7793000Y20355000I0J-150000D01*
G01*
X7793000Y18605000D01*
G75*
G02*
X7643000Y18455000I-150000J0D01*
G01*
G37*
G36*
G01*
X8913000Y18455000D02*
X8613000Y18455000D01*
G75*
G02*
X8463000Y18605000I0J150000D01*
G01*
X8463000Y20355000D01*
G75*
G02*
X8613000Y20505000I150000J0D01*
G01*
X8913000Y20505000D01*
G75*
G02*
X9063000Y20355000I0J-150000D01*
G01*
X9063000Y18605000D01*
G75*
G02*
X8913000Y18455000I-150000J0D01*
G01*
G37*
G36*
G01*
X10183000Y18455000D02*
X9883000Y18455000D01*
G75*
G02*
X9733000Y18605000I0J150000D01*
G01*
X9733000Y20355000D01*
G75*
G02*
X9883000Y20505000I150000J0D01*
G01*
X10183000Y20505000D01*
G75*
G02*
X10333000Y20355000I0J-150000D01*
G01*
X10333000Y18605000D01*
G75*
G02*
X10183000Y18455000I-150000J0D01*
G01*
G37*
%TD*%
M02*
