%TF.GenerationSoftware,KiCad,Pcbnew,(5.1.9-0-10_14)*%
%TF.CreationDate,2021-05-20T16:30:14+09:00*%
%TF.ProjectId,tracer,74726163-6572-42e6-9b69-6361645f7063,rev?*%
%TF.SameCoordinates,Original*%
%TF.FileFunction,Legend,Bot*%
%TF.FilePolarity,Positive*%
%FSLAX46Y46*%
G04 Gerber Fmt 4.6, Leading zero omitted, Abs format (unit mm)*
G04 Created by KiCad (PCBNEW (5.1.9-0-10_14)) date 2021-05-20 16:30:14*
%MOMM*%
%LPD*%
G01*
G04 APERTURE LIST*
%ADD10C,0.200000*%
%ADD11C,0.300000*%
%ADD12C,0.125000*%
%ADD13C,0.350000*%
%ADD14C,0.150000*%
%ADD15C,0.250000*%
%ADD16C,0.100000*%
%ADD17C,0.120000*%
%ADD18C,0.450000*%
%ADD19C,0.400000*%
G04 APERTURE END LIST*
D10*
X-4699000Y3175000D02*
X-7429500Y5905500D01*
X-7683500Y5651500D02*
X-4953000Y2921000D01*
D11*
X-10030996Y5639969D02*
X-8886156Y5841999D01*
X-9222874Y4831847D02*
X-7808660Y6246061D01*
X-8347408Y6784809D01*
X-8549438Y6852152D01*
X-8684125Y6852152D01*
X-8886156Y6784809D01*
X-9088187Y6582778D01*
X-9155530Y6380748D01*
X-9155530Y6246061D01*
X-9088187Y6044030D01*
X-8549438Y5505282D01*
X-3583988Y2084889D02*
X-4392110Y2893011D01*
X-5402263Y1074736D02*
X-3988049Y2488950D01*
D10*
X-6459720Y2136004D02*
X-5772816Y2257223D01*
X-5974847Y1651131D02*
X-5126319Y2499659D01*
X-5449568Y2822908D01*
X-5570786Y2863314D01*
X-5651598Y2863314D01*
X-5772816Y2822908D01*
X-5894035Y2701690D01*
X-5934441Y2580471D01*
X-5934441Y2499659D01*
X-5894035Y2378441D01*
X-5570786Y2055192D01*
X-6540532Y2701690D02*
X-6944593Y3105751D01*
X-6702157Y2378441D02*
X-6136471Y3509812D01*
X-7267842Y2944126D01*
X-7954746Y3792654D02*
X-7954746Y3711842D01*
X-7873934Y3550218D01*
X-7793122Y3469406D01*
X-7631497Y3388593D01*
X-7469873Y3388593D01*
X-7348654Y3429000D01*
X-7146624Y3550218D01*
X-7025406Y3671436D01*
X-6904187Y3873467D01*
X-6863781Y3994685D01*
X-6863781Y4156309D01*
X-6944593Y4317934D01*
X-7025406Y4398746D01*
X-7187030Y4479558D01*
X-7267842Y4479558D01*
X-7954746Y4519964D02*
X-8237589Y4802807D01*
X-8803274Y4479558D02*
X-8399213Y4075497D01*
X-7550685Y4924025D01*
X-7954746Y5328086D01*
D12*
X6383571Y7760928D02*
X6276428Y7725214D01*
X6097857Y7725214D01*
X6026428Y7760928D01*
X5990714Y7796642D01*
X5955000Y7868071D01*
X5955000Y7939500D01*
X5990714Y8010928D01*
X6026428Y8046642D01*
X6097857Y8082357D01*
X6240714Y8118071D01*
X6312142Y8153785D01*
X6347857Y8189500D01*
X6383571Y8260928D01*
X6383571Y8332357D01*
X6347857Y8403785D01*
X6312142Y8439500D01*
X6240714Y8475214D01*
X6062142Y8475214D01*
X5955000Y8439500D01*
X5633571Y7725214D02*
X5633571Y8475214D01*
X4883571Y8439500D02*
X4955000Y8475214D01*
X5062142Y8475214D01*
X5169285Y8439500D01*
X5240714Y8368071D01*
X5276428Y8296642D01*
X5312142Y8153785D01*
X5312142Y8046642D01*
X5276428Y7903785D01*
X5240714Y7832357D01*
X5169285Y7760928D01*
X5062142Y7725214D01*
X4990714Y7725214D01*
X4883571Y7760928D01*
X4847857Y7796642D01*
X4847857Y8046642D01*
X4990714Y8046642D01*
X4526428Y7796642D02*
X4490714Y7760928D01*
X4526428Y7725214D01*
X4562142Y7760928D01*
X4526428Y7796642D01*
X4526428Y7725214D01*
X4205000Y8403785D02*
X4169285Y8439500D01*
X4097857Y8475214D01*
X3919285Y8475214D01*
X3847857Y8439500D01*
X3812142Y8403785D01*
X3776428Y8332357D01*
X3776428Y8260928D01*
X3812142Y8153785D01*
X4240714Y7725214D01*
X3776428Y7725214D01*
D13*
X10668000Y8480000D02*
G75*
G03*
X10668000Y8480000I-127000J0D01*
G01*
D14*
X5032333Y2550619D02*
X5032333Y1836333D01*
X5079952Y1693476D01*
X5175190Y1598238D01*
X5318047Y1550619D01*
X5413285Y1550619D01*
X4032333Y1550619D02*
X4603761Y1550619D01*
X4318047Y1550619D02*
X4318047Y2550619D01*
X4413285Y2407761D01*
X4508523Y2312523D01*
X4603761Y2264904D01*
D10*
%TO.C,J1*%
X-3200000Y7055000D02*
X3300000Y7055000D01*
X-3200000Y-7650000D02*
X-3200000Y7055000D01*
X3300000Y1455000D02*
X-3200000Y1455000D01*
X3300000Y7055000D02*
X3300000Y-7645000D01*
X3300000Y-7645000D02*
X-3200000Y-7645000D01*
D15*
X-3250000Y8075000D02*
X-2000000Y8325000D01*
X-2000000Y7775000D02*
X-2000000Y8325000D01*
X2000000Y8325000D02*
X2000000Y7775000D01*
X2000000Y8325000D02*
X3250000Y8075000D01*
X3250000Y8025000D02*
X2000000Y7775000D01*
D11*
X3250000Y8050000D02*
X2000000Y8050000D01*
D15*
X-2000000Y7775000D02*
X-3250000Y8025000D01*
X2000000Y8050000D02*
X900000Y8050000D01*
X-900000Y8050000D02*
X-2000000Y8050000D01*
X900000Y8050000D02*
X750000Y8550000D01*
X750000Y8550000D02*
X500000Y7550000D01*
X250000Y8550000D02*
X0Y7550000D01*
X500000Y7550000D02*
X250000Y8550000D01*
X-750000Y8550000D02*
X-900000Y8050000D01*
X-250000Y8550000D02*
X-500000Y7550000D01*
X-500000Y7550000D02*
X-750000Y8550000D01*
X0Y7550000D02*
X-250000Y8550000D01*
D11*
X-2000000Y8050000D02*
X-3250000Y8050000D01*
D15*
X1250000Y7550000D02*
X-1500000Y8800000D01*
X-1100000Y8800000D02*
X-1500000Y8800000D01*
X-1500000Y8800000D02*
X-1250000Y8500000D01*
X-1100000Y8800000D02*
X-1250000Y8500000D01*
D16*
%TO.C,K2*%
X-9919999Y16329999D02*
G75*
G03*
X-9919999Y15730001I-299999J-299999D01*
G01*
X-9920000Y13902998D02*
G75*
G03*
X-9920000Y13303000I-299999J-299999D01*
G01*
X-9919999Y14503000D02*
G75*
G03*
X-9919999Y13903002I-299999J-299999D01*
G01*
X-9920000Y15102998D02*
G75*
G03*
X-9920000Y14503000I-299999J-299999D01*
G01*
X-9919999Y15703000D02*
G75*
G03*
X-9919999Y15103002I-299999J-299999D01*
G01*
D17*
X-6355000Y12730000D02*
X-6359801Y10230000D01*
X-10160000Y16989000D02*
X-10155000Y19430000D01*
X-6355000Y19430000D02*
X-6355000Y16930000D01*
D18*
X-9905000Y21730000D02*
G75*
G03*
X-9905000Y21730000I-150000J0D01*
G01*
D17*
X-8890000Y19430000D02*
X-7620000Y19430000D01*
X-8890000Y10230000D02*
X-7620000Y10230000D01*
D14*
X-6459800Y16030000D02*
X-6055000Y13830000D01*
D10*
X-6359800Y13630000D02*
G75*
G03*
X-6359800Y13630000I-100001J0D01*
G01*
X-6359800Y16030000D02*
G75*
G03*
X-6359800Y16030000I-100001J0D01*
G01*
D17*
X-10155000Y10230000D02*
X-10155000Y12730000D01*
%TO.C,A2*%
X-7500000Y43246000D02*
X7500000Y43246000D01*
D19*
X5915000Y43913000D02*
G75*
G03*
X5915000Y43913000I-200000J0D01*
G01*
D17*
X-7500000Y43246000D02*
X-7500000Y27246000D01*
X-7500000Y27246000D02*
X7500000Y27246000D01*
X7500000Y43246000D02*
X7500000Y27246000D01*
X5500000Y33246000D02*
X-5500000Y33246000D01*
X-5500000Y33246000D02*
X-5500000Y39246000D01*
X-5500000Y39246000D02*
X5500000Y39246000D01*
X5500000Y39246000D02*
X5500000Y33246000D01*
D10*
%TO.C,D2*%
X-10444000Y7245000D02*
X-10444000Y8445000D01*
D17*
%TO.C,R1*%
X7837500Y35049936D02*
X7837500Y35504064D01*
X9307500Y35049936D02*
X9307500Y35504064D01*
%TO.C,R2*%
X-9244000Y29969936D02*
X-9244000Y30424064D01*
X-7774000Y29969936D02*
X-7774000Y30424064D01*
%TO.C,Q1*%
X7876000Y23918000D02*
X7876000Y24848000D01*
X7876000Y27078000D02*
X7876000Y26148000D01*
X7876000Y27078000D02*
X10036000Y27078000D01*
X7876000Y23918000D02*
X9336000Y23918000D01*
%TO.C,Q2*%
X-9650000Y23410000D02*
X-9650000Y24340000D01*
X-9650000Y26570000D02*
X-9650000Y25640000D01*
X-9650000Y26570000D02*
X-7490000Y26570000D01*
X-9650000Y23410000D02*
X-8190000Y23410000D01*
%TO.C,U2*%
X-4762000Y14830000D02*
X-4762000Y18690000D01*
X-4762000Y18690000D02*
X-4497000Y18690000D01*
X-4762000Y14830000D02*
X-4762000Y10970000D01*
X-4762000Y10970000D02*
X-4497000Y10970000D01*
X10858000Y14830000D02*
X10858000Y18690000D01*
X10858000Y18690000D02*
X10593000Y18690000D01*
X10858000Y14830000D02*
X10858000Y10970000D01*
X10858000Y10970000D02*
X10593000Y10970000D01*
X10593000Y10970000D02*
X10593000Y9155000D01*
%TO.C,K2*%
D12*
X-7764928Y21475714D02*
X-7764928Y22225714D01*
X-8193499Y21475714D02*
X-7872071Y21904285D01*
X-8193499Y22225714D02*
X-7764928Y21797142D01*
X-8479214Y22154285D02*
X-8514928Y22190000D01*
X-8586357Y22225714D01*
X-8764928Y22225714D01*
X-8836357Y22190000D01*
X-8872071Y22154285D01*
X-8907785Y22082857D01*
X-8907785Y22011428D01*
X-8872071Y21904285D01*
X-8443500Y21475714D01*
X-8907785Y21475714D01*
%TO.C,A2*%
X535714Y26262000D02*
X178571Y26262000D01*
X607142Y26047714D02*
X357142Y26797714D01*
X107142Y26047714D01*
X-107142Y26726285D02*
X-142857Y26762000D01*
X-214285Y26797714D01*
X-392857Y26797714D01*
X-464285Y26762000D01*
X-500000Y26726285D01*
X-535714Y26654857D01*
X-535714Y26583428D01*
X-500000Y26476285D01*
X-71428Y26047714D01*
X-535714Y26047714D01*
D14*
X5476190Y32268619D02*
X5380952Y32268619D01*
X5285714Y32221000D01*
X5238095Y32173380D01*
X5190476Y32078142D01*
X5142857Y31887666D01*
X5142857Y31649571D01*
X5190476Y31459095D01*
X5238095Y31363857D01*
X5285714Y31316238D01*
X5380952Y31268619D01*
X5476190Y31268619D01*
X5571428Y31316238D01*
X5619047Y31363857D01*
X5666666Y31459095D01*
X5714285Y31649571D01*
X5714285Y31887666D01*
X5666666Y32078142D01*
X5619047Y32173380D01*
X5571428Y32221000D01*
X5476190Y32268619D01*
X4714285Y31363857D02*
X4666666Y31316238D01*
X4714285Y31268619D01*
X4761904Y31316238D01*
X4714285Y31363857D01*
X4714285Y31268619D01*
X3809523Y31935285D02*
X3809523Y31268619D01*
X4047619Y32316238D02*
X4285714Y31601952D01*
X3666666Y31601952D01*
X3238095Y31268619D02*
X3047619Y31268619D01*
X2952380Y31316238D01*
X2904761Y31363857D01*
X2809523Y31506714D01*
X2761904Y31697190D01*
X2761904Y32078142D01*
X2809523Y32173380D01*
X2857142Y32221000D01*
X2952380Y32268619D01*
X3142857Y32268619D01*
X3238095Y32221000D01*
X3285714Y32173380D01*
X3333333Y32078142D01*
X3333333Y31840047D01*
X3285714Y31744809D01*
X3238095Y31697190D01*
X3142857Y31649571D01*
X2952380Y31649571D01*
X2857142Y31697190D01*
X2809523Y31744809D01*
X2761904Y31840047D01*
X2380952Y32268619D02*
X2380952Y32078142D01*
X2000000Y32268619D02*
X2000000Y32078142D01*
X809523Y31268619D02*
X809523Y32268619D01*
X380952Y32173380D02*
X333333Y32221000D01*
X238095Y32268619D01*
X0Y32268619D01*
X-95238Y32221000D01*
X-142857Y32173380D01*
X-190476Y32078142D01*
X-190476Y31982904D01*
X-142857Y31840047D01*
X428571Y31268619D01*
X-190476Y31268619D01*
X-1190476Y31363857D02*
X-1142857Y31316238D01*
X-999999Y31268619D01*
X-904761Y31268619D01*
X-761904Y31316238D01*
X-666666Y31411476D01*
X-619047Y31506714D01*
X-571428Y31697190D01*
X-571428Y31840047D01*
X-619047Y32030523D01*
X-666666Y32125761D01*
X-761904Y32221000D01*
X-904761Y32268619D01*
X-999999Y32268619D01*
X-1142857Y32221000D01*
X-1190476Y32173380D01*
X-2571428Y32268619D02*
X-2761904Y32268619D01*
X-2857142Y32221000D01*
X-2952380Y32125761D01*
X-2999999Y31935285D01*
X-2999999Y31601952D01*
X-2952380Y31411476D01*
X-2857142Y31316238D01*
X-2761904Y31268619D01*
X-2571428Y31268619D01*
X-2476190Y31316238D01*
X-2380952Y31411476D01*
X-2333333Y31601952D01*
X-2333333Y31935285D01*
X-2380952Y32125761D01*
X-2476190Y32221000D01*
X-2571428Y32268619D01*
X-3904761Y31268619D02*
X-3428571Y31268619D01*
X-3428571Y32268619D01*
X-4238095Y31792428D02*
X-4571428Y31792428D01*
X-4714285Y31268619D02*
X-4238095Y31268619D01*
X-4238095Y32268619D01*
X-4714285Y32268619D01*
X-5142857Y31268619D02*
X-5142857Y32268619D01*
X-5380952Y32268619D01*
X-5523809Y32221000D01*
X-5619047Y32125761D01*
X-5666666Y32030523D01*
X-5714285Y31840047D01*
X-5714285Y31697190D01*
X-5666666Y31506714D01*
X-5619047Y31411476D01*
X-5523809Y31316238D01*
X-5380952Y31268619D01*
X-5142857Y31268619D01*
%TO.C,D2*%
D12*
X-7383928Y7534714D02*
X-7383928Y8284714D01*
X-7562499Y8284714D01*
X-7669642Y8249000D01*
X-7741071Y8177571D01*
X-7776785Y8106142D01*
X-7812499Y7963285D01*
X-7812499Y7856142D01*
X-7776785Y7713285D01*
X-7741071Y7641857D01*
X-7669642Y7570428D01*
X-7562499Y7534714D01*
X-7383928Y7534714D01*
X-8098214Y8213285D02*
X-8133928Y8249000D01*
X-8205357Y8284714D01*
X-8383928Y8284714D01*
X-8455357Y8249000D01*
X-8491071Y8213285D01*
X-8526785Y8141857D01*
X-8526785Y8070428D01*
X-8491071Y7963285D01*
X-8062499Y7534714D01*
X-8526785Y7534714D01*
%TO.C,R1*%
X8697500Y37223714D02*
X8947500Y37580857D01*
X9126071Y37223714D02*
X9126071Y37973714D01*
X8840357Y37973714D01*
X8768928Y37938000D01*
X8733214Y37902285D01*
X8697500Y37830857D01*
X8697500Y37723714D01*
X8733214Y37652285D01*
X8768928Y37616571D01*
X8840357Y37580857D01*
X9126071Y37580857D01*
X7983214Y37223714D02*
X8411785Y37223714D01*
X8197500Y37223714D02*
X8197500Y37973714D01*
X8268928Y37866571D01*
X8340357Y37795142D01*
X8411785Y37759428D01*
%TO.C,R2*%
X-8383999Y32270714D02*
X-8133999Y32627857D01*
X-7955428Y32270714D02*
X-7955428Y33020714D01*
X-8241142Y33020714D01*
X-8312571Y32985000D01*
X-8348285Y32949285D01*
X-8383999Y32877857D01*
X-8383999Y32770714D01*
X-8348285Y32699285D01*
X-8312571Y32663571D01*
X-8241142Y32627857D01*
X-7955428Y32627857D01*
X-8669714Y32949285D02*
X-8705428Y32985000D01*
X-8776857Y33020714D01*
X-8955428Y33020714D01*
X-9026857Y32985000D01*
X-9062571Y32949285D01*
X-9098285Y32877857D01*
X-9098285Y32806428D01*
X-9062571Y32699285D01*
X-8634000Y32270714D01*
X-9098285Y32270714D01*
%TO.C,Q1*%
X8580428Y27500285D02*
X8651857Y27536000D01*
X8723285Y27607428D01*
X8830428Y27714571D01*
X8901857Y27750285D01*
X8973285Y27750285D01*
X8937571Y27571714D02*
X9009000Y27607428D01*
X9080428Y27678857D01*
X9116142Y27821714D01*
X9116142Y28071714D01*
X9080428Y28214571D01*
X9009000Y28286000D01*
X8937571Y28321714D01*
X8794714Y28321714D01*
X8723285Y28286000D01*
X8651857Y28214571D01*
X8616142Y28071714D01*
X8616142Y27821714D01*
X8651857Y27678857D01*
X8723285Y27607428D01*
X8794714Y27571714D01*
X8937571Y27571714D01*
X7901857Y27571714D02*
X8330428Y27571714D01*
X8116142Y27571714D02*
X8116142Y28321714D01*
X8187571Y28214571D01*
X8259000Y28143142D01*
X8330428Y28107428D01*
%TO.C,Q2*%
X-8564571Y26992285D02*
X-8493142Y27028000D01*
X-8421714Y27099428D01*
X-8314571Y27206571D01*
X-8243142Y27242285D01*
X-8171714Y27242285D01*
X-8207428Y27063714D02*
X-8136000Y27099428D01*
X-8064571Y27170857D01*
X-8028857Y27313714D01*
X-8028857Y27563714D01*
X-8064571Y27706571D01*
X-8136000Y27778000D01*
X-8207428Y27813714D01*
X-8350285Y27813714D01*
X-8421714Y27778000D01*
X-8493142Y27706571D01*
X-8528857Y27563714D01*
X-8528857Y27313714D01*
X-8493142Y27170857D01*
X-8421714Y27099428D01*
X-8350285Y27063714D01*
X-8207428Y27063714D01*
X-8814571Y27742285D02*
X-8850285Y27778000D01*
X-8921714Y27813714D01*
X-9100285Y27813714D01*
X-9171714Y27778000D01*
X-9207428Y27742285D01*
X-9243142Y27670857D01*
X-9243142Y27599428D01*
X-9207428Y27492285D01*
X-8778857Y27063714D01*
X-9243142Y27063714D01*
%TO.C,U2*%
X9715428Y8538714D02*
X9715428Y7931571D01*
X9679714Y7860142D01*
X9644000Y7824428D01*
X9572571Y7788714D01*
X9429714Y7788714D01*
X9358285Y7824428D01*
X9322571Y7860142D01*
X9286857Y7931571D01*
X9286857Y8538714D01*
X8965428Y8467285D02*
X8929714Y8503000D01*
X8858285Y8538714D01*
X8679714Y8538714D01*
X8608285Y8503000D01*
X8572571Y8467285D01*
X8536857Y8395857D01*
X8536857Y8324428D01*
X8572571Y8217285D01*
X9001142Y7788714D01*
X8536857Y7788714D01*
%TD*%
M02*
