%TF.GenerationSoftware,KiCad,Pcbnew,(5.1.10-1-10_14)*%
%TF.CreationDate,2021-06-13T18:58:13+09:00*%
%TF.ProjectId,tracer,74726163-6572-42e6-9b69-6361645f7063,rev?*%
%TF.SameCoordinates,Original*%
%TF.FileFunction,Soldermask,Top*%
%TF.FilePolarity,Negative*%
%FSLAX46Y46*%
G04 Gerber Fmt 4.6, Leading zero omitted, Abs format (unit mm)*
G04 Created by KiCad (PCBNEW (5.1.10-1-10_14)) date 2021-06-13 18:58:13*
%MOMM*%
%LPD*%
G01*
G04 APERTURE LIST*
%ADD10C,0.010000*%
%ADD11R,3.600000X1.800000*%
%ADD12R,3.200000X1.800000*%
%ADD13C,0.800000*%
%ADD14R,1.000000X4.000000*%
%ADD15R,0.500000X0.600000*%
G04 APERTURE END LIST*
D10*
%TO.C,J1*%
G36*
X500000Y6850000D02*
G01*
X2100000Y6850000D01*
X2100000Y3750000D01*
X500000Y3750000D01*
X500000Y6850000D01*
G37*
X500000Y6850000D02*
X2100000Y6850000D01*
X2100000Y3750000D01*
X500000Y3750000D01*
X500000Y6850000D01*
G36*
X-2100000Y6850000D02*
G01*
X-500000Y6850000D01*
X-500000Y3750000D01*
X-2100000Y3750000D01*
X-2100000Y6850000D01*
G37*
X-2100000Y6850000D02*
X-500000Y6850000D01*
X-500000Y3750000D01*
X-2100000Y3750000D01*
X-2100000Y6850000D01*
%TD*%
D11*
%TO.C,A1*%
X-8636000Y43307000D03*
X-8636000Y40767000D03*
X-8636000Y38227000D03*
D12*
X-8836000Y35687000D03*
X-8836000Y33147000D03*
D11*
X-8636000Y30607000D03*
X-8636000Y28067000D03*
X-8636000Y25527000D03*
X8636000Y25527000D03*
X8636000Y28067000D03*
X8636000Y30607000D03*
D12*
X8836000Y33147000D03*
X8836000Y35687000D03*
D11*
X8636000Y38227000D03*
X8636000Y40767000D03*
X8636000Y43307000D03*
%TD*%
D13*
%TO.C,TP14*%
X9906000Y38227000D03*
%TD*%
%TO.C,TP13*%
X9906000Y35687000D03*
%TD*%
D14*
%TO.C,K1*%
X9525000Y10680000D03*
X6985000Y10680000D03*
X6985000Y18980000D03*
X9525000Y18980000D03*
%TD*%
D15*
%TO.C,D1*%
X9195000Y7845000D03*
X9995000Y7845000D03*
%TD*%
%TO.C,U1*%
G36*
G01*
X-9375000Y9155000D02*
X-9675000Y9155000D01*
G75*
G02*
X-9825000Y9305000I0J150000D01*
G01*
X-9825000Y11055000D01*
G75*
G02*
X-9675000Y11205000I150000J0D01*
G01*
X-9375000Y11205000D01*
G75*
G02*
X-9225000Y11055000I0J-150000D01*
G01*
X-9225000Y9305000D01*
G75*
G02*
X-9375000Y9155000I-150000J0D01*
G01*
G37*
G36*
G01*
X-8105000Y9155000D02*
X-8405000Y9155000D01*
G75*
G02*
X-8555000Y9305000I0J150000D01*
G01*
X-8555000Y11055000D01*
G75*
G02*
X-8405000Y11205000I150000J0D01*
G01*
X-8105000Y11205000D01*
G75*
G02*
X-7955000Y11055000I0J-150000D01*
G01*
X-7955000Y9305000D01*
G75*
G02*
X-8105000Y9155000I-150000J0D01*
G01*
G37*
G36*
G01*
X-6835000Y9155000D02*
X-7135000Y9155000D01*
G75*
G02*
X-7285000Y9305000I0J150000D01*
G01*
X-7285000Y11055000D01*
G75*
G02*
X-7135000Y11205000I150000J0D01*
G01*
X-6835000Y11205000D01*
G75*
G02*
X-6685000Y11055000I0J-150000D01*
G01*
X-6685000Y9305000D01*
G75*
G02*
X-6835000Y9155000I-150000J0D01*
G01*
G37*
G36*
G01*
X-5565000Y9155000D02*
X-5865000Y9155000D01*
G75*
G02*
X-6015000Y9305000I0J150000D01*
G01*
X-6015000Y11055000D01*
G75*
G02*
X-5865000Y11205000I150000J0D01*
G01*
X-5565000Y11205000D01*
G75*
G02*
X-5415000Y11055000I0J-150000D01*
G01*
X-5415000Y9305000D01*
G75*
G02*
X-5565000Y9155000I-150000J0D01*
G01*
G37*
G36*
G01*
X-4295000Y9155000D02*
X-4595000Y9155000D01*
G75*
G02*
X-4745000Y9305000I0J150000D01*
G01*
X-4745000Y11055000D01*
G75*
G02*
X-4595000Y11205000I150000J0D01*
G01*
X-4295000Y11205000D01*
G75*
G02*
X-4145000Y11055000I0J-150000D01*
G01*
X-4145000Y9305000D01*
G75*
G02*
X-4295000Y9155000I-150000J0D01*
G01*
G37*
G36*
G01*
X-3025000Y9155000D02*
X-3325000Y9155000D01*
G75*
G02*
X-3475000Y9305000I0J150000D01*
G01*
X-3475000Y11055000D01*
G75*
G02*
X-3325000Y11205000I150000J0D01*
G01*
X-3025000Y11205000D01*
G75*
G02*
X-2875000Y11055000I0J-150000D01*
G01*
X-2875000Y9305000D01*
G75*
G02*
X-3025000Y9155000I-150000J0D01*
G01*
G37*
G36*
G01*
X-1755000Y9155000D02*
X-2055000Y9155000D01*
G75*
G02*
X-2205000Y9305000I0J150000D01*
G01*
X-2205000Y11055000D01*
G75*
G02*
X-2055000Y11205000I150000J0D01*
G01*
X-1755000Y11205000D01*
G75*
G02*
X-1605000Y11055000I0J-150000D01*
G01*
X-1605000Y9305000D01*
G75*
G02*
X-1755000Y9155000I-150000J0D01*
G01*
G37*
G36*
G01*
X-485000Y9155000D02*
X-785000Y9155000D01*
G75*
G02*
X-935000Y9305000I0J150000D01*
G01*
X-935000Y11055000D01*
G75*
G02*
X-785000Y11205000I150000J0D01*
G01*
X-485000Y11205000D01*
G75*
G02*
X-335000Y11055000I0J-150000D01*
G01*
X-335000Y9305000D01*
G75*
G02*
X-485000Y9155000I-150000J0D01*
G01*
G37*
G36*
G01*
X785000Y9155000D02*
X485000Y9155000D01*
G75*
G02*
X335000Y9305000I0J150000D01*
G01*
X335000Y11055000D01*
G75*
G02*
X485000Y11205000I150000J0D01*
G01*
X785000Y11205000D01*
G75*
G02*
X935000Y11055000I0J-150000D01*
G01*
X935000Y9305000D01*
G75*
G02*
X785000Y9155000I-150000J0D01*
G01*
G37*
G36*
G01*
X2055000Y9155000D02*
X1755000Y9155000D01*
G75*
G02*
X1605000Y9305000I0J150000D01*
G01*
X1605000Y11055000D01*
G75*
G02*
X1755000Y11205000I150000J0D01*
G01*
X2055000Y11205000D01*
G75*
G02*
X2205000Y11055000I0J-150000D01*
G01*
X2205000Y9305000D01*
G75*
G02*
X2055000Y9155000I-150000J0D01*
G01*
G37*
G36*
G01*
X3325000Y9155000D02*
X3025000Y9155000D01*
G75*
G02*
X2875000Y9305000I0J150000D01*
G01*
X2875000Y11055000D01*
G75*
G02*
X3025000Y11205000I150000J0D01*
G01*
X3325000Y11205000D01*
G75*
G02*
X3475000Y11055000I0J-150000D01*
G01*
X3475000Y9305000D01*
G75*
G02*
X3325000Y9155000I-150000J0D01*
G01*
G37*
G36*
G01*
X4595000Y9155000D02*
X4295000Y9155000D01*
G75*
G02*
X4145000Y9305000I0J150000D01*
G01*
X4145000Y11055000D01*
G75*
G02*
X4295000Y11205000I150000J0D01*
G01*
X4595000Y11205000D01*
G75*
G02*
X4745000Y11055000I0J-150000D01*
G01*
X4745000Y9305000D01*
G75*
G02*
X4595000Y9155000I-150000J0D01*
G01*
G37*
G36*
G01*
X4595000Y18455000D02*
X4295000Y18455000D01*
G75*
G02*
X4145000Y18605000I0J150000D01*
G01*
X4145000Y20355000D01*
G75*
G02*
X4295000Y20505000I150000J0D01*
G01*
X4595000Y20505000D01*
G75*
G02*
X4745000Y20355000I0J-150000D01*
G01*
X4745000Y18605000D01*
G75*
G02*
X4595000Y18455000I-150000J0D01*
G01*
G37*
G36*
G01*
X3325000Y18455000D02*
X3025000Y18455000D01*
G75*
G02*
X2875000Y18605000I0J150000D01*
G01*
X2875000Y20355000D01*
G75*
G02*
X3025000Y20505000I150000J0D01*
G01*
X3325000Y20505000D01*
G75*
G02*
X3475000Y20355000I0J-150000D01*
G01*
X3475000Y18605000D01*
G75*
G02*
X3325000Y18455000I-150000J0D01*
G01*
G37*
G36*
G01*
X2055000Y18455000D02*
X1755000Y18455000D01*
G75*
G02*
X1605000Y18605000I0J150000D01*
G01*
X1605000Y20355000D01*
G75*
G02*
X1755000Y20505000I150000J0D01*
G01*
X2055000Y20505000D01*
G75*
G02*
X2205000Y20355000I0J-150000D01*
G01*
X2205000Y18605000D01*
G75*
G02*
X2055000Y18455000I-150000J0D01*
G01*
G37*
G36*
G01*
X785000Y18455000D02*
X485000Y18455000D01*
G75*
G02*
X335000Y18605000I0J150000D01*
G01*
X335000Y20355000D01*
G75*
G02*
X485000Y20505000I150000J0D01*
G01*
X785000Y20505000D01*
G75*
G02*
X935000Y20355000I0J-150000D01*
G01*
X935000Y18605000D01*
G75*
G02*
X785000Y18455000I-150000J0D01*
G01*
G37*
G36*
G01*
X-485000Y18455000D02*
X-785000Y18455000D01*
G75*
G02*
X-935000Y18605000I0J150000D01*
G01*
X-935000Y20355000D01*
G75*
G02*
X-785000Y20505000I150000J0D01*
G01*
X-485000Y20505000D01*
G75*
G02*
X-335000Y20355000I0J-150000D01*
G01*
X-335000Y18605000D01*
G75*
G02*
X-485000Y18455000I-150000J0D01*
G01*
G37*
G36*
G01*
X-1755000Y18455000D02*
X-2055000Y18455000D01*
G75*
G02*
X-2205000Y18605000I0J150000D01*
G01*
X-2205000Y20355000D01*
G75*
G02*
X-2055000Y20505000I150000J0D01*
G01*
X-1755000Y20505000D01*
G75*
G02*
X-1605000Y20355000I0J-150000D01*
G01*
X-1605000Y18605000D01*
G75*
G02*
X-1755000Y18455000I-150000J0D01*
G01*
G37*
G36*
G01*
X-3025000Y18455000D02*
X-3325000Y18455000D01*
G75*
G02*
X-3475000Y18605000I0J150000D01*
G01*
X-3475000Y20355000D01*
G75*
G02*
X-3325000Y20505000I150000J0D01*
G01*
X-3025000Y20505000D01*
G75*
G02*
X-2875000Y20355000I0J-150000D01*
G01*
X-2875000Y18605000D01*
G75*
G02*
X-3025000Y18455000I-150000J0D01*
G01*
G37*
G36*
G01*
X-4295000Y18455000D02*
X-4595000Y18455000D01*
G75*
G02*
X-4745000Y18605000I0J150000D01*
G01*
X-4745000Y20355000D01*
G75*
G02*
X-4595000Y20505000I150000J0D01*
G01*
X-4295000Y20505000D01*
G75*
G02*
X-4145000Y20355000I0J-150000D01*
G01*
X-4145000Y18605000D01*
G75*
G02*
X-4295000Y18455000I-150000J0D01*
G01*
G37*
G36*
G01*
X-5565000Y18455000D02*
X-5865000Y18455000D01*
G75*
G02*
X-6015000Y18605000I0J150000D01*
G01*
X-6015000Y20355000D01*
G75*
G02*
X-5865000Y20505000I150000J0D01*
G01*
X-5565000Y20505000D01*
G75*
G02*
X-5415000Y20355000I0J-150000D01*
G01*
X-5415000Y18605000D01*
G75*
G02*
X-5565000Y18455000I-150000J0D01*
G01*
G37*
G36*
G01*
X-6835000Y18455000D02*
X-7135000Y18455000D01*
G75*
G02*
X-7285000Y18605000I0J150000D01*
G01*
X-7285000Y20355000D01*
G75*
G02*
X-7135000Y20505000I150000J0D01*
G01*
X-6835000Y20505000D01*
G75*
G02*
X-6685000Y20355000I0J-150000D01*
G01*
X-6685000Y18605000D01*
G75*
G02*
X-6835000Y18455000I-150000J0D01*
G01*
G37*
G36*
G01*
X-8105000Y18455000D02*
X-8405000Y18455000D01*
G75*
G02*
X-8555000Y18605000I0J150000D01*
G01*
X-8555000Y20355000D01*
G75*
G02*
X-8405000Y20505000I150000J0D01*
G01*
X-8105000Y20505000D01*
G75*
G02*
X-7955000Y20355000I0J-150000D01*
G01*
X-7955000Y18605000D01*
G75*
G02*
X-8105000Y18455000I-150000J0D01*
G01*
G37*
G36*
G01*
X-9375000Y18455000D02*
X-9675000Y18455000D01*
G75*
G02*
X-9825000Y18605000I0J150000D01*
G01*
X-9825000Y20355000D01*
G75*
G02*
X-9675000Y20505000I150000J0D01*
G01*
X-9375000Y20505000D01*
G75*
G02*
X-9225000Y20355000I0J-150000D01*
G01*
X-9225000Y18605000D01*
G75*
G02*
X-9375000Y18455000I-150000J0D01*
G01*
G37*
%TD*%
M02*
