%TF.GenerationSoftware,KiCad,Pcbnew,(5.1.10-1-10_14)*%
%TF.CreationDate,2021-06-13T18:58:13+09:00*%
%TF.ProjectId,tracer,74726163-6572-42e6-9b69-6361645f7063,rev?*%
%TF.SameCoordinates,Original*%
%TF.FileFunction,Copper,L2,Inr*%
%TF.FilePolarity,Positive*%
%FSLAX46Y46*%
G04 Gerber Fmt 4.6, Leading zero omitted, Abs format (unit mm)*
G04 Created by KiCad (PCBNEW (5.1.10-1-10_14)) date 2021-06-13 18:58:13*
%MOMM*%
%LPD*%
G01*
G04 APERTURE LIST*
%TA.AperFunction,ComponentPad*%
%ADD10C,0.800000*%
%TD*%
%TA.AperFunction,ViaPad*%
%ADD11C,0.800000*%
%TD*%
%TA.AperFunction,Conductor*%
%ADD12C,0.254000*%
%TD*%
%TA.AperFunction,Conductor*%
%ADD13C,0.100000*%
%TD*%
G04 APERTURE END LIST*
D10*
%TO.N,Net-(A1-Pad14)*%
%TO.C,TP14*%
X9906000Y38227000D03*
%TD*%
%TO.N,Net-(A1-Pad13)*%
%TO.C,TP13*%
X9906000Y35687000D03*
%TD*%
D11*
%TO.N,GND*%
X5842000Y16227000D03*
X-5715000Y16925500D03*
X-7366000Y22640500D03*
X254000Y17751000D03*
X4445000Y12671000D03*
X-9906000Y40767000D03*
X10033000Y6921500D03*
X-9906000Y6858000D03*
X254000Y11938000D03*
X2540000Y24765000D03*
X3810000Y46100000D03*
X-4318000Y12671000D03*
X8445500Y22733000D03*
%TO.N,/~SS*%
X9906000Y30607000D03*
X444500Y13652500D03*
X1460500Y21526500D03*
%TO.N,/CLK*%
X9906000Y28067000D03*
X3683000Y21145500D03*
%TO.N,/SDI*%
X1905000Y14414500D03*
X5905500Y24701500D03*
%TO.N,/~SHDN*%
X-9906000Y30607000D03*
X-381000Y12890500D03*
X-2349500Y22669500D03*
%TO.N,/~RS*%
X-2984500Y21116500D03*
X-9906000Y28067000D03*
X800000Y16800000D03*
%TO.N,+5V*%
X-9525000Y22640500D03*
X9937750Y22701250D03*
X254000Y21463000D03*
X-4508500Y22225000D03*
X-9900000Y42900000D03*
%TO.N,/SDO2*%
X1873250Y15525750D03*
%TO.N,+3V3*%
X-6604000Y38227000D03*
X1270000Y46100000D03*
X4000500Y25715000D03*
%TO.N,Net-(A1-Pad15)*%
X-1400000Y46100000D03*
%TO.N,Net-(A1-Pad16)*%
X-3800000Y46100000D03*
%TO.N,Net-(D1-Pad2)*%
X7366000Y23876000D03*
%TO.N,Net-(A1-Pad14)*%
X-7300000Y47500000D03*
X6900000Y47000000D03*
%TO.N,/RELAY1*%
X-9906000Y35687000D03*
%TO.N,/RELAY2*%
X-9906000Y33147000D03*
%TO.N,/SDO1_3V*%
X9906000Y33147000D03*
%TO.N,/SDO1_5V*%
X2540000Y22288500D03*
%TD*%
D12*
%TO.N,GND*%
X-8047141Y47726643D02*
X-8077000Y47576528D01*
X-8077000Y47423472D01*
X-8047141Y47273357D01*
X-7988569Y47131952D01*
X-7903536Y47004691D01*
X-7795309Y46896464D01*
X-7668048Y46811431D01*
X-7526643Y46752859D01*
X-7376528Y46723000D01*
X-7223472Y46723000D01*
X-7073357Y46752859D01*
X-6931952Y46811431D01*
X-6804691Y46896464D01*
X-6696464Y47004691D01*
X-6611431Y47131952D01*
X-6552859Y47273357D01*
X-6523000Y47423472D01*
X-6523000Y47576528D01*
X-6552859Y47726643D01*
X-6572061Y47773000D01*
X6803362Y47773000D01*
X6673357Y47747141D01*
X6531952Y47688569D01*
X6404691Y47603536D01*
X6296464Y47495309D01*
X6211431Y47368048D01*
X6152859Y47226643D01*
X6123000Y47076528D01*
X6123000Y46923472D01*
X6152859Y46773357D01*
X6211431Y46631952D01*
X6296464Y46504691D01*
X6404691Y46396464D01*
X6531952Y46311431D01*
X6673357Y46252859D01*
X6823472Y46223000D01*
X6976528Y46223000D01*
X7126643Y46252859D01*
X7268048Y46311431D01*
X7395309Y46396464D01*
X7503536Y46504691D01*
X7588569Y46631952D01*
X7647141Y46773357D01*
X7677000Y46923472D01*
X7677000Y47076528D01*
X7647141Y47226643D01*
X7588569Y47368048D01*
X7503536Y47495309D01*
X7395309Y47603536D01*
X7268048Y47688569D01*
X7126643Y47747141D01*
X6996638Y47773000D01*
X10373000Y47773000D01*
X10373000Y38849451D01*
X10274048Y38915569D01*
X10132643Y38974141D01*
X9982528Y39004000D01*
X9829472Y39004000D01*
X9679357Y38974141D01*
X9537952Y38915569D01*
X9410691Y38830536D01*
X9302464Y38722309D01*
X9217431Y38595048D01*
X9158859Y38453643D01*
X9129000Y38303528D01*
X9129000Y38150472D01*
X9158859Y38000357D01*
X9217431Y37858952D01*
X9302464Y37731691D01*
X9410691Y37623464D01*
X9537952Y37538431D01*
X9679357Y37479859D01*
X9829472Y37450000D01*
X9982528Y37450000D01*
X10132643Y37479859D01*
X10274048Y37538431D01*
X10373000Y37604549D01*
X10373000Y36309451D01*
X10274048Y36375569D01*
X10132643Y36434141D01*
X9982528Y36464000D01*
X9829472Y36464000D01*
X9679357Y36434141D01*
X9537952Y36375569D01*
X9410691Y36290536D01*
X9302464Y36182309D01*
X9217431Y36055048D01*
X9158859Y35913643D01*
X9129000Y35763528D01*
X9129000Y35610472D01*
X9158859Y35460357D01*
X9217431Y35318952D01*
X9302464Y35191691D01*
X9410691Y35083464D01*
X9537952Y34998431D01*
X9679357Y34939859D01*
X9829472Y34910000D01*
X9982528Y34910000D01*
X10132643Y34939859D01*
X10274048Y34998431D01*
X10373000Y35064549D01*
X10373000Y33769451D01*
X10274048Y33835569D01*
X10132643Y33894141D01*
X9982528Y33924000D01*
X9829472Y33924000D01*
X9679357Y33894141D01*
X9537952Y33835569D01*
X9410691Y33750536D01*
X9302464Y33642309D01*
X9217431Y33515048D01*
X9158859Y33373643D01*
X9129000Y33223528D01*
X9129000Y33070472D01*
X9158859Y32920357D01*
X9217431Y32778952D01*
X9302464Y32651691D01*
X9410691Y32543464D01*
X9537952Y32458431D01*
X9679357Y32399859D01*
X9829472Y32370000D01*
X9982528Y32370000D01*
X10132643Y32399859D01*
X10274048Y32458431D01*
X10373000Y32524549D01*
X10373000Y31229451D01*
X10274048Y31295569D01*
X10132643Y31354141D01*
X9982528Y31384000D01*
X9829472Y31384000D01*
X9679357Y31354141D01*
X9537952Y31295569D01*
X9410691Y31210536D01*
X9302464Y31102309D01*
X9217431Y30975048D01*
X9158859Y30833643D01*
X9129000Y30683528D01*
X9129000Y30530472D01*
X9158859Y30380357D01*
X9217431Y30238952D01*
X9302464Y30111691D01*
X9410691Y30003464D01*
X9537952Y29918431D01*
X9679357Y29859859D01*
X9829472Y29830000D01*
X9982528Y29830000D01*
X10132643Y29859859D01*
X10274048Y29918431D01*
X10373000Y29984549D01*
X10373000Y28689451D01*
X10274048Y28755569D01*
X10132643Y28814141D01*
X9982528Y28844000D01*
X9829472Y28844000D01*
X9679357Y28814141D01*
X9537952Y28755569D01*
X9410691Y28670536D01*
X9302464Y28562309D01*
X9217431Y28435048D01*
X9158859Y28293643D01*
X9129000Y28143528D01*
X9129000Y27990472D01*
X9158859Y27840357D01*
X9217431Y27698952D01*
X9302464Y27571691D01*
X9410691Y27463464D01*
X9537952Y27378431D01*
X9679357Y27319859D01*
X9829472Y27290000D01*
X9982528Y27290000D01*
X10132643Y27319859D01*
X10274048Y27378431D01*
X10373000Y27444549D01*
X10373000Y23344916D01*
X10305798Y23389819D01*
X10164393Y23448391D01*
X10014278Y23478250D01*
X9861222Y23478250D01*
X9711107Y23448391D01*
X9569702Y23389819D01*
X9442441Y23304786D01*
X9334214Y23196559D01*
X9249181Y23069298D01*
X9190609Y22927893D01*
X9160750Y22777778D01*
X9160750Y22624722D01*
X9190609Y22474607D01*
X9249181Y22333202D01*
X9334214Y22205941D01*
X9442441Y22097714D01*
X9569702Y22012681D01*
X9711107Y21954109D01*
X9861222Y21924250D01*
X10014278Y21924250D01*
X10164393Y21954109D01*
X10305798Y22012681D01*
X10373000Y22057584D01*
X10373000Y6127000D01*
X-10373000Y6127000D01*
X-10373000Y12967028D01*
X-1158000Y12967028D01*
X-1158000Y12813972D01*
X-1128141Y12663857D01*
X-1069569Y12522452D01*
X-984536Y12395191D01*
X-876309Y12286964D01*
X-749048Y12201931D01*
X-607643Y12143359D01*
X-457528Y12113500D01*
X-304472Y12113500D01*
X-154357Y12143359D01*
X-12952Y12201931D01*
X114309Y12286964D01*
X222536Y12395191D01*
X307569Y12522452D01*
X366141Y12663857D01*
X396000Y12813972D01*
X396000Y12875500D01*
X521028Y12875500D01*
X671143Y12905359D01*
X812548Y12963931D01*
X939809Y13048964D01*
X1048036Y13157191D01*
X1133069Y13284452D01*
X1191641Y13425857D01*
X1221500Y13575972D01*
X1221500Y13729028D01*
X1191641Y13879143D01*
X1133069Y14020548D01*
X1048036Y14147809D01*
X939809Y14256036D01*
X812548Y14341069D01*
X671143Y14399641D01*
X521028Y14429500D01*
X367972Y14429500D01*
X217857Y14399641D01*
X76452Y14341069D01*
X-50809Y14256036D01*
X-159036Y14147809D01*
X-244069Y14020548D01*
X-302641Y13879143D01*
X-332500Y13729028D01*
X-332500Y13667500D01*
X-457528Y13667500D01*
X-607643Y13637641D01*
X-749048Y13579069D01*
X-876309Y13494036D01*
X-984536Y13385809D01*
X-1069569Y13258548D01*
X-1128141Y13117143D01*
X-1158000Y12967028D01*
X-10373000Y12967028D01*
X-10373000Y15602278D01*
X1096250Y15602278D01*
X1096250Y15449222D01*
X1126109Y15299107D01*
X1184681Y15157702D01*
X1269714Y15030441D01*
X1345905Y14954250D01*
X1301464Y14909809D01*
X1216431Y14782548D01*
X1157859Y14641143D01*
X1128000Y14491028D01*
X1128000Y14337972D01*
X1157859Y14187857D01*
X1216431Y14046452D01*
X1301464Y13919191D01*
X1409691Y13810964D01*
X1536952Y13725931D01*
X1678357Y13667359D01*
X1828472Y13637500D01*
X1981528Y13637500D01*
X2131643Y13667359D01*
X2273048Y13725931D01*
X2400309Y13810964D01*
X2508536Y13919191D01*
X2593569Y14046452D01*
X2652141Y14187857D01*
X2682000Y14337972D01*
X2682000Y14491028D01*
X2652141Y14641143D01*
X2593569Y14782548D01*
X2508536Y14909809D01*
X2432345Y14986000D01*
X2476786Y15030441D01*
X2561819Y15157702D01*
X2620391Y15299107D01*
X2650250Y15449222D01*
X2650250Y15602278D01*
X2620391Y15752393D01*
X2561819Y15893798D01*
X2476786Y16021059D01*
X2368559Y16129286D01*
X2241298Y16214319D01*
X2099893Y16272891D01*
X1949778Y16302750D01*
X1796722Y16302750D01*
X1646607Y16272891D01*
X1505202Y16214319D01*
X1377941Y16129286D01*
X1269714Y16021059D01*
X1184681Y15893798D01*
X1126109Y15752393D01*
X1096250Y15602278D01*
X-10373000Y15602278D01*
X-10373000Y16876528D01*
X23000Y16876528D01*
X23000Y16723472D01*
X52859Y16573357D01*
X111431Y16431952D01*
X196464Y16304691D01*
X304691Y16196464D01*
X431952Y16111431D01*
X573357Y16052859D01*
X723472Y16023000D01*
X876528Y16023000D01*
X1026643Y16052859D01*
X1168048Y16111431D01*
X1295309Y16196464D01*
X1403536Y16304691D01*
X1488569Y16431952D01*
X1547141Y16573357D01*
X1577000Y16723472D01*
X1577000Y16876528D01*
X1547141Y17026643D01*
X1488569Y17168048D01*
X1403536Y17295309D01*
X1295309Y17403536D01*
X1168048Y17488569D01*
X1026643Y17547141D01*
X876528Y17577000D01*
X723472Y17577000D01*
X573357Y17547141D01*
X431952Y17488569D01*
X304691Y17403536D01*
X196464Y17295309D01*
X111431Y17168048D01*
X52859Y17026643D01*
X23000Y16876528D01*
X-10373000Y16876528D01*
X-10373000Y21193028D01*
X-3761500Y21193028D01*
X-3761500Y21039972D01*
X-3731641Y20889857D01*
X-3673069Y20748452D01*
X-3588036Y20621191D01*
X-3479809Y20512964D01*
X-3352548Y20427931D01*
X-3211143Y20369359D01*
X-3061028Y20339500D01*
X-2907972Y20339500D01*
X-2757857Y20369359D01*
X-2616452Y20427931D01*
X-2489191Y20512964D01*
X-2380964Y20621191D01*
X-2295931Y20748452D01*
X-2237359Y20889857D01*
X-2207500Y21039972D01*
X-2207500Y21193028D01*
X-2237359Y21343143D01*
X-2295931Y21484548D01*
X-2332667Y21539528D01*
X-523000Y21539528D01*
X-523000Y21386472D01*
X-493141Y21236357D01*
X-434569Y21094952D01*
X-349536Y20967691D01*
X-241309Y20859464D01*
X-114048Y20774431D01*
X27357Y20715859D01*
X177472Y20686000D01*
X330528Y20686000D01*
X480643Y20715859D01*
X622048Y20774431D01*
X749309Y20859464D01*
X857536Y20967691D01*
X882741Y21005414D01*
X965191Y20922964D01*
X1092452Y20837931D01*
X1233857Y20779359D01*
X1383972Y20749500D01*
X1537028Y20749500D01*
X1687143Y20779359D01*
X1828548Y20837931D01*
X1955809Y20922964D01*
X2064036Y21031191D01*
X2149069Y21158452D01*
X2175403Y21222028D01*
X2906000Y21222028D01*
X2906000Y21068972D01*
X2935859Y20918857D01*
X2994431Y20777452D01*
X3079464Y20650191D01*
X3187691Y20541964D01*
X3314952Y20456931D01*
X3456357Y20398359D01*
X3606472Y20368500D01*
X3759528Y20368500D01*
X3909643Y20398359D01*
X4051048Y20456931D01*
X4178309Y20541964D01*
X4286536Y20650191D01*
X4371569Y20777452D01*
X4430141Y20918857D01*
X4460000Y21068972D01*
X4460000Y21222028D01*
X4430141Y21372143D01*
X4371569Y21513548D01*
X4286536Y21640809D01*
X4178309Y21749036D01*
X4051048Y21834069D01*
X3909643Y21892641D01*
X3759528Y21922500D01*
X3606472Y21922500D01*
X3456357Y21892641D01*
X3314952Y21834069D01*
X3187691Y21749036D01*
X3079464Y21640809D01*
X2994431Y21513548D01*
X2935859Y21372143D01*
X2906000Y21222028D01*
X2175403Y21222028D01*
X2207641Y21299857D01*
X2237500Y21449972D01*
X2237500Y21572780D01*
X2313357Y21541359D01*
X2463472Y21511500D01*
X2616528Y21511500D01*
X2766643Y21541359D01*
X2908048Y21599931D01*
X3035309Y21684964D01*
X3143536Y21793191D01*
X3228569Y21920452D01*
X3287141Y22061857D01*
X3317000Y22211972D01*
X3317000Y22365028D01*
X3287141Y22515143D01*
X3228569Y22656548D01*
X3143536Y22783809D01*
X3035309Y22892036D01*
X2908048Y22977069D01*
X2766643Y23035641D01*
X2616528Y23065500D01*
X2463472Y23065500D01*
X2313357Y23035641D01*
X2171952Y22977069D01*
X2044691Y22892036D01*
X1936464Y22783809D01*
X1851431Y22656548D01*
X1792859Y22515143D01*
X1763000Y22365028D01*
X1763000Y22242220D01*
X1687143Y22273641D01*
X1537028Y22303500D01*
X1383972Y22303500D01*
X1233857Y22273641D01*
X1092452Y22215069D01*
X965191Y22130036D01*
X856964Y22021809D01*
X831759Y21984086D01*
X749309Y22066536D01*
X622048Y22151569D01*
X480643Y22210141D01*
X330528Y22240000D01*
X177472Y22240000D01*
X27357Y22210141D01*
X-114048Y22151569D01*
X-241309Y22066536D01*
X-349536Y21958309D01*
X-434569Y21831048D01*
X-493141Y21689643D01*
X-523000Y21539528D01*
X-2332667Y21539528D01*
X-2380964Y21611809D01*
X-2489191Y21720036D01*
X-2616452Y21805069D01*
X-2757857Y21863641D01*
X-2907972Y21893500D01*
X-3061028Y21893500D01*
X-3211143Y21863641D01*
X-3352548Y21805069D01*
X-3479809Y21720036D01*
X-3588036Y21611809D01*
X-3673069Y21484548D01*
X-3731641Y21343143D01*
X-3761500Y21193028D01*
X-10373000Y21193028D01*
X-10373000Y22717028D01*
X-10302000Y22717028D01*
X-10302000Y22563972D01*
X-10272141Y22413857D01*
X-10213569Y22272452D01*
X-10128536Y22145191D01*
X-10020309Y22036964D01*
X-9893048Y21951931D01*
X-9751643Y21893359D01*
X-9601528Y21863500D01*
X-9448472Y21863500D01*
X-9298357Y21893359D01*
X-9156952Y21951931D01*
X-9029691Y22036964D01*
X-8921464Y22145191D01*
X-8836431Y22272452D01*
X-8824388Y22301528D01*
X-5285500Y22301528D01*
X-5285500Y22148472D01*
X-5255641Y21998357D01*
X-5197069Y21856952D01*
X-5112036Y21729691D01*
X-5003809Y21621464D01*
X-4876548Y21536431D01*
X-4735143Y21477859D01*
X-4585028Y21448000D01*
X-4431972Y21448000D01*
X-4281857Y21477859D01*
X-4140452Y21536431D01*
X-4013191Y21621464D01*
X-3904964Y21729691D01*
X-3819931Y21856952D01*
X-3761359Y21998357D01*
X-3731500Y22148472D01*
X-3731500Y22301528D01*
X-3761359Y22451643D01*
X-3819931Y22593048D01*
X-3904964Y22720309D01*
X-3930683Y22746028D01*
X-3126500Y22746028D01*
X-3126500Y22592972D01*
X-3096641Y22442857D01*
X-3038069Y22301452D01*
X-2953036Y22174191D01*
X-2844809Y22065964D01*
X-2717548Y21980931D01*
X-2576143Y21922359D01*
X-2426028Y21892500D01*
X-2272972Y21892500D01*
X-2122857Y21922359D01*
X-1981452Y21980931D01*
X-1854191Y22065964D01*
X-1745964Y22174191D01*
X-1660931Y22301452D01*
X-1602359Y22442857D01*
X-1572500Y22592972D01*
X-1572500Y22746028D01*
X-1602359Y22896143D01*
X-1660931Y23037548D01*
X-1745964Y23164809D01*
X-1854191Y23273036D01*
X-1981452Y23358069D01*
X-2122857Y23416641D01*
X-2272972Y23446500D01*
X-2426028Y23446500D01*
X-2576143Y23416641D01*
X-2717548Y23358069D01*
X-2844809Y23273036D01*
X-2953036Y23164809D01*
X-3038069Y23037548D01*
X-3096641Y22896143D01*
X-3126500Y22746028D01*
X-3930683Y22746028D01*
X-4013191Y22828536D01*
X-4140452Y22913569D01*
X-4281857Y22972141D01*
X-4431972Y23002000D01*
X-4585028Y23002000D01*
X-4735143Y22972141D01*
X-4876548Y22913569D01*
X-5003809Y22828536D01*
X-5112036Y22720309D01*
X-5197069Y22593048D01*
X-5255641Y22451643D01*
X-5285500Y22301528D01*
X-8824388Y22301528D01*
X-8777859Y22413857D01*
X-8748000Y22563972D01*
X-8748000Y22717028D01*
X-8777859Y22867143D01*
X-8836431Y23008548D01*
X-8921464Y23135809D01*
X-9029691Y23244036D01*
X-9156952Y23329069D01*
X-9298357Y23387641D01*
X-9448472Y23417500D01*
X-9601528Y23417500D01*
X-9751643Y23387641D01*
X-9893048Y23329069D01*
X-10020309Y23244036D01*
X-10128536Y23135809D01*
X-10213569Y23008548D01*
X-10272141Y22867143D01*
X-10302000Y22717028D01*
X-10373000Y22717028D01*
X-10373000Y24778028D01*
X5128500Y24778028D01*
X5128500Y24624972D01*
X5158359Y24474857D01*
X5216931Y24333452D01*
X5301964Y24206191D01*
X5410191Y24097964D01*
X5537452Y24012931D01*
X5678857Y23954359D01*
X5828972Y23924500D01*
X5982028Y23924500D01*
X6122937Y23952528D01*
X6589000Y23952528D01*
X6589000Y23799472D01*
X6618859Y23649357D01*
X6677431Y23507952D01*
X6762464Y23380691D01*
X6870691Y23272464D01*
X6997952Y23187431D01*
X7139357Y23128859D01*
X7289472Y23099000D01*
X7442528Y23099000D01*
X7592643Y23128859D01*
X7734048Y23187431D01*
X7861309Y23272464D01*
X7969536Y23380691D01*
X8054569Y23507952D01*
X8113141Y23649357D01*
X8143000Y23799472D01*
X8143000Y23952528D01*
X8113141Y24102643D01*
X8054569Y24244048D01*
X7969536Y24371309D01*
X7861309Y24479536D01*
X7734048Y24564569D01*
X7592643Y24623141D01*
X7442528Y24653000D01*
X7289472Y24653000D01*
X7139357Y24623141D01*
X6997952Y24564569D01*
X6870691Y24479536D01*
X6762464Y24371309D01*
X6677431Y24244048D01*
X6618859Y24102643D01*
X6589000Y23952528D01*
X6122937Y23952528D01*
X6132143Y23954359D01*
X6273548Y24012931D01*
X6400809Y24097964D01*
X6509036Y24206191D01*
X6594069Y24333452D01*
X6652641Y24474857D01*
X6682500Y24624972D01*
X6682500Y24778028D01*
X6652641Y24928143D01*
X6594069Y25069548D01*
X6509036Y25196809D01*
X6400809Y25305036D01*
X6273548Y25390069D01*
X6132143Y25448641D01*
X5982028Y25478500D01*
X5828972Y25478500D01*
X5678857Y25448641D01*
X5537452Y25390069D01*
X5410191Y25305036D01*
X5301964Y25196809D01*
X5216931Y25069548D01*
X5158359Y24928143D01*
X5128500Y24778028D01*
X-10373000Y24778028D01*
X-10373000Y25791528D01*
X3223500Y25791528D01*
X3223500Y25638472D01*
X3253359Y25488357D01*
X3311931Y25346952D01*
X3396964Y25219691D01*
X3505191Y25111464D01*
X3632452Y25026431D01*
X3773857Y24967859D01*
X3923972Y24938000D01*
X4077028Y24938000D01*
X4227143Y24967859D01*
X4368548Y25026431D01*
X4495809Y25111464D01*
X4604036Y25219691D01*
X4689069Y25346952D01*
X4747641Y25488357D01*
X4777500Y25638472D01*
X4777500Y25791528D01*
X4747641Y25941643D01*
X4689069Y26083048D01*
X4604036Y26210309D01*
X4495809Y26318536D01*
X4368548Y26403569D01*
X4227143Y26462141D01*
X4077028Y26492000D01*
X3923972Y26492000D01*
X3773857Y26462141D01*
X3632452Y26403569D01*
X3505191Y26318536D01*
X3396964Y26210309D01*
X3311931Y26083048D01*
X3253359Y25941643D01*
X3223500Y25791528D01*
X-10373000Y25791528D01*
X-10373000Y27444549D01*
X-10274048Y27378431D01*
X-10132643Y27319859D01*
X-9982528Y27290000D01*
X-9829472Y27290000D01*
X-9679357Y27319859D01*
X-9537952Y27378431D01*
X-9410691Y27463464D01*
X-9302464Y27571691D01*
X-9217431Y27698952D01*
X-9158859Y27840357D01*
X-9129000Y27990472D01*
X-9129000Y28143528D01*
X-9158859Y28293643D01*
X-9217431Y28435048D01*
X-9302464Y28562309D01*
X-9410691Y28670536D01*
X-9537952Y28755569D01*
X-9679357Y28814141D01*
X-9829472Y28844000D01*
X-9982528Y28844000D01*
X-10132643Y28814141D01*
X-10274048Y28755569D01*
X-10373000Y28689451D01*
X-10373000Y29984549D01*
X-10274048Y29918431D01*
X-10132643Y29859859D01*
X-9982528Y29830000D01*
X-9829472Y29830000D01*
X-9679357Y29859859D01*
X-9537952Y29918431D01*
X-9410691Y30003464D01*
X-9302464Y30111691D01*
X-9217431Y30238952D01*
X-9158859Y30380357D01*
X-9129000Y30530472D01*
X-9129000Y30683528D01*
X-9158859Y30833643D01*
X-9217431Y30975048D01*
X-9302464Y31102309D01*
X-9410691Y31210536D01*
X-9537952Y31295569D01*
X-9679357Y31354141D01*
X-9829472Y31384000D01*
X-9982528Y31384000D01*
X-10132643Y31354141D01*
X-10274048Y31295569D01*
X-10373000Y31229451D01*
X-10373000Y32524549D01*
X-10274048Y32458431D01*
X-10132643Y32399859D01*
X-9982528Y32370000D01*
X-9829472Y32370000D01*
X-9679357Y32399859D01*
X-9537952Y32458431D01*
X-9410691Y32543464D01*
X-9302464Y32651691D01*
X-9217431Y32778952D01*
X-9158859Y32920357D01*
X-9146823Y32980872D01*
X-7389500Y32980872D01*
X-7387830Y32963913D01*
X-7387873Y32957716D01*
X-7387342Y32952304D01*
X-7366941Y32758207D01*
X-7359842Y32723621D01*
X-7353228Y32688950D01*
X-7351656Y32683744D01*
X-7293944Y32497306D01*
X-7280258Y32464748D01*
X-7267039Y32432031D01*
X-7264486Y32427229D01*
X-7171662Y32255552D01*
X-7151889Y32226237D01*
X-7132589Y32196744D01*
X-7129160Y32192539D01*
X-7129154Y32192531D01*
X-7129147Y32192524D01*
X-7004749Y32042152D01*
X-6979689Y32017267D01*
X-6955000Y31992055D01*
X-6950809Y31988588D01*
X-6799567Y31865238D01*
X-6770164Y31845703D01*
X-6741034Y31825757D01*
X-6736251Y31823171D01*
X-6563928Y31731546D01*
X-6531311Y31718102D01*
X-6498843Y31704186D01*
X-6493648Y31702578D01*
X-6389500Y31671134D01*
X-6389499Y28380871D01*
X-6387830Y28363921D01*
X-6387873Y28357716D01*
X-6387342Y28352304D01*
X-6366941Y28158207D01*
X-6359842Y28123621D01*
X-6353228Y28088950D01*
X-6351656Y28083744D01*
X-6293944Y27897306D01*
X-6280258Y27864748D01*
X-6267039Y27832031D01*
X-6264486Y27827229D01*
X-6171662Y27655552D01*
X-6151889Y27626237D01*
X-6132589Y27596744D01*
X-6129160Y27592539D01*
X-6129154Y27592531D01*
X-6129147Y27592524D01*
X-6127000Y27589929D01*
X-6127000Y27400000D01*
X-6124560Y27375224D01*
X-6117333Y27351399D01*
X-6105597Y27329443D01*
X-6089803Y27310197D01*
X-6070557Y27294403D01*
X-6048601Y27282667D01*
X-6024776Y27275440D01*
X-6000000Y27273000D01*
X-5809084Y27273000D01*
X-5799567Y27265238D01*
X-5770164Y27245703D01*
X-5741034Y27225757D01*
X-5736251Y27223171D01*
X-5563928Y27131546D01*
X-5531311Y27118102D01*
X-5498843Y27104186D01*
X-5493648Y27102578D01*
X-5306811Y27046169D01*
X-5272187Y27039313D01*
X-5237651Y27031972D01*
X-5232243Y27031404D01*
X-5038009Y27012359D01*
X-5038005Y27012359D01*
X-5019129Y27010500D01*
X5019129Y27010500D01*
X5036088Y27012170D01*
X5042284Y27012127D01*
X5047696Y27012658D01*
X5241793Y27033059D01*
X5276379Y27040158D01*
X5311050Y27046772D01*
X5316254Y27048343D01*
X5316260Y27048345D01*
X5502694Y27106056D01*
X5535252Y27119742D01*
X5567969Y27132961D01*
X5572771Y27135514D01*
X5744448Y27228338D01*
X5773763Y27248111D01*
X5803256Y27267411D01*
X5807461Y27270840D01*
X5807469Y27270846D01*
X5807476Y27270853D01*
X5810071Y27273000D01*
X6000000Y27273000D01*
X6024776Y27275440D01*
X6048601Y27282667D01*
X6070557Y27294403D01*
X6089803Y27310197D01*
X6105597Y27329443D01*
X6117333Y27351399D01*
X6124560Y27375224D01*
X6127000Y27400000D01*
X6127000Y27590916D01*
X6134762Y27600433D01*
X6154297Y27629836D01*
X6174243Y27658966D01*
X6176829Y27663749D01*
X6268454Y27836072D01*
X6281898Y27868689D01*
X6295814Y27901157D01*
X6297422Y27906352D01*
X6353831Y28093189D01*
X6360687Y28127813D01*
X6368028Y28162349D01*
X6368596Y28167757D01*
X6387641Y28361991D01*
X6387641Y28361995D01*
X6389500Y28380871D01*
X6389500Y31671017D01*
X6502694Y31706056D01*
X6535252Y31719742D01*
X6567969Y31732961D01*
X6572771Y31735514D01*
X6744448Y31828338D01*
X6773763Y31848111D01*
X6803256Y31867411D01*
X6807461Y31870840D01*
X6807469Y31870846D01*
X6807476Y31870853D01*
X6957848Y31995251D01*
X6982733Y32020311D01*
X7007945Y32045000D01*
X7011412Y32049191D01*
X7134762Y32200433D01*
X7154297Y32229836D01*
X7174243Y32258966D01*
X7176829Y32263749D01*
X7268454Y32436072D01*
X7281898Y32468689D01*
X7295814Y32501157D01*
X7297422Y32506352D01*
X7353831Y32693189D01*
X7360687Y32727813D01*
X7368028Y32762349D01*
X7368596Y32767757D01*
X7387641Y32961991D01*
X7387641Y32961995D01*
X7389500Y32980871D01*
X7389500Y36019129D01*
X7387830Y36036088D01*
X7387873Y36042284D01*
X7387342Y36047696D01*
X7366941Y36241793D01*
X7359843Y36276373D01*
X7353228Y36311050D01*
X7351656Y36316256D01*
X7293944Y36502694D01*
X7280263Y36535238D01*
X7267039Y36567970D01*
X7264486Y36572771D01*
X7171661Y36744448D01*
X7151922Y36773713D01*
X7132589Y36803256D01*
X7129152Y36807470D01*
X7004748Y36957848D01*
X6979691Y36982731D01*
X6955000Y37007945D01*
X6950809Y37011412D01*
X6799567Y37134762D01*
X6770182Y37154285D01*
X6741035Y37174243D01*
X6736251Y37176829D01*
X6563929Y37268454D01*
X6531286Y37281909D01*
X6498843Y37295814D01*
X6493648Y37297422D01*
X6389500Y37328866D01*
X6389500Y44419129D01*
X6387830Y44436088D01*
X6387873Y44442284D01*
X6387342Y44447696D01*
X6366941Y44641793D01*
X6359843Y44676373D01*
X6353228Y44711050D01*
X6351656Y44716256D01*
X6293944Y44902694D01*
X6280263Y44935238D01*
X6267039Y44967970D01*
X6264486Y44972771D01*
X6171661Y45144448D01*
X6151922Y45173713D01*
X6132589Y45203256D01*
X6129152Y45207470D01*
X6127000Y45210071D01*
X6127000Y45400000D01*
X6124560Y45424776D01*
X6117333Y45448601D01*
X6105597Y45470557D01*
X6089803Y45489803D01*
X6070557Y45505597D01*
X6048601Y45517333D01*
X6024776Y45524560D01*
X6000000Y45527000D01*
X5809084Y45527000D01*
X5799567Y45534762D01*
X5770182Y45554285D01*
X5741035Y45574243D01*
X5736251Y45576829D01*
X5563929Y45668454D01*
X5531286Y45681909D01*
X5498843Y45695814D01*
X5493648Y45697422D01*
X5306812Y45753831D01*
X5272167Y45760691D01*
X5237651Y45768028D01*
X5232244Y45768596D01*
X5232242Y45768596D01*
X5038009Y45787641D01*
X5038005Y45787641D01*
X5019129Y45789500D01*
X1982406Y45789500D01*
X2017141Y45873357D01*
X2047000Y46023472D01*
X2047000Y46176528D01*
X2017141Y46326643D01*
X1958569Y46468048D01*
X1873536Y46595309D01*
X1765309Y46703536D01*
X1638048Y46788569D01*
X1496643Y46847141D01*
X1346528Y46877000D01*
X1193472Y46877000D01*
X1043357Y46847141D01*
X901952Y46788569D01*
X774691Y46703536D01*
X666464Y46595309D01*
X581431Y46468048D01*
X522859Y46326643D01*
X493000Y46176528D01*
X493000Y46023472D01*
X522859Y45873357D01*
X557594Y45789500D01*
X-687594Y45789500D01*
X-652859Y45873357D01*
X-623000Y46023472D01*
X-623000Y46176528D01*
X-652859Y46326643D01*
X-711431Y46468048D01*
X-796464Y46595309D01*
X-904691Y46703536D01*
X-1031952Y46788569D01*
X-1173357Y46847141D01*
X-1323472Y46877000D01*
X-1476528Y46877000D01*
X-1626643Y46847141D01*
X-1768048Y46788569D01*
X-1895309Y46703536D01*
X-2003536Y46595309D01*
X-2088569Y46468048D01*
X-2147141Y46326643D01*
X-2177000Y46176528D01*
X-2177000Y46023472D01*
X-2147141Y45873357D01*
X-2112406Y45789500D01*
X-3087594Y45789500D01*
X-3052859Y45873357D01*
X-3023000Y46023472D01*
X-3023000Y46176528D01*
X-3052859Y46326643D01*
X-3111431Y46468048D01*
X-3196464Y46595309D01*
X-3304691Y46703536D01*
X-3431952Y46788569D01*
X-3573357Y46847141D01*
X-3723472Y46877000D01*
X-3876528Y46877000D01*
X-4026643Y46847141D01*
X-4168048Y46788569D01*
X-4295309Y46703536D01*
X-4403536Y46595309D01*
X-4488569Y46468048D01*
X-4547141Y46326643D01*
X-4577000Y46176528D01*
X-4577000Y46023472D01*
X-4547141Y45873357D01*
X-4512406Y45789500D01*
X-5019129Y45789500D01*
X-5036088Y45787830D01*
X-5042284Y45787873D01*
X-5047696Y45787342D01*
X-5241793Y45766941D01*
X-5276373Y45759843D01*
X-5311050Y45753228D01*
X-5316254Y45751657D01*
X-5316260Y45751655D01*
X-5502694Y45693944D01*
X-5535238Y45680263D01*
X-5567970Y45667039D01*
X-5572771Y45664486D01*
X-5744448Y45571661D01*
X-5773713Y45551922D01*
X-5803256Y45532589D01*
X-5807470Y45529152D01*
X-5810071Y45527000D01*
X-6000000Y45527000D01*
X-6024776Y45524560D01*
X-6048601Y45517333D01*
X-6070557Y45505597D01*
X-6089803Y45489803D01*
X-6105597Y45470557D01*
X-6117333Y45448601D01*
X-6124560Y45424776D01*
X-6127000Y45400000D01*
X-6127000Y45209084D01*
X-6134762Y45199567D01*
X-6154285Y45170182D01*
X-6174243Y45141035D01*
X-6176829Y45136251D01*
X-6268454Y44963929D01*
X-6281909Y44931286D01*
X-6295814Y44898843D01*
X-6297422Y44893648D01*
X-6353831Y44706812D01*
X-6360691Y44672167D01*
X-6368028Y44637651D01*
X-6368596Y44632242D01*
X-6387641Y44438009D01*
X-6387641Y44437994D01*
X-6389499Y44419129D01*
X-6389500Y38976556D01*
X-6527472Y39004000D01*
X-6680528Y39004000D01*
X-6830643Y38974141D01*
X-6972048Y38915569D01*
X-7099309Y38830536D01*
X-7207536Y38722309D01*
X-7292569Y38595048D01*
X-7351141Y38453643D01*
X-7381000Y38303528D01*
X-7381000Y38150472D01*
X-7351141Y38000357D01*
X-7292569Y37858952D01*
X-7207536Y37731691D01*
X-7099309Y37623464D01*
X-6972048Y37538431D01*
X-6830643Y37479859D01*
X-6680528Y37450000D01*
X-6527472Y37450000D01*
X-6389500Y37477444D01*
X-6389500Y37328983D01*
X-6502694Y37293944D01*
X-6535238Y37280263D01*
X-6567970Y37267039D01*
X-6572771Y37264486D01*
X-6744448Y37171661D01*
X-6773713Y37151922D01*
X-6803256Y37132589D01*
X-6807470Y37129152D01*
X-6957848Y37004748D01*
X-6982731Y36979691D01*
X-7007945Y36955000D01*
X-7011412Y36950809D01*
X-7134762Y36799567D01*
X-7154285Y36770182D01*
X-7174243Y36741035D01*
X-7176829Y36736251D01*
X-7268454Y36563929D01*
X-7281909Y36531286D01*
X-7295814Y36498843D01*
X-7297422Y36493648D01*
X-7353831Y36306812D01*
X-7360691Y36272167D01*
X-7368028Y36237651D01*
X-7368596Y36232242D01*
X-7387641Y36038009D01*
X-7387641Y36037994D01*
X-7389499Y36019129D01*
X-7389500Y32980872D01*
X-9146823Y32980872D01*
X-9129000Y33070472D01*
X-9129000Y33223528D01*
X-9158859Y33373643D01*
X-9217431Y33515048D01*
X-9302464Y33642309D01*
X-9410691Y33750536D01*
X-9537952Y33835569D01*
X-9679357Y33894141D01*
X-9829472Y33924000D01*
X-9982528Y33924000D01*
X-10132643Y33894141D01*
X-10274048Y33835569D01*
X-10373000Y33769451D01*
X-10373000Y35064549D01*
X-10274048Y34998431D01*
X-10132643Y34939859D01*
X-9982528Y34910000D01*
X-9829472Y34910000D01*
X-9679357Y34939859D01*
X-9537952Y34998431D01*
X-9410691Y35083464D01*
X-9302464Y35191691D01*
X-9217431Y35318952D01*
X-9158859Y35460357D01*
X-9129000Y35610472D01*
X-9129000Y35763528D01*
X-9158859Y35913643D01*
X-9217431Y36055048D01*
X-9302464Y36182309D01*
X-9410691Y36290536D01*
X-9537952Y36375569D01*
X-9679357Y36434141D01*
X-9829472Y36464000D01*
X-9982528Y36464000D01*
X-10132643Y36434141D01*
X-10274048Y36375569D01*
X-10373000Y36309451D01*
X-10373000Y42281558D01*
X-10268048Y42211431D01*
X-10126643Y42152859D01*
X-9976528Y42123000D01*
X-9823472Y42123000D01*
X-9673357Y42152859D01*
X-9531952Y42211431D01*
X-9404691Y42296464D01*
X-9296464Y42404691D01*
X-9211431Y42531952D01*
X-9152859Y42673357D01*
X-9123000Y42823472D01*
X-9123000Y42976528D01*
X-9152859Y43126643D01*
X-9211431Y43268048D01*
X-9296464Y43395309D01*
X-9404691Y43503536D01*
X-9531952Y43588569D01*
X-9673357Y43647141D01*
X-9823472Y43677000D01*
X-9976528Y43677000D01*
X-10126643Y43647141D01*
X-10268048Y43588569D01*
X-10373000Y43518442D01*
X-10373000Y47773000D01*
X-8027939Y47773000D01*
X-8047141Y47726643D01*
%TA.AperFunction,Conductor*%
D13*
G36*
X-8047141Y47726643D02*
G01*
X-8077000Y47576528D01*
X-8077000Y47423472D01*
X-8047141Y47273357D01*
X-7988569Y47131952D01*
X-7903536Y47004691D01*
X-7795309Y46896464D01*
X-7668048Y46811431D01*
X-7526643Y46752859D01*
X-7376528Y46723000D01*
X-7223472Y46723000D01*
X-7073357Y46752859D01*
X-6931952Y46811431D01*
X-6804691Y46896464D01*
X-6696464Y47004691D01*
X-6611431Y47131952D01*
X-6552859Y47273357D01*
X-6523000Y47423472D01*
X-6523000Y47576528D01*
X-6552859Y47726643D01*
X-6572061Y47773000D01*
X6803362Y47773000D01*
X6673357Y47747141D01*
X6531952Y47688569D01*
X6404691Y47603536D01*
X6296464Y47495309D01*
X6211431Y47368048D01*
X6152859Y47226643D01*
X6123000Y47076528D01*
X6123000Y46923472D01*
X6152859Y46773357D01*
X6211431Y46631952D01*
X6296464Y46504691D01*
X6404691Y46396464D01*
X6531952Y46311431D01*
X6673357Y46252859D01*
X6823472Y46223000D01*
X6976528Y46223000D01*
X7126643Y46252859D01*
X7268048Y46311431D01*
X7395309Y46396464D01*
X7503536Y46504691D01*
X7588569Y46631952D01*
X7647141Y46773357D01*
X7677000Y46923472D01*
X7677000Y47076528D01*
X7647141Y47226643D01*
X7588569Y47368048D01*
X7503536Y47495309D01*
X7395309Y47603536D01*
X7268048Y47688569D01*
X7126643Y47747141D01*
X6996638Y47773000D01*
X10373000Y47773000D01*
X10373000Y38849451D01*
X10274048Y38915569D01*
X10132643Y38974141D01*
X9982528Y39004000D01*
X9829472Y39004000D01*
X9679357Y38974141D01*
X9537952Y38915569D01*
X9410691Y38830536D01*
X9302464Y38722309D01*
X9217431Y38595048D01*
X9158859Y38453643D01*
X9129000Y38303528D01*
X9129000Y38150472D01*
X9158859Y38000357D01*
X9217431Y37858952D01*
X9302464Y37731691D01*
X9410691Y37623464D01*
X9537952Y37538431D01*
X9679357Y37479859D01*
X9829472Y37450000D01*
X9982528Y37450000D01*
X10132643Y37479859D01*
X10274048Y37538431D01*
X10373000Y37604549D01*
X10373000Y36309451D01*
X10274048Y36375569D01*
X10132643Y36434141D01*
X9982528Y36464000D01*
X9829472Y36464000D01*
X9679357Y36434141D01*
X9537952Y36375569D01*
X9410691Y36290536D01*
X9302464Y36182309D01*
X9217431Y36055048D01*
X9158859Y35913643D01*
X9129000Y35763528D01*
X9129000Y35610472D01*
X9158859Y35460357D01*
X9217431Y35318952D01*
X9302464Y35191691D01*
X9410691Y35083464D01*
X9537952Y34998431D01*
X9679357Y34939859D01*
X9829472Y34910000D01*
X9982528Y34910000D01*
X10132643Y34939859D01*
X10274048Y34998431D01*
X10373000Y35064549D01*
X10373000Y33769451D01*
X10274048Y33835569D01*
X10132643Y33894141D01*
X9982528Y33924000D01*
X9829472Y33924000D01*
X9679357Y33894141D01*
X9537952Y33835569D01*
X9410691Y33750536D01*
X9302464Y33642309D01*
X9217431Y33515048D01*
X9158859Y33373643D01*
X9129000Y33223528D01*
X9129000Y33070472D01*
X9158859Y32920357D01*
X9217431Y32778952D01*
X9302464Y32651691D01*
X9410691Y32543464D01*
X9537952Y32458431D01*
X9679357Y32399859D01*
X9829472Y32370000D01*
X9982528Y32370000D01*
X10132643Y32399859D01*
X10274048Y32458431D01*
X10373000Y32524549D01*
X10373000Y31229451D01*
X10274048Y31295569D01*
X10132643Y31354141D01*
X9982528Y31384000D01*
X9829472Y31384000D01*
X9679357Y31354141D01*
X9537952Y31295569D01*
X9410691Y31210536D01*
X9302464Y31102309D01*
X9217431Y30975048D01*
X9158859Y30833643D01*
X9129000Y30683528D01*
X9129000Y30530472D01*
X9158859Y30380357D01*
X9217431Y30238952D01*
X9302464Y30111691D01*
X9410691Y30003464D01*
X9537952Y29918431D01*
X9679357Y29859859D01*
X9829472Y29830000D01*
X9982528Y29830000D01*
X10132643Y29859859D01*
X10274048Y29918431D01*
X10373000Y29984549D01*
X10373000Y28689451D01*
X10274048Y28755569D01*
X10132643Y28814141D01*
X9982528Y28844000D01*
X9829472Y28844000D01*
X9679357Y28814141D01*
X9537952Y28755569D01*
X9410691Y28670536D01*
X9302464Y28562309D01*
X9217431Y28435048D01*
X9158859Y28293643D01*
X9129000Y28143528D01*
X9129000Y27990472D01*
X9158859Y27840357D01*
X9217431Y27698952D01*
X9302464Y27571691D01*
X9410691Y27463464D01*
X9537952Y27378431D01*
X9679357Y27319859D01*
X9829472Y27290000D01*
X9982528Y27290000D01*
X10132643Y27319859D01*
X10274048Y27378431D01*
X10373000Y27444549D01*
X10373000Y23344916D01*
X10305798Y23389819D01*
X10164393Y23448391D01*
X10014278Y23478250D01*
X9861222Y23478250D01*
X9711107Y23448391D01*
X9569702Y23389819D01*
X9442441Y23304786D01*
X9334214Y23196559D01*
X9249181Y23069298D01*
X9190609Y22927893D01*
X9160750Y22777778D01*
X9160750Y22624722D01*
X9190609Y22474607D01*
X9249181Y22333202D01*
X9334214Y22205941D01*
X9442441Y22097714D01*
X9569702Y22012681D01*
X9711107Y21954109D01*
X9861222Y21924250D01*
X10014278Y21924250D01*
X10164393Y21954109D01*
X10305798Y22012681D01*
X10373000Y22057584D01*
X10373000Y6127000D01*
X-10373000Y6127000D01*
X-10373000Y12967028D01*
X-1158000Y12967028D01*
X-1158000Y12813972D01*
X-1128141Y12663857D01*
X-1069569Y12522452D01*
X-984536Y12395191D01*
X-876309Y12286964D01*
X-749048Y12201931D01*
X-607643Y12143359D01*
X-457528Y12113500D01*
X-304472Y12113500D01*
X-154357Y12143359D01*
X-12952Y12201931D01*
X114309Y12286964D01*
X222536Y12395191D01*
X307569Y12522452D01*
X366141Y12663857D01*
X396000Y12813972D01*
X396000Y12875500D01*
X521028Y12875500D01*
X671143Y12905359D01*
X812548Y12963931D01*
X939809Y13048964D01*
X1048036Y13157191D01*
X1133069Y13284452D01*
X1191641Y13425857D01*
X1221500Y13575972D01*
X1221500Y13729028D01*
X1191641Y13879143D01*
X1133069Y14020548D01*
X1048036Y14147809D01*
X939809Y14256036D01*
X812548Y14341069D01*
X671143Y14399641D01*
X521028Y14429500D01*
X367972Y14429500D01*
X217857Y14399641D01*
X76452Y14341069D01*
X-50809Y14256036D01*
X-159036Y14147809D01*
X-244069Y14020548D01*
X-302641Y13879143D01*
X-332500Y13729028D01*
X-332500Y13667500D01*
X-457528Y13667500D01*
X-607643Y13637641D01*
X-749048Y13579069D01*
X-876309Y13494036D01*
X-984536Y13385809D01*
X-1069569Y13258548D01*
X-1128141Y13117143D01*
X-1158000Y12967028D01*
X-10373000Y12967028D01*
X-10373000Y15602278D01*
X1096250Y15602278D01*
X1096250Y15449222D01*
X1126109Y15299107D01*
X1184681Y15157702D01*
X1269714Y15030441D01*
X1345905Y14954250D01*
X1301464Y14909809D01*
X1216431Y14782548D01*
X1157859Y14641143D01*
X1128000Y14491028D01*
X1128000Y14337972D01*
X1157859Y14187857D01*
X1216431Y14046452D01*
X1301464Y13919191D01*
X1409691Y13810964D01*
X1536952Y13725931D01*
X1678357Y13667359D01*
X1828472Y13637500D01*
X1981528Y13637500D01*
X2131643Y13667359D01*
X2273048Y13725931D01*
X2400309Y13810964D01*
X2508536Y13919191D01*
X2593569Y14046452D01*
X2652141Y14187857D01*
X2682000Y14337972D01*
X2682000Y14491028D01*
X2652141Y14641143D01*
X2593569Y14782548D01*
X2508536Y14909809D01*
X2432345Y14986000D01*
X2476786Y15030441D01*
X2561819Y15157702D01*
X2620391Y15299107D01*
X2650250Y15449222D01*
X2650250Y15602278D01*
X2620391Y15752393D01*
X2561819Y15893798D01*
X2476786Y16021059D01*
X2368559Y16129286D01*
X2241298Y16214319D01*
X2099893Y16272891D01*
X1949778Y16302750D01*
X1796722Y16302750D01*
X1646607Y16272891D01*
X1505202Y16214319D01*
X1377941Y16129286D01*
X1269714Y16021059D01*
X1184681Y15893798D01*
X1126109Y15752393D01*
X1096250Y15602278D01*
X-10373000Y15602278D01*
X-10373000Y16876528D01*
X23000Y16876528D01*
X23000Y16723472D01*
X52859Y16573357D01*
X111431Y16431952D01*
X196464Y16304691D01*
X304691Y16196464D01*
X431952Y16111431D01*
X573357Y16052859D01*
X723472Y16023000D01*
X876528Y16023000D01*
X1026643Y16052859D01*
X1168048Y16111431D01*
X1295309Y16196464D01*
X1403536Y16304691D01*
X1488569Y16431952D01*
X1547141Y16573357D01*
X1577000Y16723472D01*
X1577000Y16876528D01*
X1547141Y17026643D01*
X1488569Y17168048D01*
X1403536Y17295309D01*
X1295309Y17403536D01*
X1168048Y17488569D01*
X1026643Y17547141D01*
X876528Y17577000D01*
X723472Y17577000D01*
X573357Y17547141D01*
X431952Y17488569D01*
X304691Y17403536D01*
X196464Y17295309D01*
X111431Y17168048D01*
X52859Y17026643D01*
X23000Y16876528D01*
X-10373000Y16876528D01*
X-10373000Y21193028D01*
X-3761500Y21193028D01*
X-3761500Y21039972D01*
X-3731641Y20889857D01*
X-3673069Y20748452D01*
X-3588036Y20621191D01*
X-3479809Y20512964D01*
X-3352548Y20427931D01*
X-3211143Y20369359D01*
X-3061028Y20339500D01*
X-2907972Y20339500D01*
X-2757857Y20369359D01*
X-2616452Y20427931D01*
X-2489191Y20512964D01*
X-2380964Y20621191D01*
X-2295931Y20748452D01*
X-2237359Y20889857D01*
X-2207500Y21039972D01*
X-2207500Y21193028D01*
X-2237359Y21343143D01*
X-2295931Y21484548D01*
X-2332667Y21539528D01*
X-523000Y21539528D01*
X-523000Y21386472D01*
X-493141Y21236357D01*
X-434569Y21094952D01*
X-349536Y20967691D01*
X-241309Y20859464D01*
X-114048Y20774431D01*
X27357Y20715859D01*
X177472Y20686000D01*
X330528Y20686000D01*
X480643Y20715859D01*
X622048Y20774431D01*
X749309Y20859464D01*
X857536Y20967691D01*
X882741Y21005414D01*
X965191Y20922964D01*
X1092452Y20837931D01*
X1233857Y20779359D01*
X1383972Y20749500D01*
X1537028Y20749500D01*
X1687143Y20779359D01*
X1828548Y20837931D01*
X1955809Y20922964D01*
X2064036Y21031191D01*
X2149069Y21158452D01*
X2175403Y21222028D01*
X2906000Y21222028D01*
X2906000Y21068972D01*
X2935859Y20918857D01*
X2994431Y20777452D01*
X3079464Y20650191D01*
X3187691Y20541964D01*
X3314952Y20456931D01*
X3456357Y20398359D01*
X3606472Y20368500D01*
X3759528Y20368500D01*
X3909643Y20398359D01*
X4051048Y20456931D01*
X4178309Y20541964D01*
X4286536Y20650191D01*
X4371569Y20777452D01*
X4430141Y20918857D01*
X4460000Y21068972D01*
X4460000Y21222028D01*
X4430141Y21372143D01*
X4371569Y21513548D01*
X4286536Y21640809D01*
X4178309Y21749036D01*
X4051048Y21834069D01*
X3909643Y21892641D01*
X3759528Y21922500D01*
X3606472Y21922500D01*
X3456357Y21892641D01*
X3314952Y21834069D01*
X3187691Y21749036D01*
X3079464Y21640809D01*
X2994431Y21513548D01*
X2935859Y21372143D01*
X2906000Y21222028D01*
X2175403Y21222028D01*
X2207641Y21299857D01*
X2237500Y21449972D01*
X2237500Y21572780D01*
X2313357Y21541359D01*
X2463472Y21511500D01*
X2616528Y21511500D01*
X2766643Y21541359D01*
X2908048Y21599931D01*
X3035309Y21684964D01*
X3143536Y21793191D01*
X3228569Y21920452D01*
X3287141Y22061857D01*
X3317000Y22211972D01*
X3317000Y22365028D01*
X3287141Y22515143D01*
X3228569Y22656548D01*
X3143536Y22783809D01*
X3035309Y22892036D01*
X2908048Y22977069D01*
X2766643Y23035641D01*
X2616528Y23065500D01*
X2463472Y23065500D01*
X2313357Y23035641D01*
X2171952Y22977069D01*
X2044691Y22892036D01*
X1936464Y22783809D01*
X1851431Y22656548D01*
X1792859Y22515143D01*
X1763000Y22365028D01*
X1763000Y22242220D01*
X1687143Y22273641D01*
X1537028Y22303500D01*
X1383972Y22303500D01*
X1233857Y22273641D01*
X1092452Y22215069D01*
X965191Y22130036D01*
X856964Y22021809D01*
X831759Y21984086D01*
X749309Y22066536D01*
X622048Y22151569D01*
X480643Y22210141D01*
X330528Y22240000D01*
X177472Y22240000D01*
X27357Y22210141D01*
X-114048Y22151569D01*
X-241309Y22066536D01*
X-349536Y21958309D01*
X-434569Y21831048D01*
X-493141Y21689643D01*
X-523000Y21539528D01*
X-2332667Y21539528D01*
X-2380964Y21611809D01*
X-2489191Y21720036D01*
X-2616452Y21805069D01*
X-2757857Y21863641D01*
X-2907972Y21893500D01*
X-3061028Y21893500D01*
X-3211143Y21863641D01*
X-3352548Y21805069D01*
X-3479809Y21720036D01*
X-3588036Y21611809D01*
X-3673069Y21484548D01*
X-3731641Y21343143D01*
X-3761500Y21193028D01*
X-10373000Y21193028D01*
X-10373000Y22717028D01*
X-10302000Y22717028D01*
X-10302000Y22563972D01*
X-10272141Y22413857D01*
X-10213569Y22272452D01*
X-10128536Y22145191D01*
X-10020309Y22036964D01*
X-9893048Y21951931D01*
X-9751643Y21893359D01*
X-9601528Y21863500D01*
X-9448472Y21863500D01*
X-9298357Y21893359D01*
X-9156952Y21951931D01*
X-9029691Y22036964D01*
X-8921464Y22145191D01*
X-8836431Y22272452D01*
X-8824388Y22301528D01*
X-5285500Y22301528D01*
X-5285500Y22148472D01*
X-5255641Y21998357D01*
X-5197069Y21856952D01*
X-5112036Y21729691D01*
X-5003809Y21621464D01*
X-4876548Y21536431D01*
X-4735143Y21477859D01*
X-4585028Y21448000D01*
X-4431972Y21448000D01*
X-4281857Y21477859D01*
X-4140452Y21536431D01*
X-4013191Y21621464D01*
X-3904964Y21729691D01*
X-3819931Y21856952D01*
X-3761359Y21998357D01*
X-3731500Y22148472D01*
X-3731500Y22301528D01*
X-3761359Y22451643D01*
X-3819931Y22593048D01*
X-3904964Y22720309D01*
X-3930683Y22746028D01*
X-3126500Y22746028D01*
X-3126500Y22592972D01*
X-3096641Y22442857D01*
X-3038069Y22301452D01*
X-2953036Y22174191D01*
X-2844809Y22065964D01*
X-2717548Y21980931D01*
X-2576143Y21922359D01*
X-2426028Y21892500D01*
X-2272972Y21892500D01*
X-2122857Y21922359D01*
X-1981452Y21980931D01*
X-1854191Y22065964D01*
X-1745964Y22174191D01*
X-1660931Y22301452D01*
X-1602359Y22442857D01*
X-1572500Y22592972D01*
X-1572500Y22746028D01*
X-1602359Y22896143D01*
X-1660931Y23037548D01*
X-1745964Y23164809D01*
X-1854191Y23273036D01*
X-1981452Y23358069D01*
X-2122857Y23416641D01*
X-2272972Y23446500D01*
X-2426028Y23446500D01*
X-2576143Y23416641D01*
X-2717548Y23358069D01*
X-2844809Y23273036D01*
X-2953036Y23164809D01*
X-3038069Y23037548D01*
X-3096641Y22896143D01*
X-3126500Y22746028D01*
X-3930683Y22746028D01*
X-4013191Y22828536D01*
X-4140452Y22913569D01*
X-4281857Y22972141D01*
X-4431972Y23002000D01*
X-4585028Y23002000D01*
X-4735143Y22972141D01*
X-4876548Y22913569D01*
X-5003809Y22828536D01*
X-5112036Y22720309D01*
X-5197069Y22593048D01*
X-5255641Y22451643D01*
X-5285500Y22301528D01*
X-8824388Y22301528D01*
X-8777859Y22413857D01*
X-8748000Y22563972D01*
X-8748000Y22717028D01*
X-8777859Y22867143D01*
X-8836431Y23008548D01*
X-8921464Y23135809D01*
X-9029691Y23244036D01*
X-9156952Y23329069D01*
X-9298357Y23387641D01*
X-9448472Y23417500D01*
X-9601528Y23417500D01*
X-9751643Y23387641D01*
X-9893048Y23329069D01*
X-10020309Y23244036D01*
X-10128536Y23135809D01*
X-10213569Y23008548D01*
X-10272141Y22867143D01*
X-10302000Y22717028D01*
X-10373000Y22717028D01*
X-10373000Y24778028D01*
X5128500Y24778028D01*
X5128500Y24624972D01*
X5158359Y24474857D01*
X5216931Y24333452D01*
X5301964Y24206191D01*
X5410191Y24097964D01*
X5537452Y24012931D01*
X5678857Y23954359D01*
X5828972Y23924500D01*
X5982028Y23924500D01*
X6122937Y23952528D01*
X6589000Y23952528D01*
X6589000Y23799472D01*
X6618859Y23649357D01*
X6677431Y23507952D01*
X6762464Y23380691D01*
X6870691Y23272464D01*
X6997952Y23187431D01*
X7139357Y23128859D01*
X7289472Y23099000D01*
X7442528Y23099000D01*
X7592643Y23128859D01*
X7734048Y23187431D01*
X7861309Y23272464D01*
X7969536Y23380691D01*
X8054569Y23507952D01*
X8113141Y23649357D01*
X8143000Y23799472D01*
X8143000Y23952528D01*
X8113141Y24102643D01*
X8054569Y24244048D01*
X7969536Y24371309D01*
X7861309Y24479536D01*
X7734048Y24564569D01*
X7592643Y24623141D01*
X7442528Y24653000D01*
X7289472Y24653000D01*
X7139357Y24623141D01*
X6997952Y24564569D01*
X6870691Y24479536D01*
X6762464Y24371309D01*
X6677431Y24244048D01*
X6618859Y24102643D01*
X6589000Y23952528D01*
X6122937Y23952528D01*
X6132143Y23954359D01*
X6273548Y24012931D01*
X6400809Y24097964D01*
X6509036Y24206191D01*
X6594069Y24333452D01*
X6652641Y24474857D01*
X6682500Y24624972D01*
X6682500Y24778028D01*
X6652641Y24928143D01*
X6594069Y25069548D01*
X6509036Y25196809D01*
X6400809Y25305036D01*
X6273548Y25390069D01*
X6132143Y25448641D01*
X5982028Y25478500D01*
X5828972Y25478500D01*
X5678857Y25448641D01*
X5537452Y25390069D01*
X5410191Y25305036D01*
X5301964Y25196809D01*
X5216931Y25069548D01*
X5158359Y24928143D01*
X5128500Y24778028D01*
X-10373000Y24778028D01*
X-10373000Y25791528D01*
X3223500Y25791528D01*
X3223500Y25638472D01*
X3253359Y25488357D01*
X3311931Y25346952D01*
X3396964Y25219691D01*
X3505191Y25111464D01*
X3632452Y25026431D01*
X3773857Y24967859D01*
X3923972Y24938000D01*
X4077028Y24938000D01*
X4227143Y24967859D01*
X4368548Y25026431D01*
X4495809Y25111464D01*
X4604036Y25219691D01*
X4689069Y25346952D01*
X4747641Y25488357D01*
X4777500Y25638472D01*
X4777500Y25791528D01*
X4747641Y25941643D01*
X4689069Y26083048D01*
X4604036Y26210309D01*
X4495809Y26318536D01*
X4368548Y26403569D01*
X4227143Y26462141D01*
X4077028Y26492000D01*
X3923972Y26492000D01*
X3773857Y26462141D01*
X3632452Y26403569D01*
X3505191Y26318536D01*
X3396964Y26210309D01*
X3311931Y26083048D01*
X3253359Y25941643D01*
X3223500Y25791528D01*
X-10373000Y25791528D01*
X-10373000Y27444549D01*
X-10274048Y27378431D01*
X-10132643Y27319859D01*
X-9982528Y27290000D01*
X-9829472Y27290000D01*
X-9679357Y27319859D01*
X-9537952Y27378431D01*
X-9410691Y27463464D01*
X-9302464Y27571691D01*
X-9217431Y27698952D01*
X-9158859Y27840357D01*
X-9129000Y27990472D01*
X-9129000Y28143528D01*
X-9158859Y28293643D01*
X-9217431Y28435048D01*
X-9302464Y28562309D01*
X-9410691Y28670536D01*
X-9537952Y28755569D01*
X-9679357Y28814141D01*
X-9829472Y28844000D01*
X-9982528Y28844000D01*
X-10132643Y28814141D01*
X-10274048Y28755569D01*
X-10373000Y28689451D01*
X-10373000Y29984549D01*
X-10274048Y29918431D01*
X-10132643Y29859859D01*
X-9982528Y29830000D01*
X-9829472Y29830000D01*
X-9679357Y29859859D01*
X-9537952Y29918431D01*
X-9410691Y30003464D01*
X-9302464Y30111691D01*
X-9217431Y30238952D01*
X-9158859Y30380357D01*
X-9129000Y30530472D01*
X-9129000Y30683528D01*
X-9158859Y30833643D01*
X-9217431Y30975048D01*
X-9302464Y31102309D01*
X-9410691Y31210536D01*
X-9537952Y31295569D01*
X-9679357Y31354141D01*
X-9829472Y31384000D01*
X-9982528Y31384000D01*
X-10132643Y31354141D01*
X-10274048Y31295569D01*
X-10373000Y31229451D01*
X-10373000Y32524549D01*
X-10274048Y32458431D01*
X-10132643Y32399859D01*
X-9982528Y32370000D01*
X-9829472Y32370000D01*
X-9679357Y32399859D01*
X-9537952Y32458431D01*
X-9410691Y32543464D01*
X-9302464Y32651691D01*
X-9217431Y32778952D01*
X-9158859Y32920357D01*
X-9146823Y32980872D01*
X-7389500Y32980872D01*
X-7387830Y32963913D01*
X-7387873Y32957716D01*
X-7387342Y32952304D01*
X-7366941Y32758207D01*
X-7359842Y32723621D01*
X-7353228Y32688950D01*
X-7351656Y32683744D01*
X-7293944Y32497306D01*
X-7280258Y32464748D01*
X-7267039Y32432031D01*
X-7264486Y32427229D01*
X-7171662Y32255552D01*
X-7151889Y32226237D01*
X-7132589Y32196744D01*
X-7129160Y32192539D01*
X-7129154Y32192531D01*
X-7129147Y32192524D01*
X-7004749Y32042152D01*
X-6979689Y32017267D01*
X-6955000Y31992055D01*
X-6950809Y31988588D01*
X-6799567Y31865238D01*
X-6770164Y31845703D01*
X-6741034Y31825757D01*
X-6736251Y31823171D01*
X-6563928Y31731546D01*
X-6531311Y31718102D01*
X-6498843Y31704186D01*
X-6493648Y31702578D01*
X-6389500Y31671134D01*
X-6389499Y28380871D01*
X-6387830Y28363921D01*
X-6387873Y28357716D01*
X-6387342Y28352304D01*
X-6366941Y28158207D01*
X-6359842Y28123621D01*
X-6353228Y28088950D01*
X-6351656Y28083744D01*
X-6293944Y27897306D01*
X-6280258Y27864748D01*
X-6267039Y27832031D01*
X-6264486Y27827229D01*
X-6171662Y27655552D01*
X-6151889Y27626237D01*
X-6132589Y27596744D01*
X-6129160Y27592539D01*
X-6129154Y27592531D01*
X-6129147Y27592524D01*
X-6127000Y27589929D01*
X-6127000Y27400000D01*
X-6124560Y27375224D01*
X-6117333Y27351399D01*
X-6105597Y27329443D01*
X-6089803Y27310197D01*
X-6070557Y27294403D01*
X-6048601Y27282667D01*
X-6024776Y27275440D01*
X-6000000Y27273000D01*
X-5809084Y27273000D01*
X-5799567Y27265238D01*
X-5770164Y27245703D01*
X-5741034Y27225757D01*
X-5736251Y27223171D01*
X-5563928Y27131546D01*
X-5531311Y27118102D01*
X-5498843Y27104186D01*
X-5493648Y27102578D01*
X-5306811Y27046169D01*
X-5272187Y27039313D01*
X-5237651Y27031972D01*
X-5232243Y27031404D01*
X-5038009Y27012359D01*
X-5038005Y27012359D01*
X-5019129Y27010500D01*
X5019129Y27010500D01*
X5036088Y27012170D01*
X5042284Y27012127D01*
X5047696Y27012658D01*
X5241793Y27033059D01*
X5276379Y27040158D01*
X5311050Y27046772D01*
X5316254Y27048343D01*
X5316260Y27048345D01*
X5502694Y27106056D01*
X5535252Y27119742D01*
X5567969Y27132961D01*
X5572771Y27135514D01*
X5744448Y27228338D01*
X5773763Y27248111D01*
X5803256Y27267411D01*
X5807461Y27270840D01*
X5807469Y27270846D01*
X5807476Y27270853D01*
X5810071Y27273000D01*
X6000000Y27273000D01*
X6024776Y27275440D01*
X6048601Y27282667D01*
X6070557Y27294403D01*
X6089803Y27310197D01*
X6105597Y27329443D01*
X6117333Y27351399D01*
X6124560Y27375224D01*
X6127000Y27400000D01*
X6127000Y27590916D01*
X6134762Y27600433D01*
X6154297Y27629836D01*
X6174243Y27658966D01*
X6176829Y27663749D01*
X6268454Y27836072D01*
X6281898Y27868689D01*
X6295814Y27901157D01*
X6297422Y27906352D01*
X6353831Y28093189D01*
X6360687Y28127813D01*
X6368028Y28162349D01*
X6368596Y28167757D01*
X6387641Y28361991D01*
X6387641Y28361995D01*
X6389500Y28380871D01*
X6389500Y31671017D01*
X6502694Y31706056D01*
X6535252Y31719742D01*
X6567969Y31732961D01*
X6572771Y31735514D01*
X6744448Y31828338D01*
X6773763Y31848111D01*
X6803256Y31867411D01*
X6807461Y31870840D01*
X6807469Y31870846D01*
X6807476Y31870853D01*
X6957848Y31995251D01*
X6982733Y32020311D01*
X7007945Y32045000D01*
X7011412Y32049191D01*
X7134762Y32200433D01*
X7154297Y32229836D01*
X7174243Y32258966D01*
X7176829Y32263749D01*
X7268454Y32436072D01*
X7281898Y32468689D01*
X7295814Y32501157D01*
X7297422Y32506352D01*
X7353831Y32693189D01*
X7360687Y32727813D01*
X7368028Y32762349D01*
X7368596Y32767757D01*
X7387641Y32961991D01*
X7387641Y32961995D01*
X7389500Y32980871D01*
X7389500Y36019129D01*
X7387830Y36036088D01*
X7387873Y36042284D01*
X7387342Y36047696D01*
X7366941Y36241793D01*
X7359843Y36276373D01*
X7353228Y36311050D01*
X7351656Y36316256D01*
X7293944Y36502694D01*
X7280263Y36535238D01*
X7267039Y36567970D01*
X7264486Y36572771D01*
X7171661Y36744448D01*
X7151922Y36773713D01*
X7132589Y36803256D01*
X7129152Y36807470D01*
X7004748Y36957848D01*
X6979691Y36982731D01*
X6955000Y37007945D01*
X6950809Y37011412D01*
X6799567Y37134762D01*
X6770182Y37154285D01*
X6741035Y37174243D01*
X6736251Y37176829D01*
X6563929Y37268454D01*
X6531286Y37281909D01*
X6498843Y37295814D01*
X6493648Y37297422D01*
X6389500Y37328866D01*
X6389500Y44419129D01*
X6387830Y44436088D01*
X6387873Y44442284D01*
X6387342Y44447696D01*
X6366941Y44641793D01*
X6359843Y44676373D01*
X6353228Y44711050D01*
X6351656Y44716256D01*
X6293944Y44902694D01*
X6280263Y44935238D01*
X6267039Y44967970D01*
X6264486Y44972771D01*
X6171661Y45144448D01*
X6151922Y45173713D01*
X6132589Y45203256D01*
X6129152Y45207470D01*
X6127000Y45210071D01*
X6127000Y45400000D01*
X6124560Y45424776D01*
X6117333Y45448601D01*
X6105597Y45470557D01*
X6089803Y45489803D01*
X6070557Y45505597D01*
X6048601Y45517333D01*
X6024776Y45524560D01*
X6000000Y45527000D01*
X5809084Y45527000D01*
X5799567Y45534762D01*
X5770182Y45554285D01*
X5741035Y45574243D01*
X5736251Y45576829D01*
X5563929Y45668454D01*
X5531286Y45681909D01*
X5498843Y45695814D01*
X5493648Y45697422D01*
X5306812Y45753831D01*
X5272167Y45760691D01*
X5237651Y45768028D01*
X5232244Y45768596D01*
X5232242Y45768596D01*
X5038009Y45787641D01*
X5038005Y45787641D01*
X5019129Y45789500D01*
X1982406Y45789500D01*
X2017141Y45873357D01*
X2047000Y46023472D01*
X2047000Y46176528D01*
X2017141Y46326643D01*
X1958569Y46468048D01*
X1873536Y46595309D01*
X1765309Y46703536D01*
X1638048Y46788569D01*
X1496643Y46847141D01*
X1346528Y46877000D01*
X1193472Y46877000D01*
X1043357Y46847141D01*
X901952Y46788569D01*
X774691Y46703536D01*
X666464Y46595309D01*
X581431Y46468048D01*
X522859Y46326643D01*
X493000Y46176528D01*
X493000Y46023472D01*
X522859Y45873357D01*
X557594Y45789500D01*
X-687594Y45789500D01*
X-652859Y45873357D01*
X-623000Y46023472D01*
X-623000Y46176528D01*
X-652859Y46326643D01*
X-711431Y46468048D01*
X-796464Y46595309D01*
X-904691Y46703536D01*
X-1031952Y46788569D01*
X-1173357Y46847141D01*
X-1323472Y46877000D01*
X-1476528Y46877000D01*
X-1626643Y46847141D01*
X-1768048Y46788569D01*
X-1895309Y46703536D01*
X-2003536Y46595309D01*
X-2088569Y46468048D01*
X-2147141Y46326643D01*
X-2177000Y46176528D01*
X-2177000Y46023472D01*
X-2147141Y45873357D01*
X-2112406Y45789500D01*
X-3087594Y45789500D01*
X-3052859Y45873357D01*
X-3023000Y46023472D01*
X-3023000Y46176528D01*
X-3052859Y46326643D01*
X-3111431Y46468048D01*
X-3196464Y46595309D01*
X-3304691Y46703536D01*
X-3431952Y46788569D01*
X-3573357Y46847141D01*
X-3723472Y46877000D01*
X-3876528Y46877000D01*
X-4026643Y46847141D01*
X-4168048Y46788569D01*
X-4295309Y46703536D01*
X-4403536Y46595309D01*
X-4488569Y46468048D01*
X-4547141Y46326643D01*
X-4577000Y46176528D01*
X-4577000Y46023472D01*
X-4547141Y45873357D01*
X-4512406Y45789500D01*
X-5019129Y45789500D01*
X-5036088Y45787830D01*
X-5042284Y45787873D01*
X-5047696Y45787342D01*
X-5241793Y45766941D01*
X-5276373Y45759843D01*
X-5311050Y45753228D01*
X-5316254Y45751657D01*
X-5316260Y45751655D01*
X-5502694Y45693944D01*
X-5535238Y45680263D01*
X-5567970Y45667039D01*
X-5572771Y45664486D01*
X-5744448Y45571661D01*
X-5773713Y45551922D01*
X-5803256Y45532589D01*
X-5807470Y45529152D01*
X-5810071Y45527000D01*
X-6000000Y45527000D01*
X-6024776Y45524560D01*
X-6048601Y45517333D01*
X-6070557Y45505597D01*
X-6089803Y45489803D01*
X-6105597Y45470557D01*
X-6117333Y45448601D01*
X-6124560Y45424776D01*
X-6127000Y45400000D01*
X-6127000Y45209084D01*
X-6134762Y45199567D01*
X-6154285Y45170182D01*
X-6174243Y45141035D01*
X-6176829Y45136251D01*
X-6268454Y44963929D01*
X-6281909Y44931286D01*
X-6295814Y44898843D01*
X-6297422Y44893648D01*
X-6353831Y44706812D01*
X-6360691Y44672167D01*
X-6368028Y44637651D01*
X-6368596Y44632242D01*
X-6387641Y44438009D01*
X-6387641Y44437994D01*
X-6389499Y44419129D01*
X-6389500Y38976556D01*
X-6527472Y39004000D01*
X-6680528Y39004000D01*
X-6830643Y38974141D01*
X-6972048Y38915569D01*
X-7099309Y38830536D01*
X-7207536Y38722309D01*
X-7292569Y38595048D01*
X-7351141Y38453643D01*
X-7381000Y38303528D01*
X-7381000Y38150472D01*
X-7351141Y38000357D01*
X-7292569Y37858952D01*
X-7207536Y37731691D01*
X-7099309Y37623464D01*
X-6972048Y37538431D01*
X-6830643Y37479859D01*
X-6680528Y37450000D01*
X-6527472Y37450000D01*
X-6389500Y37477444D01*
X-6389500Y37328983D01*
X-6502694Y37293944D01*
X-6535238Y37280263D01*
X-6567970Y37267039D01*
X-6572771Y37264486D01*
X-6744448Y37171661D01*
X-6773713Y37151922D01*
X-6803256Y37132589D01*
X-6807470Y37129152D01*
X-6957848Y37004748D01*
X-6982731Y36979691D01*
X-7007945Y36955000D01*
X-7011412Y36950809D01*
X-7134762Y36799567D01*
X-7154285Y36770182D01*
X-7174243Y36741035D01*
X-7176829Y36736251D01*
X-7268454Y36563929D01*
X-7281909Y36531286D01*
X-7295814Y36498843D01*
X-7297422Y36493648D01*
X-7353831Y36306812D01*
X-7360691Y36272167D01*
X-7368028Y36237651D01*
X-7368596Y36232242D01*
X-7387641Y36038009D01*
X-7387641Y36037994D01*
X-7389499Y36019129D01*
X-7389500Y32980872D01*
X-9146823Y32980872D01*
X-9129000Y33070472D01*
X-9129000Y33223528D01*
X-9158859Y33373643D01*
X-9217431Y33515048D01*
X-9302464Y33642309D01*
X-9410691Y33750536D01*
X-9537952Y33835569D01*
X-9679357Y33894141D01*
X-9829472Y33924000D01*
X-9982528Y33924000D01*
X-10132643Y33894141D01*
X-10274048Y33835569D01*
X-10373000Y33769451D01*
X-10373000Y35064549D01*
X-10274048Y34998431D01*
X-10132643Y34939859D01*
X-9982528Y34910000D01*
X-9829472Y34910000D01*
X-9679357Y34939859D01*
X-9537952Y34998431D01*
X-9410691Y35083464D01*
X-9302464Y35191691D01*
X-9217431Y35318952D01*
X-9158859Y35460357D01*
X-9129000Y35610472D01*
X-9129000Y35763528D01*
X-9158859Y35913643D01*
X-9217431Y36055048D01*
X-9302464Y36182309D01*
X-9410691Y36290536D01*
X-9537952Y36375569D01*
X-9679357Y36434141D01*
X-9829472Y36464000D01*
X-9982528Y36464000D01*
X-10132643Y36434141D01*
X-10274048Y36375569D01*
X-10373000Y36309451D01*
X-10373000Y42281558D01*
X-10268048Y42211431D01*
X-10126643Y42152859D01*
X-9976528Y42123000D01*
X-9823472Y42123000D01*
X-9673357Y42152859D01*
X-9531952Y42211431D01*
X-9404691Y42296464D01*
X-9296464Y42404691D01*
X-9211431Y42531952D01*
X-9152859Y42673357D01*
X-9123000Y42823472D01*
X-9123000Y42976528D01*
X-9152859Y43126643D01*
X-9211431Y43268048D01*
X-9296464Y43395309D01*
X-9404691Y43503536D01*
X-9531952Y43588569D01*
X-9673357Y43647141D01*
X-9823472Y43677000D01*
X-9976528Y43677000D01*
X-10126643Y43647141D01*
X-10268048Y43588569D01*
X-10373000Y43518442D01*
X-10373000Y47773000D01*
X-8027939Y47773000D01*
X-8047141Y47726643D01*
G37*
%TD.AperFunction*%
%TD*%
M02*
