M48
; DRILL file {KiCad (5.1.9-0-10_14)} date Thursday, May 20, 2021 at 04:30:20 PM
; FORMAT={-:-/ absolute / metric / decimal}
; #@! TF.CreationDate,2021-05-20T16:30:20+09:00
; #@! TF.GenerationSoftware,Kicad,Pcbnew,(5.1.9-0-10_14)
; #@! TF.FileFunction,Plated,1,4,PTH
FMAT,2
METRIC
T1C0.400
%
G90
G05
T1
X-9.906Y43.307
X-9.906Y40.767
X-9.906Y38.227
X-9.906Y35.687
X-9.906Y33.147
X-9.906Y30.607
X-9.906Y28.067
X-9.906Y6.858
X-9.525Y22.64
X-7.366Y22.64
X-6.35Y43.307
X-6.35Y40.767
X-6.35Y38.227
X-5.715Y16.925
X-5.334Y43.307
X-5.334Y40.767
X-5.334Y38.227
X-3.683Y12.671
X-2.984Y21.116
X-2.54Y23.368
X-1.46Y21.907
X0.0Y21.145
X0.254Y17.751
X0.254Y16.544
X0.254Y14.512
X0.254Y12.671
X1.651Y21.907
X2.54Y23.368
X4.445Y12.671
X4.763Y23.974
X5.842Y22.45
X5.842Y16.227
X5.905Y26.704
X5.905Y25.625
X6.604Y23.212
X7.366Y23.876
X8.128Y22.415
X9.906Y43.405
X9.906Y40.865
X9.906Y38.227
X9.906Y35.687
X9.906Y33.147
X9.906Y30.607
X9.906Y28.067
X9.938Y22.701
X10.033Y6.921
T0
M30
