M48
; DRILL file {KiCad (5.1.10-1-10_14)} date Sunday, June 13, 2021 at 06:58:16 PM
; FORMAT={-:-/ absolute / inch / decimal}
; #@! TF.CreationDate,2021-06-13T18:58:16+09:00
; #@! TF.GenerationSoftware,Kicad,Pcbnew,(5.1.10-1-10_14)
; #@! TF.FileFunction,Plated,1,4,PTH
FMAT,2
INCH
T1C0.0157
%
G90
G05
T1
X-0.39Y1.605
X-0.39Y1.405
X-0.39Y1.305
X-0.39Y1.205
X-0.39Y1.105
X-0.39Y0.27
X-0.3898Y1.689
X-0.375Y0.8914
X-0.29Y0.8914
X-0.2874Y1.8701
X-0.26Y1.505
X-0.225Y0.6664
X-0.1775Y0.875
X-0.17Y0.4989
X-0.1496Y1.815
X-0.1175Y0.8314
X-0.0925Y0.8925
X-0.0551Y1.815
X-0.015Y0.5075
X0.01Y0.845
X0.01Y0.6989
X0.01Y0.47
X0.0175Y0.5375
X0.0315Y0.6614
X0.05Y1.815
X0.0575Y0.8475
X0.0737Y0.6112
X0.075Y0.5675
X0.1Y0.975
X0.1Y0.8775
X0.145Y0.8325
X0.15Y1.815
X0.1575Y1.0124
X0.175Y0.4989
X0.23Y0.6389
X0.2325Y0.9725
X0.2717Y1.8504
X0.29Y0.94
X0.3325Y0.895
X0.39Y1.505
X0.39Y1.405
X0.39Y1.305
X0.39Y1.205
X0.39Y1.105
X0.3912Y0.8937
X0.395Y0.2725
T0
M30
