%TF.GenerationSoftware,KiCad,Pcbnew,(5.1.10-1-10_14)*%
%TF.CreationDate,2021-06-13T18:58:13+09:00*%
%TF.ProjectId,tracer,74726163-6572-42e6-9b69-6361645f7063,rev?*%
%TF.SameCoordinates,Original*%
%TF.FileFunction,Legend,Top*%
%TF.FilePolarity,Positive*%
%FSLAX46Y46*%
G04 Gerber Fmt 4.6, Leading zero omitted, Abs format (unit mm)*
G04 Created by KiCad (PCBNEW (5.1.10-1-10_14)) date 2021-06-13 18:58:13*
%MOMM*%
%LPD*%
G01*
G04 APERTURE LIST*
%ADD10C,0.125000*%
%ADD11C,0.350000*%
%ADD12C,0.200000*%
%ADD13C,0.300000*%
%ADD14C,0.120000*%
%ADD15C,0.400000*%
%ADD16C,0.250000*%
%ADD17C,0.010000*%
%ADD18C,0.150000*%
%ADD19C,0.450000*%
%ADD20C,0.100000*%
%ADD21C,0.124600*%
G04 APERTURE END LIST*
D10*
X-6256571Y7760928D02*
X-6149428Y7725214D01*
X-5970857Y7725214D01*
X-5899428Y7760928D01*
X-5863714Y7796642D01*
X-5828000Y7868071D01*
X-5828000Y7939500D01*
X-5863714Y8010928D01*
X-5899428Y8046642D01*
X-5970857Y8082357D01*
X-6113714Y8118071D01*
X-6185142Y8153785D01*
X-6220857Y8189500D01*
X-6256571Y8260928D01*
X-6256571Y8332357D01*
X-6220857Y8403785D01*
X-6185142Y8439500D01*
X-6113714Y8475214D01*
X-5935142Y8475214D01*
X-5828000Y8439500D01*
X-5506571Y7725214D02*
X-5506571Y8475214D01*
X-4756571Y8439500D02*
X-4828000Y8475214D01*
X-4935142Y8475214D01*
X-5042285Y8439500D01*
X-5113714Y8368071D01*
X-5149428Y8296642D01*
X-5185142Y8153785D01*
X-5185142Y8046642D01*
X-5149428Y7903785D01*
X-5113714Y7832357D01*
X-5042285Y7760928D01*
X-4935142Y7725214D01*
X-4863714Y7725214D01*
X-4756571Y7760928D01*
X-4720857Y7796642D01*
X-4720857Y8046642D01*
X-4863714Y8046642D01*
X-4399428Y7796642D02*
X-4363714Y7760928D01*
X-4399428Y7725214D01*
X-4435142Y7760928D01*
X-4399428Y7796642D01*
X-4399428Y7725214D01*
X-3649428Y7725214D02*
X-4077999Y7725214D01*
X-3863714Y7725214D02*
X-3863714Y8475214D01*
X-3935142Y8368071D01*
X-4006571Y8296642D01*
X-4077999Y8260928D01*
D11*
X-10160000Y8353000D02*
G75*
G03*
X-10160000Y8353000I-127000J0D01*
G01*
D12*
X4826000Y3238500D02*
X7556500Y5969000D01*
X7810500Y5715000D02*
X5080000Y2984500D01*
D13*
X3710988Y2148389D02*
X4519110Y2956511D01*
X5529263Y1138236D02*
X4115049Y2552450D01*
X10157996Y5703469D02*
X9013156Y5905499D01*
X9349874Y4895347D02*
X7935660Y6309561D01*
X8474408Y6848309D01*
X8676438Y6915652D01*
X8811125Y6915652D01*
X9013156Y6848309D01*
X9215187Y6646278D01*
X9282530Y6444248D01*
X9282530Y6309561D01*
X9215187Y6107530D01*
X8676438Y5568782D01*
D12*
X6586720Y2199504D02*
X5899816Y2320723D01*
X6101847Y1714631D02*
X5253319Y2563159D01*
X5576568Y2886408D01*
X5697786Y2926814D01*
X5778598Y2926814D01*
X5899816Y2886408D01*
X6021035Y2765190D01*
X6061441Y2643971D01*
X6061441Y2563159D01*
X6021035Y2441941D01*
X5697786Y2118692D01*
X6667532Y2765190D02*
X7071593Y3169251D01*
X6829157Y2441941D02*
X6263471Y3573312D01*
X7394842Y3007626D01*
X8081746Y3856154D02*
X8081746Y3775342D01*
X8000934Y3613718D01*
X7920122Y3532906D01*
X7758497Y3452093D01*
X7596873Y3452093D01*
X7475654Y3492500D01*
X7273624Y3613718D01*
X7152406Y3734936D01*
X7031187Y3936967D01*
X6990781Y4058185D01*
X6990781Y4219809D01*
X7071593Y4381434D01*
X7152406Y4462246D01*
X7314030Y4543058D01*
X7394842Y4543058D01*
X8081746Y4583464D02*
X8364589Y4866307D01*
X8930274Y4543058D02*
X8526213Y4138997D01*
X7677685Y4987525D01*
X8081746Y5391586D01*
D14*
%TO.C,A1*%
X900000Y25817000D02*
X-900000Y25817000D01*
X-900000Y27117000D02*
X900000Y27117000D01*
X6000000Y25817000D02*
X2600000Y25817000D01*
X6000000Y27117000D02*
X6000000Y25817000D01*
X2600000Y27117000D02*
X6000000Y27117000D01*
X2600000Y25817000D02*
X2600000Y27117000D01*
X-3000000Y25817000D02*
X-6000000Y25817000D01*
X-3000000Y27117000D02*
X-3000000Y25817000D01*
X-6000000Y27117000D02*
X-3000000Y27117000D01*
X-6000000Y25817000D02*
X-6000000Y27117000D01*
X5000000Y45417000D02*
X5000000Y47017000D01*
X-5000000Y45617000D02*
X-5000000Y47017000D01*
X6200000Y44517000D02*
X9000000Y44517000D01*
X-5000000Y47017000D02*
X5000000Y47017000D01*
D15*
X-10087000Y44958000D02*
G75*
G03*
X-10087000Y44958000I-200000J0D01*
G01*
D14*
X-9000000Y44517000D02*
X-6200000Y44517000D01*
X9000000Y44517000D02*
X9000000Y24327000D01*
X9000000Y24317000D02*
X-9000000Y24317000D01*
X-9000000Y24317000D02*
X-9000000Y44517000D01*
X-900000Y25817000D02*
G75*
G02*
X-900000Y27117000I0J650000D01*
G01*
X900000Y27117000D02*
G75*
G02*
X900000Y25817000I0J-650000D01*
G01*
D12*
%TO.C,J1*%
X-3700000Y800000D02*
X-3700000Y1800000D01*
X1600000Y3450000D02*
X1600000Y1800000D01*
X950000Y3450000D02*
X950000Y1800000D01*
X-950000Y3450000D02*
X-950000Y1800000D01*
X3700000Y800000D02*
X3700000Y1800000D01*
X-3700000Y1800000D02*
X3700000Y1800000D01*
X-1600000Y3450000D02*
X-1600000Y1800000D01*
D16*
X3250000Y8075000D02*
X2000000Y8325000D01*
X2000000Y7775000D02*
X2000000Y8325000D01*
X-2000000Y8325000D02*
X-2000000Y7775000D01*
X-2000000Y8325000D02*
X-3250000Y8075000D01*
X-3250000Y8025000D02*
X-2000000Y7775000D01*
D13*
X-3250000Y8050000D02*
X-2000000Y8050000D01*
D16*
X2000000Y7775000D02*
X3250000Y8025000D01*
X-2000000Y8050000D02*
X-900000Y8050000D01*
X900000Y8050000D02*
X2000000Y8050000D01*
X-900000Y8050000D02*
X-750000Y8550000D01*
X-750000Y8550000D02*
X-500000Y7550000D01*
X-250000Y8550000D02*
X0Y7550000D01*
X-500000Y7550000D02*
X-250000Y8550000D01*
X750000Y8550000D02*
X900000Y8050000D01*
X250000Y8550000D02*
X500000Y7550000D01*
X500000Y7550000D02*
X750000Y8550000D01*
X0Y7550000D02*
X250000Y8550000D01*
D13*
X2000000Y8050000D02*
X3250000Y8050000D01*
D16*
X-1250000Y7550000D02*
X1500000Y8800000D01*
X1100000Y8800000D02*
X1500000Y8800000D01*
X1500000Y8800000D02*
X1250000Y8500000D01*
X1100000Y8800000D02*
X1250000Y8500000D01*
D17*
%TO.C,LOGO1*%
G36*
X-4898070Y6321479D02*
G01*
X-4842835Y6265636D01*
X-4803463Y6224618D01*
X-4777624Y6195576D01*
X-4762987Y6175659D01*
X-4757219Y6162019D01*
X-4757989Y6151805D01*
X-4762964Y6142169D01*
X-4763684Y6140996D01*
X-4777211Y6120390D01*
X-4804332Y6080163D01*
X-4842146Y6024583D01*
X-4887748Y5957915D01*
X-4938239Y5884424D01*
X-4940014Y5881845D01*
X-4989245Y5809575D01*
X-5032142Y5745123D01*
X-5066182Y5692403D01*
X-5088840Y5655329D01*
X-5097594Y5637816D01*
X-5097618Y5637375D01*
X-5091129Y5618061D01*
X-5075217Y5580775D01*
X-5053318Y5533568D01*
X-5053193Y5533307D01*
X-5026030Y5473426D01*
X-4995559Y5401276D01*
X-4968146Y5331957D01*
X-4966893Y5328632D01*
X-4923870Y5214100D01*
X-4630305Y5158783D01*
X-4540478Y5141585D01*
X-4459537Y5125576D01*
X-4392138Y5111718D01*
X-4342937Y5100974D01*
X-4316587Y5094304D01*
X-4314289Y5093466D01*
X-4305540Y5078218D01*
X-4298808Y5040132D01*
X-4293958Y4977594D01*
X-4290856Y4888990D01*
X-4289528Y4796698D01*
X-4289223Y4706753D01*
X-4289735Y4625468D01*
X-4290971Y4557798D01*
X-4292835Y4508701D01*
X-4295234Y4483135D01*
X-4295523Y4481985D01*
X-4303838Y4471109D01*
X-4324332Y4460262D01*
X-4360315Y4448523D01*
X-4415094Y4434964D01*
X-4491978Y4418662D01*
X-4592339Y4399063D01*
X-4680969Y4382108D01*
X-4760355Y4366793D01*
X-4825894Y4354019D01*
X-4872989Y4344681D01*
X-4897037Y4339679D01*
X-4898622Y4339292D01*
X-4911377Y4324213D01*
X-4929614Y4288349D01*
X-4949974Y4238569D01*
X-4955931Y4222127D01*
X-4982950Y4149356D01*
X-5015158Y4068338D01*
X-5044318Y3999527D01*
X-5066389Y3948885D01*
X-5082672Y3909908D01*
X-5090555Y3888911D01*
X-5090852Y3886983D01*
X-5080636Y3873080D01*
X-5057259Y3839603D01*
X-5023782Y3791050D01*
X-4983265Y3731920D01*
X-4938771Y3666710D01*
X-4893360Y3599922D01*
X-4850092Y3536050D01*
X-4812029Y3479597D01*
X-4782231Y3435058D01*
X-4763759Y3406935D01*
X-4759409Y3399857D01*
X-4756874Y3390586D01*
X-4760024Y3378525D01*
X-4771226Y3360904D01*
X-4792847Y3334957D01*
X-4827253Y3297916D01*
X-4876812Y3247013D01*
X-4943889Y3179480D01*
X-4971466Y3151879D01*
X-5195836Y2927509D01*
X-5260352Y2970756D01*
X-5296096Y2994966D01*
X-5349247Y3031282D01*
X-5413350Y3075279D01*
X-5481949Y3122531D01*
X-5500891Y3135611D01*
X-5564737Y3178671D01*
X-5621521Y3215017D01*
X-5666392Y3241687D01*
X-5694492Y3255720D01*
X-5700097Y3257132D01*
X-5723560Y3250902D01*
X-5764683Y3234490D01*
X-5815405Y3211170D01*
X-5826097Y3205913D01*
X-5893497Y3174427D01*
X-5971573Y3140929D01*
X-6043483Y3112645D01*
X-6043824Y3112519D01*
X-6158734Y3070257D01*
X-6214997Y2775060D01*
X-6271259Y2479863D01*
X-6578291Y2479606D01*
X-6670411Y2480272D01*
X-6753035Y2482275D01*
X-6821632Y2485395D01*
X-6871676Y2489404D01*
X-6898638Y2494080D01*
X-6901614Y2495642D01*
X-6909368Y2514531D01*
X-6921074Y2557196D01*
X-6935598Y2618828D01*
X-6951803Y2694623D01*
X-6968171Y2777725D01*
X-6984613Y2862237D01*
X-7000003Y2936857D01*
X-7013304Y2996908D01*
X-7023481Y3037707D01*
X-7029458Y3054538D01*
X-7047965Y3063861D01*
X-7086450Y3078145D01*
X-7136959Y3094464D01*
X-7142401Y3096105D01*
X-7209964Y3118536D01*
X-7251887Y3138323D01*
X-7271195Y3157396D01*
X-7270915Y3177680D01*
X-7270828Y3177882D01*
X-7263651Y3195059D01*
X-7246668Y3235889D01*
X-7221193Y3297210D01*
X-7188537Y3375862D01*
X-7150015Y3468680D01*
X-7106939Y3572505D01*
X-7065241Y3673035D01*
X-7019089Y3783841D01*
X-6976072Y3886224D01*
X-6937528Y3977063D01*
X-6904794Y4053243D01*
X-6879210Y4111644D01*
X-6862116Y4149147D01*
X-6855072Y4162480D01*
X-6835499Y4166281D01*
X-6796244Y4164279D01*
X-6748199Y4157308D01*
X-6604916Y4143917D01*
X-6469240Y4157130D01*
X-6343476Y4196111D01*
X-6229922Y4260027D01*
X-6130883Y4348045D01*
X-6091720Y4395220D01*
X-6023981Y4506608D01*
X-5982477Y4623289D01*
X-5965657Y4742149D01*
X-5971968Y4860077D01*
X-5999861Y4973962D01*
X-6047783Y5080691D01*
X-6114183Y5177156D01*
X-6197510Y5260242D01*
X-6296213Y5326839D01*
X-6408741Y5373836D01*
X-6533542Y5398122D01*
X-6593079Y5400811D01*
X-6725737Y5387497D01*
X-6847044Y5349286D01*
X-6954950Y5288781D01*
X-7047407Y5208583D01*
X-7122368Y5111295D01*
X-7177782Y4999517D01*
X-7211603Y4875853D01*
X-7221782Y4742901D01*
X-7209192Y4618301D01*
X-7202027Y4568320D01*
X-7200268Y4529711D01*
X-7204037Y4511410D01*
X-7219875Y4503181D01*
X-7259444Y4485252D01*
X-7319622Y4458963D01*
X-7397294Y4425651D01*
X-7489341Y4386655D01*
X-7592643Y4343315D01*
X-7693564Y4301324D01*
X-7804618Y4255285D01*
X-7907514Y4212611D01*
X-7999091Y4174612D01*
X-8076188Y4142602D01*
X-8135645Y4117891D01*
X-8174298Y4101796D01*
X-8188699Y4095753D01*
X-8208955Y4095242D01*
X-8228023Y4114370D01*
X-8247810Y4156138D01*
X-8270231Y4223553D01*
X-8270395Y4224099D01*
X-8286756Y4275377D01*
X-8301377Y4315433D01*
X-8311332Y4336311D01*
X-8311962Y4337042D01*
X-8329107Y4343107D01*
X-8370134Y4353322D01*
X-8430363Y4366651D01*
X-8505112Y4382056D01*
X-8588775Y4398329D01*
X-8673764Y4415084D01*
X-8749284Y4431264D01*
X-8810530Y4445734D01*
X-8852696Y4457362D01*
X-8870859Y4464887D01*
X-8875695Y4483703D01*
X-8879935Y4527020D01*
X-8883357Y4590307D01*
X-8885734Y4669038D01*
X-8886843Y4758685D01*
X-8886893Y4788314D01*
X-8886637Y5095452D01*
X-8598441Y5150065D01*
X-8510310Y5167207D01*
X-8431918Y5183297D01*
X-8367748Y5197343D01*
X-8322286Y5208359D01*
X-8300015Y5215352D01*
X-8298750Y5216170D01*
X-8288984Y5233989D01*
X-8272071Y5272564D01*
X-8250785Y5325371D01*
X-8237045Y5361235D01*
X-8210245Y5429404D01*
X-8181751Y5496855D01*
X-8156318Y5552491D01*
X-8148074Y5568941D01*
X-8126754Y5613572D01*
X-8112667Y5650444D01*
X-8109296Y5666331D01*
X-8117212Y5686035D01*
X-8138999Y5724530D01*
X-8171690Y5776959D01*
X-8212323Y5838464D01*
X-8230889Y5865609D01*
X-8278262Y5934312D01*
X-8323604Y6000307D01*
X-8362492Y6057141D01*
X-8390502Y6098356D01*
X-8395744Y6106148D01*
X-8438991Y6170664D01*
X-8214621Y6395034D01*
X-8140722Y6468692D01*
X-8084406Y6524015D01*
X-8042903Y6563370D01*
X-8013450Y6589126D01*
X-7993275Y6603648D01*
X-7979612Y6609303D01*
X-7969693Y6608458D01*
X-7966643Y6607091D01*
X-7950342Y6596756D01*
X-7914967Y6573285D01*
X-7865014Y6539739D01*
X-7804986Y6499179D01*
X-7739379Y6454665D01*
X-7672691Y6409258D01*
X-7609424Y6366020D01*
X-7554073Y6328012D01*
X-7511138Y6298293D01*
X-7485117Y6279924D01*
X-7479517Y6275648D01*
X-7466192Y6280026D01*
X-7432707Y6293705D01*
X-7385378Y6314073D01*
X-7366974Y6322183D01*
X-7294993Y6352639D01*
X-7213959Y6384777D01*
X-7144374Y6410569D01*
X-7091797Y6430922D01*
X-7051115Y6450166D01*
X-7029187Y6464938D01*
X-7027297Y6467967D01*
X-7023249Y6487141D01*
X-7014695Y6530232D01*
X-7002529Y6592637D01*
X-6987648Y6669755D01*
X-6970951Y6756979D01*
X-6967666Y6774209D01*
X-6947813Y6875895D01*
X-6931615Y6952247D01*
X-6918141Y7006595D01*
X-6906460Y7042267D01*
X-6895640Y7062595D01*
X-6884750Y7070907D01*
X-6884656Y7070935D01*
X-6861899Y7073399D01*
X-6815076Y7075338D01*
X-6749148Y7076655D01*
X-6669076Y7077257D01*
X-6579817Y7077047D01*
X-6569803Y7076972D01*
X-6458833Y7075190D01*
X-6375241Y7071769D01*
X-6317411Y7066576D01*
X-6283731Y7059476D01*
X-6273034Y7052211D01*
X-6267410Y7031621D01*
X-6257495Y6987136D01*
X-6244252Y6923411D01*
X-6228641Y6845101D01*
X-6211626Y6756860D01*
X-6207717Y6736195D01*
X-6152400Y6442631D01*
X-6037868Y6399607D01*
X-5969125Y6372536D01*
X-5896744Y6342067D01*
X-5835827Y6314567D01*
X-5833193Y6313307D01*
X-5785955Y6291385D01*
X-5748596Y6275433D01*
X-5729166Y6268886D01*
X-5729126Y6268883D01*
X-5713360Y6276405D01*
X-5677718Y6298036D01*
X-5626114Y6331252D01*
X-5562463Y6373528D01*
X-5490678Y6422342D01*
X-5484655Y6426486D01*
X-5411006Y6477091D01*
X-5344035Y6522909D01*
X-5288006Y6561037D01*
X-5247185Y6588571D01*
X-5225837Y6602610D01*
X-5225504Y6602816D01*
X-5215753Y6608119D01*
X-5205746Y6609478D01*
X-5192634Y6604561D01*
X-5173565Y6591036D01*
X-5145690Y6566572D01*
X-5106160Y6528837D01*
X-5052125Y6475501D01*
X-4980734Y6404230D01*
X-4971502Y6394998D01*
X-4898070Y6321479D01*
G37*
X-4898070Y6321479D02*
X-4842835Y6265636D01*
X-4803463Y6224618D01*
X-4777624Y6195576D01*
X-4762987Y6175659D01*
X-4757219Y6162019D01*
X-4757989Y6151805D01*
X-4762964Y6142169D01*
X-4763684Y6140996D01*
X-4777211Y6120390D01*
X-4804332Y6080163D01*
X-4842146Y6024583D01*
X-4887748Y5957915D01*
X-4938239Y5884424D01*
X-4940014Y5881845D01*
X-4989245Y5809575D01*
X-5032142Y5745123D01*
X-5066182Y5692403D01*
X-5088840Y5655329D01*
X-5097594Y5637816D01*
X-5097618Y5637375D01*
X-5091129Y5618061D01*
X-5075217Y5580775D01*
X-5053318Y5533568D01*
X-5053193Y5533307D01*
X-5026030Y5473426D01*
X-4995559Y5401276D01*
X-4968146Y5331957D01*
X-4966893Y5328632D01*
X-4923870Y5214100D01*
X-4630305Y5158783D01*
X-4540478Y5141585D01*
X-4459537Y5125576D01*
X-4392138Y5111718D01*
X-4342937Y5100974D01*
X-4316587Y5094304D01*
X-4314289Y5093466D01*
X-4305540Y5078218D01*
X-4298808Y5040132D01*
X-4293958Y4977594D01*
X-4290856Y4888990D01*
X-4289528Y4796698D01*
X-4289223Y4706753D01*
X-4289735Y4625468D01*
X-4290971Y4557798D01*
X-4292835Y4508701D01*
X-4295234Y4483135D01*
X-4295523Y4481985D01*
X-4303838Y4471109D01*
X-4324332Y4460262D01*
X-4360315Y4448523D01*
X-4415094Y4434964D01*
X-4491978Y4418662D01*
X-4592339Y4399063D01*
X-4680969Y4382108D01*
X-4760355Y4366793D01*
X-4825894Y4354019D01*
X-4872989Y4344681D01*
X-4897037Y4339679D01*
X-4898622Y4339292D01*
X-4911377Y4324213D01*
X-4929614Y4288349D01*
X-4949974Y4238569D01*
X-4955931Y4222127D01*
X-4982950Y4149356D01*
X-5015158Y4068338D01*
X-5044318Y3999527D01*
X-5066389Y3948885D01*
X-5082672Y3909908D01*
X-5090555Y3888911D01*
X-5090852Y3886983D01*
X-5080636Y3873080D01*
X-5057259Y3839603D01*
X-5023782Y3791050D01*
X-4983265Y3731920D01*
X-4938771Y3666710D01*
X-4893360Y3599922D01*
X-4850092Y3536050D01*
X-4812029Y3479597D01*
X-4782231Y3435058D01*
X-4763759Y3406935D01*
X-4759409Y3399857D01*
X-4756874Y3390586D01*
X-4760024Y3378525D01*
X-4771226Y3360904D01*
X-4792847Y3334957D01*
X-4827253Y3297916D01*
X-4876812Y3247013D01*
X-4943889Y3179480D01*
X-4971466Y3151879D01*
X-5195836Y2927509D01*
X-5260352Y2970756D01*
X-5296096Y2994966D01*
X-5349247Y3031282D01*
X-5413350Y3075279D01*
X-5481949Y3122531D01*
X-5500891Y3135611D01*
X-5564737Y3178671D01*
X-5621521Y3215017D01*
X-5666392Y3241687D01*
X-5694492Y3255720D01*
X-5700097Y3257132D01*
X-5723560Y3250902D01*
X-5764683Y3234490D01*
X-5815405Y3211170D01*
X-5826097Y3205913D01*
X-5893497Y3174427D01*
X-5971573Y3140929D01*
X-6043483Y3112645D01*
X-6043824Y3112519D01*
X-6158734Y3070257D01*
X-6214997Y2775060D01*
X-6271259Y2479863D01*
X-6578291Y2479606D01*
X-6670411Y2480272D01*
X-6753035Y2482275D01*
X-6821632Y2485395D01*
X-6871676Y2489404D01*
X-6898638Y2494080D01*
X-6901614Y2495642D01*
X-6909368Y2514531D01*
X-6921074Y2557196D01*
X-6935598Y2618828D01*
X-6951803Y2694623D01*
X-6968171Y2777725D01*
X-6984613Y2862237D01*
X-7000003Y2936857D01*
X-7013304Y2996908D01*
X-7023481Y3037707D01*
X-7029458Y3054538D01*
X-7047965Y3063861D01*
X-7086450Y3078145D01*
X-7136959Y3094464D01*
X-7142401Y3096105D01*
X-7209964Y3118536D01*
X-7251887Y3138323D01*
X-7271195Y3157396D01*
X-7270915Y3177680D01*
X-7270828Y3177882D01*
X-7263651Y3195059D01*
X-7246668Y3235889D01*
X-7221193Y3297210D01*
X-7188537Y3375862D01*
X-7150015Y3468680D01*
X-7106939Y3572505D01*
X-7065241Y3673035D01*
X-7019089Y3783841D01*
X-6976072Y3886224D01*
X-6937528Y3977063D01*
X-6904794Y4053243D01*
X-6879210Y4111644D01*
X-6862116Y4149147D01*
X-6855072Y4162480D01*
X-6835499Y4166281D01*
X-6796244Y4164279D01*
X-6748199Y4157308D01*
X-6604916Y4143917D01*
X-6469240Y4157130D01*
X-6343476Y4196111D01*
X-6229922Y4260027D01*
X-6130883Y4348045D01*
X-6091720Y4395220D01*
X-6023981Y4506608D01*
X-5982477Y4623289D01*
X-5965657Y4742149D01*
X-5971968Y4860077D01*
X-5999861Y4973962D01*
X-6047783Y5080691D01*
X-6114183Y5177156D01*
X-6197510Y5260242D01*
X-6296213Y5326839D01*
X-6408741Y5373836D01*
X-6533542Y5398122D01*
X-6593079Y5400811D01*
X-6725737Y5387497D01*
X-6847044Y5349286D01*
X-6954950Y5288781D01*
X-7047407Y5208583D01*
X-7122368Y5111295D01*
X-7177782Y4999517D01*
X-7211603Y4875853D01*
X-7221782Y4742901D01*
X-7209192Y4618301D01*
X-7202027Y4568320D01*
X-7200268Y4529711D01*
X-7204037Y4511410D01*
X-7219875Y4503181D01*
X-7259444Y4485252D01*
X-7319622Y4458963D01*
X-7397294Y4425651D01*
X-7489341Y4386655D01*
X-7592643Y4343315D01*
X-7693564Y4301324D01*
X-7804618Y4255285D01*
X-7907514Y4212611D01*
X-7999091Y4174612D01*
X-8076188Y4142602D01*
X-8135645Y4117891D01*
X-8174298Y4101796D01*
X-8188699Y4095753D01*
X-8208955Y4095242D01*
X-8228023Y4114370D01*
X-8247810Y4156138D01*
X-8270231Y4223553D01*
X-8270395Y4224099D01*
X-8286756Y4275377D01*
X-8301377Y4315433D01*
X-8311332Y4336311D01*
X-8311962Y4337042D01*
X-8329107Y4343107D01*
X-8370134Y4353322D01*
X-8430363Y4366651D01*
X-8505112Y4382056D01*
X-8588775Y4398329D01*
X-8673764Y4415084D01*
X-8749284Y4431264D01*
X-8810530Y4445734D01*
X-8852696Y4457362D01*
X-8870859Y4464887D01*
X-8875695Y4483703D01*
X-8879935Y4527020D01*
X-8883357Y4590307D01*
X-8885734Y4669038D01*
X-8886843Y4758685D01*
X-8886893Y4788314D01*
X-8886637Y5095452D01*
X-8598441Y5150065D01*
X-8510310Y5167207D01*
X-8431918Y5183297D01*
X-8367748Y5197343D01*
X-8322286Y5208359D01*
X-8300015Y5215352D01*
X-8298750Y5216170D01*
X-8288984Y5233989D01*
X-8272071Y5272564D01*
X-8250785Y5325371D01*
X-8237045Y5361235D01*
X-8210245Y5429404D01*
X-8181751Y5496855D01*
X-8156318Y5552491D01*
X-8148074Y5568941D01*
X-8126754Y5613572D01*
X-8112667Y5650444D01*
X-8109296Y5666331D01*
X-8117212Y5686035D01*
X-8138999Y5724530D01*
X-8171690Y5776959D01*
X-8212323Y5838464D01*
X-8230889Y5865609D01*
X-8278262Y5934312D01*
X-8323604Y6000307D01*
X-8362492Y6057141D01*
X-8390502Y6098356D01*
X-8395744Y6106148D01*
X-8438991Y6170664D01*
X-8214621Y6395034D01*
X-8140722Y6468692D01*
X-8084406Y6524015D01*
X-8042903Y6563370D01*
X-8013450Y6589126D01*
X-7993275Y6603648D01*
X-7979612Y6609303D01*
X-7969693Y6608458D01*
X-7966643Y6607091D01*
X-7950342Y6596756D01*
X-7914967Y6573285D01*
X-7865014Y6539739D01*
X-7804986Y6499179D01*
X-7739379Y6454665D01*
X-7672691Y6409258D01*
X-7609424Y6366020D01*
X-7554073Y6328012D01*
X-7511138Y6298293D01*
X-7485117Y6279924D01*
X-7479517Y6275648D01*
X-7466192Y6280026D01*
X-7432707Y6293705D01*
X-7385378Y6314073D01*
X-7366974Y6322183D01*
X-7294993Y6352639D01*
X-7213959Y6384777D01*
X-7144374Y6410569D01*
X-7091797Y6430922D01*
X-7051115Y6450166D01*
X-7029187Y6464938D01*
X-7027297Y6467967D01*
X-7023249Y6487141D01*
X-7014695Y6530232D01*
X-7002529Y6592637D01*
X-6987648Y6669755D01*
X-6970951Y6756979D01*
X-6967666Y6774209D01*
X-6947813Y6875895D01*
X-6931615Y6952247D01*
X-6918141Y7006595D01*
X-6906460Y7042267D01*
X-6895640Y7062595D01*
X-6884750Y7070907D01*
X-6884656Y7070935D01*
X-6861899Y7073399D01*
X-6815076Y7075338D01*
X-6749148Y7076655D01*
X-6669076Y7077257D01*
X-6579817Y7077047D01*
X-6569803Y7076972D01*
X-6458833Y7075190D01*
X-6375241Y7071769D01*
X-6317411Y7066576D01*
X-6283731Y7059476D01*
X-6273034Y7052211D01*
X-6267410Y7031621D01*
X-6257495Y6987136D01*
X-6244252Y6923411D01*
X-6228641Y6845101D01*
X-6211626Y6756860D01*
X-6207717Y6736195D01*
X-6152400Y6442631D01*
X-6037868Y6399607D01*
X-5969125Y6372536D01*
X-5896744Y6342067D01*
X-5835827Y6314567D01*
X-5833193Y6313307D01*
X-5785955Y6291385D01*
X-5748596Y6275433D01*
X-5729166Y6268886D01*
X-5729126Y6268883D01*
X-5713360Y6276405D01*
X-5677718Y6298036D01*
X-5626114Y6331252D01*
X-5562463Y6373528D01*
X-5490678Y6422342D01*
X-5484655Y6426486D01*
X-5411006Y6477091D01*
X-5344035Y6522909D01*
X-5288006Y6561037D01*
X-5247185Y6588571D01*
X-5225837Y6602610D01*
X-5225504Y6602816D01*
X-5215753Y6608119D01*
X-5205746Y6609478D01*
X-5192634Y6604561D01*
X-5173565Y6591036D01*
X-5145690Y6566572D01*
X-5106160Y6528837D01*
X-5052125Y6475501D01*
X-4980734Y6404230D01*
X-4971502Y6394998D01*
X-4898070Y6321479D01*
D14*
%TO.C,K1*%
X10155000Y10230000D02*
X10155000Y12730000D01*
D12*
X6559802Y16030000D02*
G75*
G03*
X6559802Y16030000I-100001J0D01*
G01*
X6559802Y13630000D02*
G75*
G03*
X6559802Y13630000I-100001J0D01*
G01*
D18*
X6459800Y16030000D02*
X6055000Y13830000D01*
D14*
X8890000Y10230000D02*
X7620000Y10230000D01*
X8890000Y19430000D02*
X7620000Y19430000D01*
D19*
X10205000Y21730000D02*
G75*
G03*
X10205000Y21730000I-150000J0D01*
G01*
D14*
X6355000Y19430000D02*
X6355000Y16930000D01*
X10160000Y16989000D02*
X10155000Y19430000D01*
X6355000Y12730000D02*
X6359801Y10230000D01*
D20*
X9919999Y16329999D02*
G75*
G02*
X9919999Y15730001I299999J-299999D01*
G01*
X9920000Y13902998D02*
G75*
G02*
X9920000Y13303000I299999J-299999D01*
G01*
X9919999Y14503000D02*
G75*
G02*
X9919999Y13903002I299999J-299999D01*
G01*
X9920000Y15102998D02*
G75*
G02*
X9920000Y14503000I299999J-299999D01*
G01*
X9919999Y15703000D02*
G75*
G02*
X9919999Y15103002I299999J-299999D01*
G01*
D12*
%TO.C,D1*%
X10495000Y7245000D02*
X10495000Y8445000D01*
D14*
%TO.C,U1*%
X-10085000Y10970000D02*
X-10085000Y9155000D01*
X-10350000Y10970000D02*
X-10085000Y10970000D01*
X-10350000Y14830000D02*
X-10350000Y10970000D01*
X-10350000Y18690000D02*
X-10085000Y18690000D01*
X-10350000Y14830000D02*
X-10350000Y18690000D01*
X5270000Y10970000D02*
X5005000Y10970000D01*
X5270000Y14830000D02*
X5270000Y10970000D01*
X5270000Y18690000D02*
X5005000Y18690000D01*
X5270000Y14830000D02*
X5270000Y18690000D01*
%TO.C,A1*%
D21*
X-8397785Y45362833D02*
X-7921595Y45362833D01*
X-8493023Y45077119D02*
X-8159690Y46077119D01*
X-7826357Y45077119D01*
X-6969214Y45077119D02*
X-7540642Y45077119D01*
X-7254928Y45077119D02*
X-7254928Y46077119D01*
X-7350166Y45934261D01*
X-7445404Y45839023D01*
X-7540642Y45791404D01*
D14*
X-488880Y26054095D02*
X-755547Y26435047D01*
X-946023Y26054095D02*
X-946023Y26854095D01*
X-641261Y26854095D01*
X-565071Y26816000D01*
X-526976Y26777904D01*
X-488880Y26701714D01*
X-488880Y26587428D01*
X-526976Y26511238D01*
X-565071Y26473142D01*
X-641261Y26435047D01*
X-946023Y26435047D01*
X273023Y26816000D02*
X196833Y26854095D01*
X82547Y26854095D01*
X-31738Y26816000D01*
X-107928Y26739809D01*
X-146023Y26663619D01*
X-184119Y26511238D01*
X-184119Y26396952D01*
X-146023Y26244571D01*
X-107928Y26168380D01*
X-31738Y26092190D01*
X82547Y26054095D01*
X158738Y26054095D01*
X273023Y26092190D01*
X311119Y26130285D01*
X311119Y26396952D01*
X158738Y26396952D01*
X920642Y26473142D02*
X1034928Y26435047D01*
X1073023Y26396952D01*
X1111119Y26320761D01*
X1111119Y26206476D01*
X1073023Y26130285D01*
X1034928Y26092190D01*
X958738Y26054095D01*
X653976Y26054095D01*
X653976Y26854095D01*
X920642Y26854095D01*
X996833Y26816000D01*
X1034928Y26777904D01*
X1073023Y26701714D01*
X1073023Y26625523D01*
X1034928Y26549333D01*
X996833Y26511238D01*
X920642Y26473142D01*
X653976Y26473142D01*
X3214285Y26474142D02*
X3328571Y26436047D01*
X3366666Y26397952D01*
X3404761Y26321761D01*
X3404761Y26207476D01*
X3366666Y26131285D01*
X3328571Y26093190D01*
X3252380Y26055095D01*
X2947619Y26055095D01*
X2947619Y26855095D01*
X3214285Y26855095D01*
X3290476Y26817000D01*
X3328571Y26778904D01*
X3366666Y26702714D01*
X3366666Y26626523D01*
X3328571Y26550333D01*
X3290476Y26512238D01*
X3214285Y26474142D01*
X2947619Y26474142D01*
X3900000Y26855095D02*
X4052380Y26855095D01*
X4128571Y26817000D01*
X4204761Y26740809D01*
X4242857Y26588428D01*
X4242857Y26321761D01*
X4204761Y26169380D01*
X4128571Y26093190D01*
X4052380Y26055095D01*
X3900000Y26055095D01*
X3823809Y26093190D01*
X3747619Y26169380D01*
X3709523Y26321761D01*
X3709523Y26588428D01*
X3747619Y26740809D01*
X3823809Y26817000D01*
X3900000Y26855095D01*
X4738095Y26855095D02*
X4890476Y26855095D01*
X4966666Y26817000D01*
X5042857Y26740809D01*
X5080952Y26588428D01*
X5080952Y26321761D01*
X5042857Y26169380D01*
X4966666Y26093190D01*
X4890476Y26055095D01*
X4738095Y26055095D01*
X4661904Y26093190D01*
X4585714Y26169380D01*
X4547619Y26321761D01*
X4547619Y26588428D01*
X4585714Y26740809D01*
X4661904Y26817000D01*
X4738095Y26855095D01*
X5309523Y26855095D02*
X5766666Y26855095D01*
X5538095Y26055095D02*
X5538095Y26855095D01*
X-4938095Y26055095D02*
X-5204761Y26436047D01*
X-5395238Y26055095D02*
X-5395238Y26855095D01*
X-5090476Y26855095D01*
X-5014285Y26817000D01*
X-4976190Y26778904D01*
X-4938095Y26702714D01*
X-4938095Y26588428D01*
X-4976190Y26512238D01*
X-5014285Y26474142D01*
X-5090476Y26436047D01*
X-5395238Y26436047D01*
X-4633333Y26093190D02*
X-4519047Y26055095D01*
X-4328571Y26055095D01*
X-4252380Y26093190D01*
X-4214285Y26131285D01*
X-4176190Y26207476D01*
X-4176190Y26283666D01*
X-4214285Y26359857D01*
X-4252380Y26397952D01*
X-4328571Y26436047D01*
X-4480952Y26474142D01*
X-4557142Y26512238D01*
X-4595238Y26550333D01*
X-4633333Y26626523D01*
X-4633333Y26702714D01*
X-4595238Y26778904D01*
X-4557142Y26817000D01*
X-4480952Y26855095D01*
X-4290476Y26855095D01*
X-4176190Y26817000D01*
X-3947619Y26855095D02*
X-3490476Y26855095D01*
X-3719047Y26055095D02*
X-3719047Y26855095D01*
X-5695238Y25455095D02*
X-5238095Y25455095D01*
X-5466666Y24655095D02*
X-5466666Y25455095D01*
X-4971428Y24655095D02*
X-4971428Y25455095D01*
X-4590476Y24655095D02*
X-4590476Y25455095D01*
X-4133333Y24655095D01*
X-4133333Y25455095D01*
X-3600000Y25036047D02*
X-3600000Y24655095D01*
X-3866666Y25455095D02*
X-3600000Y25036047D01*
X-3333333Y25455095D01*
X-2495238Y25378904D02*
X-2457142Y25417000D01*
X-2380952Y25455095D01*
X-2190476Y25455095D01*
X-2114285Y25417000D01*
X-2076190Y25378904D01*
X-2038095Y25302714D01*
X-2038095Y25226523D01*
X-2076190Y25112238D01*
X-2533333Y24655095D01*
X-2038095Y24655095D01*
X-1542857Y25455095D02*
X-1466666Y25455095D01*
X-1390476Y25417000D01*
X-1352380Y25378904D01*
X-1314285Y25302714D01*
X-1276190Y25150333D01*
X-1276190Y24959857D01*
X-1314285Y24807476D01*
X-1352380Y24731285D01*
X-1390476Y24693190D01*
X-1466666Y24655095D01*
X-1542857Y24655095D01*
X-1619047Y24693190D01*
X-1657142Y24731285D01*
X-1695238Y24807476D01*
X-1733333Y24959857D01*
X-1733333Y25150333D01*
X-1695238Y25302714D01*
X-1657142Y25378904D01*
X-1619047Y25417000D01*
X-1542857Y25455095D01*
X-590476Y25188428D02*
X-590476Y24655095D01*
X-780952Y25493190D02*
X-971428Y24921761D01*
X-476190Y24921761D01*
X-19047Y25455095D02*
X57142Y25455095D01*
X133333Y25417000D01*
X171428Y25378904D01*
X209523Y25302714D01*
X247619Y25150333D01*
X247619Y24959857D01*
X209523Y24807476D01*
X171428Y24731285D01*
X133333Y24693190D01*
X57142Y24655095D01*
X-19047Y24655095D01*
X-95238Y24693190D01*
X-133333Y24731285D01*
X-171428Y24807476D01*
X-209523Y24959857D01*
X-209523Y25150333D01*
X-171428Y25302714D01*
X-133333Y25378904D01*
X-95238Y25417000D01*
X-19047Y25455095D01*
X1200000Y24655095D02*
X1200000Y25455095D01*
X1466666Y24883666D01*
X1733333Y25455095D01*
X1733333Y24655095D01*
X2266666Y25455095D02*
X2419047Y25455095D01*
X2495238Y25417000D01*
X2571428Y25340809D01*
X2609523Y25188428D01*
X2609523Y24921761D01*
X2571428Y24769380D01*
X2495238Y24693190D01*
X2419047Y24655095D01*
X2266666Y24655095D01*
X2190476Y24693190D01*
X2114285Y24769380D01*
X2076190Y24921761D01*
X2076190Y25188428D01*
X2114285Y25340809D01*
X2190476Y25417000D01*
X2266666Y25455095D01*
X2952380Y24655095D02*
X2952380Y25455095D01*
X3142857Y25455095D01*
X3257142Y25417000D01*
X3333333Y25340809D01*
X3371428Y25264619D01*
X3409523Y25112238D01*
X3409523Y24997952D01*
X3371428Y24845571D01*
X3333333Y24769380D01*
X3257142Y24693190D01*
X3142857Y24655095D01*
X2952380Y24655095D01*
X3752380Y25455095D02*
X3752380Y24807476D01*
X3790476Y24731285D01*
X3828571Y24693190D01*
X3904761Y24655095D01*
X4057142Y24655095D01*
X4133333Y24693190D01*
X4171428Y24731285D01*
X4209523Y24807476D01*
X4209523Y25455095D01*
X4971428Y24655095D02*
X4590476Y24655095D01*
X4590476Y25455095D01*
X5238095Y25074142D02*
X5504761Y25074142D01*
X5619047Y24655095D02*
X5238095Y24655095D01*
X5238095Y25455095D01*
X5619047Y25455095D01*
X-1904761Y46655095D02*
X-1904761Y46007476D01*
X-1866666Y45931285D01*
X-1828571Y45893190D01*
X-1752380Y45855095D01*
X-1600000Y45855095D01*
X-1523809Y45893190D01*
X-1485714Y45931285D01*
X-1447619Y46007476D01*
X-1447619Y46655095D01*
X-1104761Y45893190D02*
X-990476Y45855095D01*
X-800000Y45855095D01*
X-723809Y45893190D01*
X-685714Y45931285D01*
X-647619Y46007476D01*
X-647619Y46083666D01*
X-685714Y46159857D01*
X-723809Y46197952D01*
X-800000Y46236047D01*
X-952380Y46274142D01*
X-1028571Y46312238D01*
X-1066666Y46350333D01*
X-1104761Y46426523D01*
X-1104761Y46502714D01*
X-1066666Y46578904D01*
X-1028571Y46617000D01*
X-952380Y46655095D01*
X-761904Y46655095D01*
X-647619Y46617000D01*
X-38095Y46274142D02*
X76190Y46236047D01*
X114285Y46197952D01*
X152380Y46121761D01*
X152380Y46007476D01*
X114285Y45931285D01*
X76190Y45893190D01*
X0Y45855095D01*
X-304761Y45855095D01*
X-304761Y46655095D01*
X-38095Y46655095D01*
X38095Y46617000D01*
X76190Y46578904D01*
X114285Y46502714D01*
X114285Y46426523D01*
X76190Y46350333D01*
X38095Y46312238D01*
X-38095Y46274142D01*
X-304761Y46274142D01*
X495238Y46159857D02*
X1104761Y46159857D01*
X1942857Y45931285D02*
X1904761Y45893190D01*
X1790476Y45855095D01*
X1714285Y45855095D01*
X1600000Y45893190D01*
X1523809Y45969380D01*
X1485714Y46045571D01*
X1447619Y46197952D01*
X1447619Y46312238D01*
X1485714Y46464619D01*
X1523809Y46540809D01*
X1600000Y46617000D01*
X1714285Y46655095D01*
X1790476Y46655095D01*
X1904761Y46617000D01*
X1942857Y46578904D01*
%TO.C,J1*%
D10*
X-4822000Y2413714D02*
X-4822000Y1878000D01*
X-4857714Y1770857D01*
X-4929142Y1699428D01*
X-5036285Y1663714D01*
X-5107714Y1663714D01*
X-4072000Y1663714D02*
X-4500571Y1663714D01*
X-4286285Y1663714D02*
X-4286285Y2413714D01*
X-4357714Y2306571D01*
X-4429142Y2235142D01*
X-4500571Y2199428D01*
%TO.C,K1*%
X7701428Y21412214D02*
X7701428Y22162214D01*
X8130000Y21412214D02*
X7808571Y21840785D01*
X8130000Y22162214D02*
X7701428Y21733642D01*
X8844285Y21412214D02*
X8415714Y21412214D01*
X8630000Y21412214D02*
X8630000Y22162214D01*
X8558571Y22055071D01*
X8487142Y21983642D01*
X8415714Y21947928D01*
%TO.C,D1*%
X7510928Y7471214D02*
X7510928Y8221214D01*
X7689500Y8221214D01*
X7796642Y8185500D01*
X7868071Y8114071D01*
X7903785Y8042642D01*
X7939500Y7899785D01*
X7939500Y7792642D01*
X7903785Y7649785D01*
X7868071Y7578357D01*
X7796642Y7506928D01*
X7689500Y7471214D01*
X7510928Y7471214D01*
X8653785Y7471214D02*
X8225214Y7471214D01*
X8439500Y7471214D02*
X8439500Y8221214D01*
X8368071Y8114071D01*
X8296642Y8042642D01*
X8225214Y8006928D01*
%TO.C,U1*%
X-9207428Y8538714D02*
X-9207428Y7931571D01*
X-9171714Y7860142D01*
X-9136000Y7824428D01*
X-9064571Y7788714D01*
X-8921714Y7788714D01*
X-8850285Y7824428D01*
X-8814571Y7860142D01*
X-8778857Y7931571D01*
X-8778857Y8538714D01*
X-8028857Y7788714D02*
X-8457428Y7788714D01*
X-8243142Y7788714D02*
X-8243142Y8538714D01*
X-8314571Y8431571D01*
X-8386000Y8360142D01*
X-8457428Y8324428D01*
%TD*%
M02*
