%TF.GenerationSoftware,KiCad,Pcbnew,(5.1.9-0-10_14)*%
%TF.CreationDate,2021-05-20T16:30:14+09:00*%
%TF.ProjectId,tracer,74726163-6572-42e6-9b69-6361645f7063,rev?*%
%TF.SameCoordinates,Original*%
%TF.FileFunction,Soldermask,Bot*%
%TF.FilePolarity,Negative*%
%FSLAX46Y46*%
G04 Gerber Fmt 4.6, Leading zero omitted, Abs format (unit mm)*
G04 Created by KiCad (PCBNEW (5.1.9-0-10_14)) date 2021-05-20 16:30:14*
%MOMM*%
%LPD*%
G01*
G04 APERTURE LIST*
%ADD10C,0.010000*%
%ADD11C,0.800000*%
%ADD12R,1.000000X4.000000*%
%ADD13R,1.800000X3.600000*%
%ADD14R,0.500000X0.600000*%
%ADD15R,0.900000X0.800000*%
G04 APERTURE END LIST*
D10*
%TO.C,J1*%
G36*
X500000Y3750000D02*
G01*
X2100000Y3750000D01*
X2100000Y6850000D01*
X500000Y6850000D01*
X500000Y3750000D01*
G37*
X500000Y3750000D02*
X2100000Y3750000D01*
X2100000Y6850000D01*
X500000Y6850000D01*
X500000Y3750000D01*
G36*
X-2100000Y3750000D02*
G01*
X-500000Y3750000D01*
X-500000Y6850000D01*
X-2100000Y6850000D01*
X-2100000Y3750000D01*
G37*
X-2100000Y3750000D02*
X-500000Y3750000D01*
X-500000Y6850000D01*
X-2100000Y6850000D01*
X-2100000Y3750000D01*
%TD*%
D11*
%TO.C,TP14*%
X9906000Y38227000D03*
%TD*%
%TO.C,TP13*%
X9906000Y35687000D03*
%TD*%
D12*
%TO.C,K2*%
X-9525000Y10680000D03*
X-6985000Y10680000D03*
X-6985000Y18980000D03*
X-9525000Y18980000D03*
%TD*%
D13*
%TO.C,A2*%
X-3810000Y42135000D03*
X-1270000Y42135000D03*
X1270000Y42135000D03*
X3810000Y42135000D03*
%TD*%
D11*
%TO.C,TP19*%
X2540000Y23368000D03*
%TD*%
%TO.C,TP17*%
X-2540000Y23368000D03*
%TD*%
D14*
%TO.C,D2*%
X-9144000Y7845000D03*
X-9944000Y7845000D03*
%TD*%
%TO.C,R1*%
G36*
G01*
X9022501Y35677000D02*
X8122499Y35677000D01*
G75*
G02*
X7872500Y35926999I0J249999D01*
G01*
X7872500Y36452001D01*
G75*
G02*
X8122499Y36702000I249999J0D01*
G01*
X9022501Y36702000D01*
G75*
G02*
X9272500Y36452001I0J-249999D01*
G01*
X9272500Y35926999D01*
G75*
G02*
X9022501Y35677000I-249999J0D01*
G01*
G37*
G36*
G01*
X9022501Y33852000D02*
X8122499Y33852000D01*
G75*
G02*
X7872500Y34101999I0J249999D01*
G01*
X7872500Y34627001D01*
G75*
G02*
X8122499Y34877000I249999J0D01*
G01*
X9022501Y34877000D01*
G75*
G02*
X9272500Y34627001I0J-249999D01*
G01*
X9272500Y34101999D01*
G75*
G02*
X9022501Y33852000I-249999J0D01*
G01*
G37*
%TD*%
%TO.C,R2*%
G36*
G01*
X-8058999Y30597000D02*
X-8959001Y30597000D01*
G75*
G02*
X-9209000Y30846999I0J249999D01*
G01*
X-9209000Y31372001D01*
G75*
G02*
X-8959001Y31622000I249999J0D01*
G01*
X-8058999Y31622000D01*
G75*
G02*
X-7809000Y31372001I0J-249999D01*
G01*
X-7809000Y30846999D01*
G75*
G02*
X-8058999Y30597000I-249999J0D01*
G01*
G37*
G36*
G01*
X-8058999Y28772000D02*
X-8959001Y28772000D01*
G75*
G02*
X-9209000Y29021999I0J249999D01*
G01*
X-9209000Y29547001D01*
G75*
G02*
X-8959001Y29797000I249999J0D01*
G01*
X-8058999Y29797000D01*
G75*
G02*
X-7809000Y29547001I0J-249999D01*
G01*
X-7809000Y29021999D01*
G75*
G02*
X-8058999Y28772000I-249999J0D01*
G01*
G37*
%TD*%
D15*
%TO.C,Q1*%
X9636000Y26448000D03*
X9636000Y24548000D03*
X7636000Y25498000D03*
%TD*%
%TO.C,Q2*%
X-7890000Y25940000D03*
X-7890000Y24040000D03*
X-9890000Y24990000D03*
%TD*%
%TO.C,U2*%
G36*
G01*
X10183000Y9155000D02*
X9883000Y9155000D01*
G75*
G02*
X9733000Y9305000I0J150000D01*
G01*
X9733000Y11055000D01*
G75*
G02*
X9883000Y11205000I150000J0D01*
G01*
X10183000Y11205000D01*
G75*
G02*
X10333000Y11055000I0J-150000D01*
G01*
X10333000Y9305000D01*
G75*
G02*
X10183000Y9155000I-150000J0D01*
G01*
G37*
G36*
G01*
X8913000Y9155000D02*
X8613000Y9155000D01*
G75*
G02*
X8463000Y9305000I0J150000D01*
G01*
X8463000Y11055000D01*
G75*
G02*
X8613000Y11205000I150000J0D01*
G01*
X8913000Y11205000D01*
G75*
G02*
X9063000Y11055000I0J-150000D01*
G01*
X9063000Y9305000D01*
G75*
G02*
X8913000Y9155000I-150000J0D01*
G01*
G37*
G36*
G01*
X7643000Y9155000D02*
X7343000Y9155000D01*
G75*
G02*
X7193000Y9305000I0J150000D01*
G01*
X7193000Y11055000D01*
G75*
G02*
X7343000Y11205000I150000J0D01*
G01*
X7643000Y11205000D01*
G75*
G02*
X7793000Y11055000I0J-150000D01*
G01*
X7793000Y9305000D01*
G75*
G02*
X7643000Y9155000I-150000J0D01*
G01*
G37*
G36*
G01*
X6373000Y9155000D02*
X6073000Y9155000D01*
G75*
G02*
X5923000Y9305000I0J150000D01*
G01*
X5923000Y11055000D01*
G75*
G02*
X6073000Y11205000I150000J0D01*
G01*
X6373000Y11205000D01*
G75*
G02*
X6523000Y11055000I0J-150000D01*
G01*
X6523000Y9305000D01*
G75*
G02*
X6373000Y9155000I-150000J0D01*
G01*
G37*
G36*
G01*
X5103000Y9155000D02*
X4803000Y9155000D01*
G75*
G02*
X4653000Y9305000I0J150000D01*
G01*
X4653000Y11055000D01*
G75*
G02*
X4803000Y11205000I150000J0D01*
G01*
X5103000Y11205000D01*
G75*
G02*
X5253000Y11055000I0J-150000D01*
G01*
X5253000Y9305000D01*
G75*
G02*
X5103000Y9155000I-150000J0D01*
G01*
G37*
G36*
G01*
X3833000Y9155000D02*
X3533000Y9155000D01*
G75*
G02*
X3383000Y9305000I0J150000D01*
G01*
X3383000Y11055000D01*
G75*
G02*
X3533000Y11205000I150000J0D01*
G01*
X3833000Y11205000D01*
G75*
G02*
X3983000Y11055000I0J-150000D01*
G01*
X3983000Y9305000D01*
G75*
G02*
X3833000Y9155000I-150000J0D01*
G01*
G37*
G36*
G01*
X2563000Y9155000D02*
X2263000Y9155000D01*
G75*
G02*
X2113000Y9305000I0J150000D01*
G01*
X2113000Y11055000D01*
G75*
G02*
X2263000Y11205000I150000J0D01*
G01*
X2563000Y11205000D01*
G75*
G02*
X2713000Y11055000I0J-150000D01*
G01*
X2713000Y9305000D01*
G75*
G02*
X2563000Y9155000I-150000J0D01*
G01*
G37*
G36*
G01*
X1293000Y9155000D02*
X993000Y9155000D01*
G75*
G02*
X843000Y9305000I0J150000D01*
G01*
X843000Y11055000D01*
G75*
G02*
X993000Y11205000I150000J0D01*
G01*
X1293000Y11205000D01*
G75*
G02*
X1443000Y11055000I0J-150000D01*
G01*
X1443000Y9305000D01*
G75*
G02*
X1293000Y9155000I-150000J0D01*
G01*
G37*
G36*
G01*
X23000Y9155000D02*
X-277000Y9155000D01*
G75*
G02*
X-427000Y9305000I0J150000D01*
G01*
X-427000Y11055000D01*
G75*
G02*
X-277000Y11205000I150000J0D01*
G01*
X23000Y11205000D01*
G75*
G02*
X173000Y11055000I0J-150000D01*
G01*
X173000Y9305000D01*
G75*
G02*
X23000Y9155000I-150000J0D01*
G01*
G37*
G36*
G01*
X-1247000Y9155000D02*
X-1547000Y9155000D01*
G75*
G02*
X-1697000Y9305000I0J150000D01*
G01*
X-1697000Y11055000D01*
G75*
G02*
X-1547000Y11205000I150000J0D01*
G01*
X-1247000Y11205000D01*
G75*
G02*
X-1097000Y11055000I0J-150000D01*
G01*
X-1097000Y9305000D01*
G75*
G02*
X-1247000Y9155000I-150000J0D01*
G01*
G37*
G36*
G01*
X-2517000Y9155000D02*
X-2817000Y9155000D01*
G75*
G02*
X-2967000Y9305000I0J150000D01*
G01*
X-2967000Y11055000D01*
G75*
G02*
X-2817000Y11205000I150000J0D01*
G01*
X-2517000Y11205000D01*
G75*
G02*
X-2367000Y11055000I0J-150000D01*
G01*
X-2367000Y9305000D01*
G75*
G02*
X-2517000Y9155000I-150000J0D01*
G01*
G37*
G36*
G01*
X-3787000Y9155000D02*
X-4087000Y9155000D01*
G75*
G02*
X-4237000Y9305000I0J150000D01*
G01*
X-4237000Y11055000D01*
G75*
G02*
X-4087000Y11205000I150000J0D01*
G01*
X-3787000Y11205000D01*
G75*
G02*
X-3637000Y11055000I0J-150000D01*
G01*
X-3637000Y9305000D01*
G75*
G02*
X-3787000Y9155000I-150000J0D01*
G01*
G37*
G36*
G01*
X-3787000Y18455000D02*
X-4087000Y18455000D01*
G75*
G02*
X-4237000Y18605000I0J150000D01*
G01*
X-4237000Y20355000D01*
G75*
G02*
X-4087000Y20505000I150000J0D01*
G01*
X-3787000Y20505000D01*
G75*
G02*
X-3637000Y20355000I0J-150000D01*
G01*
X-3637000Y18605000D01*
G75*
G02*
X-3787000Y18455000I-150000J0D01*
G01*
G37*
G36*
G01*
X-2517000Y18455000D02*
X-2817000Y18455000D01*
G75*
G02*
X-2967000Y18605000I0J150000D01*
G01*
X-2967000Y20355000D01*
G75*
G02*
X-2817000Y20505000I150000J0D01*
G01*
X-2517000Y20505000D01*
G75*
G02*
X-2367000Y20355000I0J-150000D01*
G01*
X-2367000Y18605000D01*
G75*
G02*
X-2517000Y18455000I-150000J0D01*
G01*
G37*
G36*
G01*
X-1247000Y18455000D02*
X-1547000Y18455000D01*
G75*
G02*
X-1697000Y18605000I0J150000D01*
G01*
X-1697000Y20355000D01*
G75*
G02*
X-1547000Y20505000I150000J0D01*
G01*
X-1247000Y20505000D01*
G75*
G02*
X-1097000Y20355000I0J-150000D01*
G01*
X-1097000Y18605000D01*
G75*
G02*
X-1247000Y18455000I-150000J0D01*
G01*
G37*
G36*
G01*
X23000Y18455000D02*
X-277000Y18455000D01*
G75*
G02*
X-427000Y18605000I0J150000D01*
G01*
X-427000Y20355000D01*
G75*
G02*
X-277000Y20505000I150000J0D01*
G01*
X23000Y20505000D01*
G75*
G02*
X173000Y20355000I0J-150000D01*
G01*
X173000Y18605000D01*
G75*
G02*
X23000Y18455000I-150000J0D01*
G01*
G37*
G36*
G01*
X1293000Y18455000D02*
X993000Y18455000D01*
G75*
G02*
X843000Y18605000I0J150000D01*
G01*
X843000Y20355000D01*
G75*
G02*
X993000Y20505000I150000J0D01*
G01*
X1293000Y20505000D01*
G75*
G02*
X1443000Y20355000I0J-150000D01*
G01*
X1443000Y18605000D01*
G75*
G02*
X1293000Y18455000I-150000J0D01*
G01*
G37*
G36*
G01*
X2563000Y18455000D02*
X2263000Y18455000D01*
G75*
G02*
X2113000Y18605000I0J150000D01*
G01*
X2113000Y20355000D01*
G75*
G02*
X2263000Y20505000I150000J0D01*
G01*
X2563000Y20505000D01*
G75*
G02*
X2713000Y20355000I0J-150000D01*
G01*
X2713000Y18605000D01*
G75*
G02*
X2563000Y18455000I-150000J0D01*
G01*
G37*
G36*
G01*
X3833000Y18455000D02*
X3533000Y18455000D01*
G75*
G02*
X3383000Y18605000I0J150000D01*
G01*
X3383000Y20355000D01*
G75*
G02*
X3533000Y20505000I150000J0D01*
G01*
X3833000Y20505000D01*
G75*
G02*
X3983000Y20355000I0J-150000D01*
G01*
X3983000Y18605000D01*
G75*
G02*
X3833000Y18455000I-150000J0D01*
G01*
G37*
G36*
G01*
X5103000Y18455000D02*
X4803000Y18455000D01*
G75*
G02*
X4653000Y18605000I0J150000D01*
G01*
X4653000Y20355000D01*
G75*
G02*
X4803000Y20505000I150000J0D01*
G01*
X5103000Y20505000D01*
G75*
G02*
X5253000Y20355000I0J-150000D01*
G01*
X5253000Y18605000D01*
G75*
G02*
X5103000Y18455000I-150000J0D01*
G01*
G37*
G36*
G01*
X6373000Y18455000D02*
X6073000Y18455000D01*
G75*
G02*
X5923000Y18605000I0J150000D01*
G01*
X5923000Y20355000D01*
G75*
G02*
X6073000Y20505000I150000J0D01*
G01*
X6373000Y20505000D01*
G75*
G02*
X6523000Y20355000I0J-150000D01*
G01*
X6523000Y18605000D01*
G75*
G02*
X6373000Y18455000I-150000J0D01*
G01*
G37*
G36*
G01*
X7643000Y18455000D02*
X7343000Y18455000D01*
G75*
G02*
X7193000Y18605000I0J150000D01*
G01*
X7193000Y20355000D01*
G75*
G02*
X7343000Y20505000I150000J0D01*
G01*
X7643000Y20505000D01*
G75*
G02*
X7793000Y20355000I0J-150000D01*
G01*
X7793000Y18605000D01*
G75*
G02*
X7643000Y18455000I-150000J0D01*
G01*
G37*
G36*
G01*
X8913000Y18455000D02*
X8613000Y18455000D01*
G75*
G02*
X8463000Y18605000I0J150000D01*
G01*
X8463000Y20355000D01*
G75*
G02*
X8613000Y20505000I150000J0D01*
G01*
X8913000Y20505000D01*
G75*
G02*
X9063000Y20355000I0J-150000D01*
G01*
X9063000Y18605000D01*
G75*
G02*
X8913000Y18455000I-150000J0D01*
G01*
G37*
G36*
G01*
X10183000Y18455000D02*
X9883000Y18455000D01*
G75*
G02*
X9733000Y18605000I0J150000D01*
G01*
X9733000Y20355000D01*
G75*
G02*
X9883000Y20505000I150000J0D01*
G01*
X10183000Y20505000D01*
G75*
G02*
X10333000Y20355000I0J-150000D01*
G01*
X10333000Y18605000D01*
G75*
G02*
X10183000Y18455000I-150000J0D01*
G01*
G37*
%TD*%
M02*
